<svg width="40" height="40" viewBox="0 0 40 40" fill="none" xmlns="http://www.w3.org/2000/svg">
<g clip-path="url(#clip0_138_506)">
<path d="M5 5V38.75C4.99984 38.9671 5.05621 39.1804 5.16356 39.3691C5.27091 39.5578 5.42554 39.7152 5.61223 39.826C5.79892 39.9367 6.01123 39.9969 6.22826 40.0007C6.4453 40.0045 6.65957 39.9517 6.85 39.8475L20 32.6725L33.15 39.8475C33.3404 39.9517 33.5547 40.0045 33.7717 40.0007C33.9888 39.9969 34.2011 39.9367 34.3878 39.826C34.5745 39.7152 34.7291 39.5578 34.8364 39.3691C34.9438 39.1804 35.0002 38.9671 35 38.75V5C35 3.67392 34.4732 2.40215 33.5355 1.46447C32.5979 0.526784 31.3261 0 30 0L10 0C8.67392 0 7.40215 0.526784 6.46447 1.46447C5.52678 2.40215 5 3.67392 5 5Z" fill="#25C8C1"/>
</g>
<defs>
<clipPath id="clip0_138_506">
<rect width="40" height="40" fill="white"/>
</clipPath>
</defs>
</svg>
