<svg width="40" height="40" viewBox="0 0 40 40" fill="none" xmlns="http://www.w3.org/2000/svg">
<path d="M5 5C5 3.67392 5.52678 2.40215 6.46447 1.46447C7.40215 0.526784 8.67392 0 10 0L30 0C31.3261 0 32.5979 0.526784 33.5355 1.46447C34.4732 2.40215 35 3.67392 35 5V38.75C34.9999 38.9761 34.9384 39.1979 34.8222 39.3919C34.706 39.5858 34.5393 39.7446 34.34 39.8513C34.1407 39.9581 33.9161 40.0087 33.6903 39.9979C33.4644 39.9871 33.2457 39.9153 33.0575 39.79L20 32.7525L6.9425 39.79C6.75426 39.9153 6.53558 39.9871 6.30973 39.9979C6.08388 40.0087 5.85933 39.9581 5.66 39.8513C5.46066 39.7446 5.29401 39.5858 5.17779 39.3919C5.06156 39.1979 5.00012 38.9761 5 38.75V5ZM10 2.5C9.33696 2.5 8.70107 2.76339 8.23223 3.23223C7.76339 3.70107 7.5 4.33696 7.5 5V36.415L19.3075 30.21C19.5127 30.0735 19.7536 30.0006 20 30.0006C20.2464 30.0006 20.4873 30.0735 20.6925 30.21L32.5 36.415V5C32.5 4.33696 32.2366 3.70107 31.7678 3.23223C31.2989 2.76339 30.663 2.5 30 2.5H10Z" fill="black"/>
</svg>
