<svg width="67" height="67" viewBox="0 0 67 67" fill="none" xmlns="http://www.w3.org/2000/svg">
<path d="M60.8736 28.0324H58.6249V27.9166H33.4999V39.0833H49.277C46.9753 45.5836 40.7904 50.2499 33.4999 50.2499C24.2497 50.2499 16.7499 42.7501 16.7499 33.4999C16.7499 24.2497 24.2497 16.7499 33.4999 16.7499C37.7698 16.7499 41.6544 18.3607 44.6121 20.9919L52.5084 13.0956C47.5225 8.4489 40.8532 5.58325 33.4999 5.58325C18.0829 5.58325 5.58325 18.0829 5.58325 33.4999C5.58325 48.9169 18.0829 61.4166 33.4999 61.4166C48.9169 61.4166 61.4166 48.9169 61.4166 33.4999C61.4166 31.6281 61.224 29.801 60.8736 28.0324Z" fill="#FFC107"/>
<path d="M8.80225 20.5061L17.9743 27.2326C20.4561 21.0882 26.4665 16.7499 33.5001 16.7499C37.77 16.7499 41.6546 18.3607 44.6124 20.9919L52.5086 13.0956C47.5227 8.4489 40.8534 5.58325 33.5001 5.58325C22.7773 5.58325 13.4783 11.637 8.80225 20.5061Z" fill="#FF3D00"/>
<path d="M33.5 61.4166C40.7109 61.4166 47.2629 58.6571 52.2168 54.1695L43.5765 46.8581C40.6796 49.0613 37.1396 50.2529 33.5 50.25C26.2389 50.25 20.0735 45.62 17.7508 39.1587L8.64722 46.1728C13.2674 55.2136 22.6502 61.4166 33.5 61.4166Z" fill="#4CAF50"/>
<path d="M60.8737 28.0326H58.625V27.9167H33.5V39.0834H49.2771C48.1761 42.1772 46.1928 44.8806 43.5723 46.8596L43.5765 46.8568L52.2167 54.1682C51.6054 54.7237 61.4167 47.4584 61.4167 33.5001C61.4167 31.6283 61.224 29.8011 60.8737 28.0326Z" fill="#1976D2"/>
</svg>
