<svg width="31" height="31" viewBox="0 0 31 31" fill="none" xmlns="http://www.w3.org/2000/svg">
<path d="M22.751 20.04C24.627 17.4797 25.4673 14.3053 25.1036 11.152C24.74 7.99874 23.1994 5.09903 20.7899 3.03304C18.3804 0.967045 15.2798 -0.112869 12.1084 0.00934763C8.93701 0.131564 5.92869 1.4469 3.68531 3.6922C1.44193 5.9375 0.128933 8.94718 0.00900232 12.1191C-0.110928 15.291 0.971052 18.3913 3.03848 20.7996C5.1059 23.208 8.00631 24.7468 11.1594 25.1082C14.3125 25.4696 17.4858 24.627 20.0444 22.7489H20.0425C20.1006 22.8264 20.1626 22.9 20.2324 22.9717L27.6914 30.4319C28.0547 30.7955 28.5476 30.9998 29.0615 31C29.5754 31.0002 30.0684 30.7962 30.4319 30.4328C30.7955 30.0695 30.9998 29.5766 31 29.0626C31.0002 28.5486 30.7962 28.0555 30.4329 27.692L22.9738 20.2318C22.9045 20.1617 22.8301 20.0969 22.751 20.038V20.04ZM23.2509 12.5915C23.2509 13.991 22.9752 15.3768 22.4397 16.6699C21.9042 17.9629 21.1193 19.1377 20.1298 20.1273C19.1404 21.117 17.9657 21.902 16.6728 22.4376C15.38 22.9732 13.9944 23.2488 12.595 23.2488C11.1957 23.2488 9.81003 22.9732 8.5172 22.4376C7.22437 21.902 6.04968 21.117 5.06019 20.1273C4.07071 19.1377 3.2858 17.9629 2.7503 16.6699C2.21479 15.3768 1.93917 13.991 1.93917 12.5915C1.93917 9.76495 3.06183 7.05422 5.06019 5.05558C7.05855 3.05694 9.76891 1.93411 12.595 1.93411C15.4211 1.93411 18.1315 3.05694 20.1298 5.05558C22.1282 7.05422 23.2509 9.76495 23.2509 12.5915Z" fill="#C4C4C4"/>
</svg>
