<svg width="66" height="55" viewBox="0 0 66 55" fill="none" xmlns="http://www.w3.org/2000/svg">
<g clip-path="url(#clip0_315_1858)">
<path d="M66 6.69736C63.5285 7.81493 60.9071 8.5485 58.2228 8.87368C61.0188 7.16315 63.1656 4.45447 64.1765 1.2271C61.5186 2.83706 58.6106 3.97138 55.5782 4.58105C53.1081 1.89499 49.5892 0.216309 45.6944 0.216309C38.2163 0.216309 32.1533 6.40473 32.1533 14.0374C32.1533 15.1208 32.2732 16.1755 32.504 17.1874C21.2505 16.6108 11.2731 11.1084 4.59448 2.74631C3.42916 4.78762 2.76143 7.1621 2.76143 9.69473C2.76143 14.49 5.15212 18.7203 8.78522 21.1989C6.63493 21.1302 4.53195 20.5374 2.65186 19.47C2.65109 19.5279 2.65109 19.5858 2.65109 19.6439C2.65109 26.3405 7.31852 31.9268 13.5127 33.1966C11.5188 33.7501 9.42725 33.8311 7.39793 33.4334C9.12089 38.9245 14.1217 42.9203 20.0467 43.0321C15.4125 46.7389 9.57387 48.9487 3.23013 48.9487C2.13701 48.9487 1.05935 48.8831 0 48.7555C5.99234 52.6771 13.1098 54.9653 20.7565 54.9653C45.663 54.9653 59.2824 33.9045 59.2824 15.6403C59.2824 15.0408 59.2696 14.4447 59.2433 13.8521C61.8942 11.896 64.1822 9.47319 66 6.69736Z" fill="#55ACEE"/>
</g>
<defs>
<clipPath id="clip0_315_1858">
<rect width="66" height="55" fill="white"/>
</clipPath>
</defs>
</svg>
