<?xml version="1.0" encoding="UTF-8" standalone="no"?>
<svg
   xmlns:dc="http://purl.org/dc/elements/1.1/"
   xmlns:cc="http://creativecommons.org/ns#"
   xmlns:rdf="http://www.w3.org/1999/02/22-rdf-syntax-ns#"
   xmlns:svg="http://www.w3.org/2000/svg"
   xmlns="http://www.w3.org/2000/svg"
   id="svg20"
   version="1.1"
   height="60"
   width="230">
  <metadata
     id="metadata26">
    <rdf:RDF>
      <cc:Work
         rdf:about="">
        <dc:format>image/svg+xml</dc:format>
        <dc:type
           rdf:resource="http://purl.org/dc/dcmitype/StillImage" />
      </cc:Work>
    </rdf:RDF>
  </metadata>
  <defs
     id="defs24" />
  <g
     id="g5">
    <title
       id="title2">background</title>
    <path
       id="canvas_background"
       d="M -1,-1 H 231 V 61 H -1 Z"
       style="fill:none" />
  </g>
  <g
     id="g18">
    <title
       id="title7">Layer 1</title>
    <g
       id="svg_1"
       transform="translate(-147.94051,-262.74962)"
       stroke="null">
      <path
         style="stroke-width:0;stroke-miterlimit:2"
         id="path73222"
         d="m 157.77439,310.47492 q -0.65768,-0.49327 -0.76731,-0.87692 -0.10962,-0.82211 1.4798,-5.86436 1.64423,-5.0972 2.30191,-6.41239 0.71252,-1.3702 1.04136,-2.57596 0.32884,-1.20576 0.43847,-1.42499 -0.10961,-0.60288 -0.0548,-0.76732 0.0548,-0.21923 0.49328,-0.71251 0.76732,-0.65769 1.64424,-2.57596 l 2.74039,-7.83759 q 0.49327,-1.75384 0.27404,-1.75384 -0.0548,0 -1.64424,0.21923 -1.53463,0.16443 -1.58943,0.16443 -1.425,0.21923 -1.425,-0.76732 0.27404,-1.91827 1.97308,-2.08271 4.22031,-0.98655 4.6586,-0.87692 0.71252,-0.49328 0.71252,-0.76731 0,-0.54808 0.82211,-0.60289 0.82212,-0.0548 1.20576,0.49328 0.38365,0.65768 4.76833,-0.27404 3.94616,-0.32884 4.87776,-0.0548 0.49327,-0.10961 1.15096,-0.16442 1.31539,-0.0548 1.53463,-0.16442 2.24711,0.38364 2.41155,0.60288 0.32884,0.32884 0.21923,0.65768 l 0.38364,0.27404 q 0.82212,0.43847 0.54808,1.26059 -0.0548,0.49328 -0.54808,0.60288 -0.43847,0.0548 -2.46635,0 -3.94615,-0.54808 -9.92024,0.27404 -2.79519,0.21923 -3.34342,0.87692 -0.98655,1.15096 -2.95963,6.19324 -1.91828,5.04219 -2.02788,5.20662 1.86347,0.54808 10.1944,-0.21923 2.52116,-0.49328 2.90483,-0.27404 0.43847,0.21923 0.65768,1.09616 0.27404,0.82212 0.0548,1.26059 -0.49328,1.15096 -9.92024,1.31539 -3.39814,0.0548 -4.71362,-0.10961 -0.49328,0.38364 -0.49328,0.98655 -0.98655,1.75384 -2.90482,6.79627 -1.91828,5.04219 -1.91828,6.0288 -0.43847,1.09616 -0.65768,2.19231 -0.16442,1.04136 -0.32884,1.15096 -0.0548,0.16443 -0.65768,0.16443 -0.60288,0 -1.15096,-0.65769 z"
         stroke-miterlimit="2"
         stroke="null" />
      <path
         style="stroke-width:0;stroke-miterlimit:2"
         id="path73224"
         d="m 196.84936,297.15655 q 0.32884,-0.87692 0.27403,-2.35675 0,-1.53463 -0.43847,-1.75384 -1.53463,-0.87692 -3.61728,0.82212 -2.74039,2.35675 -5.42607,8.3309 -1.15096,2.74039 0.16442,3.83642 1.64424,1.3702 5.42607,-2.74039 2.35675,-2.68559 3.61728,-6.13852 z m -10.57799,-0.38365 q 3.672,-6.08381 8.55005,-7.23456 1.15096,-0.32884 1.64423,-0.27404 0.54808,0.0548 1.3154,0.87692 1.26059,0.54808 1.80867,1.3154 0.60288,0.76731 0.76731,2.24711 0.43848,4.27502 -2.84999,8.98834 -1.26059,1.80867 -2.35675,2.7952 -1.09616,0.93172 -2.90483,2.02787 -2.13751,1.425 -4.27502,1.58944 -0.93172,0 -2.13751,-1.04136 -2.08271,-2.13751 -1.75384,-4.05587 l 0.10961,-1.26059 q -0.27403,-0.27404 -0.16442,-0.43848 0.16442,-0.16442 0.21923,-0.21923 0.32884,0 0.21923,-0.49328 -0.10961,-0.54807 0.43848,-2.02787 0.54808,-1.53464 1.37019,-2.7952 z"
         stroke-miterlimit="2"
         stroke="null" />
      <path
         style="stroke-width:0;stroke-miterlimit:2"
         id="path73226"
         d="m 209.13592,308.1199 q -0.54808,0.76731 -0.98655,0.76731 -0.43848,0 -1.3154,-0.87692 -0.54807,-0.43847 -0.71251,-0.82211 -0.32884,-0.76732 1.09616,-6.85098 0.16442,-1.3702 1.91827,-5.75494 1.75385,-4.38475 2.85,-5.97409 1.09615,-0.82212 2.13751,0.21923 0.54808,0.43847 0.21923,1.4798 -0.43848,1.425 -1.80867,4.38474 -1.3154,2.90483 -1.15096,2.90483 0.16442,0 0.49328,-0.21923 0.60288,-1.04136 2.90482,-2.85 2.35675,-1.80867 2.95963,-2.08271 0.60288,-0.32884 1.26059,-0.60288 0.71252,-0.27404 0.82212,-0.32884 1.20576,-0.60288 2.52116,-0.43847 1.37019,0.16442 1.69903,0.98655 0,0.54808 0.65769,0.87692 l 0.27403,0.32884 q 0,0.49328 -1.42499,0.60288 -1.425,0.0548 -3.17899,0.82212 -0.21923,0.16442 -0.93172,0.54808 -0.65768,0.32884 -0.93172,0.49327 -0.21923,0.16443 -0.82212,0.49328 -0.60288,0.32885 -0.93172,0.54808 -0.27404,0.21923 -0.76731,0.54808 -0.49328,0.32884 -0.87692,0.60288 -0.32885,0.27404 -0.76732,0.60288 -1.69904,1.425 -3.17899,3.94615 -0.38364,0.38364 -0.82211,2.02788 -0.38365,1.58943 -0.38365,1.97307 -0.21923,0.87692 -0.82211,1.64424 z"
         stroke-miterlimit="2"
         stroke="null" />
      <path
         style="stroke-width:0;stroke-miterlimit:2"
         id="path73230"
         d="m 278.68942,275.94646 q 0.98655,-1.64423 2.35675,-1.64423 1.42499,0 1.97307,1.64423 1.3702,3.17899 1.09616,13.81168 -0.21923,6.85098 0.60288,9.97496 0.43847,2.52115 1.20576,5.48078 0.76731,2.90483 1.20576,2.90483 1.75384,0 6.08381,-17.37395 0.93172,-3.12398 1.425,-7.23457 1.75384,-6.63183 1.75384,-7.34428 v -1.20576 q 0.21923,0 0.43847,-0.71252 0.27404,-0.71251 0.27404,-1.80867 0,-1.09615 0.76732,-1.86347 0.21923,-0.60288 1.425,-0.27404 1.26059,0.27404 1.53463,1.09616 0.16442,1.15096 -1.53463,8.38561 0,0.65768 -0.71252,3.67199 -0.65768,2.95963 -0.87692,4.22031 -0.54808,3.56257 -0.98655,3.45285 -2.24712,9.64608 -5.75494,17.64811 -2.7952,6.41239 -6.19324,2.02788 -1.80867,-2.35675 -2.63079,-5.91938 -0.27404,-1.31539 -0.93172,-4.87775 -1.09616,-2.85 -0.93172,-6.79627 0.0548,-1.3702 0.21923,-3.83643 0.21923,-2.46635 0.27404,-3.727 -0.0548,-3.89144 -0.43847,-3.89144 -0.38365,-0.0548 -1.3702,2.74039 -0.98655,2.7952 -1.91827,5.04219 -2.35675,5.53549 -2.90483,6.68654 -0.54808,1.15096 -1.04136,3.17899 -3.61728,9.64608 -4.32973,12.4962 -0.43848,1.09615 -0.76732,1.64423 -0.76731,1.20576 -2.08271,-0.21923 -0.76731,-0.82212 -0.82211,-1.4798 0,-0.60288 0.43847,-2.08271 0.43847,-1.53463 1.4798,-4.00086 1.04135,-2.52116 1.4798,-4.76833 1.86347,-4.32974 2.41155,-6.19324 0.60288,-1.91828 1.04135,-2.79519 0.43848,-0.93173 1.20577,-2.46636 0.76731,-1.53463 1.26059,-2.79519 0.54808,-1.31539 1.15096,-3.2337 0.65768,-1.97307 0.98655,-2.95963 0.87692,-2.79519 2.13751,-4.60389 z"
         stroke-miterlimit="2"
         stroke="null" />
      <path
         style="stroke-width:0;stroke-miterlimit:2"
         id="path73232"
         d="m 311.34456,296.38938 q 0.93172,-0.38364 1.86347,-1.3702 0.98656,-0.98655 0.98656,-1.69903 0,-0.76732 -0.76732,-1.20576 -0.76731,-0.49328 -1.80867,-0.21923 -1.04135,0.27404 -2.13751,1.26059 -1.09616,0.98655 -1.80867,1.97307 -0.71251,0.93173 -0.54808,1.09616 0.21923,0.43848 1.75384,0.49328 1.53463,0.0548 2.46635,-0.32884 z m -0.10961,8.87892 q 0.16442,-0.10962 0.16442,-0.10962 0.0548,0 0.10962,-0.0548 0.10961,-0.0548 0.10961,-0.10961 0.38364,-0.32884 0.93172,-0.87692 0.60288,-0.60288 0.87692,-0.60288 0.27404,0 0.54808,0.27404 0.32884,0.27404 0.43847,0.32884 0.87692,0 -0.27403,1.425 -1.09616,1.42499 -2.7404,2.46635 -1.75384,1.53463 -4.1653,1.15096 -2.35675,-0.43848 -3.78171,-2.41155 -1.69904,-2.13751 -1.2606,-6.85098 0.21924,-3.06926 2.63079,-6.24795 2.41155,-3.2337 5.0972,-4.27503 0.76732,-0.49327 1.425,-0.49327 0.65768,-0.0548 2.19231,0.16442 1.58944,0.21923 2.46636,1.3154 1.37019,1.37019 1.37019,3.17898 -0.21923,1.31539 -1.69904,3.01455 -1.47979,1.69904 -3.56256,2.74039 -3.06927,0.93172 -4.98748,-0.38364 -0.98655,-0.38364 -1.3702,0.16442 -0.32884,0.54808 -0.60288,2.74039 -0.43847,3.78172 1.80867,4.1653 0.21923,0.0548 0.65769,0.16443 0.43847,0.0548 0.54807,0.10961 0.16443,0 0.49328,0.0548 0.32884,0 0.54808,-0.0548 0.43847,-0.10961 0.82212,-0.32884 0.43847,-0.27404 0.65768,-0.38364 0.43847,-0.21923 0.54808,-0.27404 z"
         stroke-miterlimit="2"
         stroke="null" />
      <path
         style="stroke-width:0;stroke-miterlimit:2"
         id="path73234"
         d="m 337.48176,294.91154 q -0.65768,1.3154 -1.20576,3.672 -0.54808,2.30191 -0.54808,3.34342 0,0.98655 0.16443,1.31539 0.16442,0.32884 0.32884,0.38364 0.16442,0.0548 0.54808,0.0548 2.57595,0 6.30296,-5.69993 1.58943,-2.46635 1.58943,-2.84999 0,-0.38365 0.49328,-0.98656 0.60288,-0.87692 1.26059,-1.20576 0.65768,-0.32884 1.4798,0.49328 0.32884,0.32884 0.32884,1.75384 -0.27404,0.98655 -0.93172,2.57595 -0.65769,1.53464 -1.04136,1.97308 -1.04135,0.82212 -1.75384,2.02788 -1.53463,1.80867 -2.19231,2.35675 -0.65768,0.54808 -0.82212,0.71251 -1.69903,1.69904 -3.67199,2.19231 -1.91828,0.43848 -3.01455,-0.43847 -1.69904,-0.87692 -1.69904,-2.95963 l -0.27404,-1.15096 q -0.82212,0 -1.4798,1.15096 -0.60288,1.09616 -2.46635,2.46635 -1.86347,1.3702 -2.85,1.3702 -1.26059,0 -2.08271,-2.13751 -0.82211,-2.19232 -0.60288,-4.87776 0,-1.80867 0.32885,-3.50756 0.38364,-1.69903 0.43847,-1.91827 0.54808,-3.94615 1.3702,-4.76833 0.38364,-0.49328 1.15095,-0.43847 1.64424,0.10961 1.4798,2.95963 -0.10961,1.75383 -0.60288,2.41155 -0.10961,0.27404 -0.43847,2.79519 -0.27404,2.46635 -0.38364,3.06926 -0.27404,1.80867 0.65768,1.91828 1.20576,0.10961 3.50756,-3.2337 2.35675,-3.34342 3.28841,-5.97409 0.93172,-2.68559 1.26059,-2.90483 0.87692,-0.54808 2.08271,0.27404 1.26059,1.26059 0,3.78172 z"
         stroke-miterlimit="2"
         stroke="null" />
      <path
         style="stroke-width:0;stroke-miterlimit:2"
         id="path73236"
         d="m 360.51461,305.54186 -0.98655,-0.38364 q 0,-0.49328 -1.58944,-1.20576 -3.01455,-2.46636 -2.74039,-2.85 v -0.27404 q -0.38364,0 -0.87692,-1.04135 -0.43847,-1.09616 -0.43847,-2.02788 0,-0.98655 0.82212,-2.74039 0.87692,-1.75384 2.19231,-3.01455 1.31539,-1.26059 3.78172,-2.85 5.04219,-3.28841 7.17985,-2.02788 1.64423,0.98656 2.30191,2.7404 0,3.45284 -0.98655,3.45284 -0.27404,0 -0.27404,0.43848 0,0.43847 -0.82212,1.15096 -2.41155,1.75383 -2.74039,0.27403 -0.27404,-0.54807 -0.49327,-0.54807 -0.32885,-0.16443 -0.32885,-0.71252 l 0.32885,-0.60288 q 0.32884,0 1.09615,-1.26059 0.76732,-1.31539 0.76732,-1.69904 0,-0.38364 -0.10962,-0.43847 -0.0548,-0.0548 -0.49327,-0.0548 -4.27503,1.91828 -5.31635,2.90483 -0.21923,0.38364 -0.27404,0.49327 -0.0548,0.0548 -0.27404,0.0548 0,-0.43847 -1.75384,2.02788 -0.38364,0.54808 -1.15096,1.69904 -0.38364,0.38364 -0.43847,1.09615 0,0.71252 -0.0548,0.82212 0,0.10962 0,0.27404 0.0548,0.10962 0.0548,0.21923 0.0548,0.0548 0.16442,0.21923 0.16442,0.10962 0.27404,0.21923 0.10962,0.0548 0.38364,0.27404 0.27404,0.21924 0.49328,0.38365 4.98748,3.727 5.31635,4.98747 0.93172,1.69904 0.60288,2.52116 -0.32884,0.82212 -1.53463,1.37019 -1.15096,0.54808 -3.39814,0.71252 -2.24711,0.21923 -3.39813,0 -0.98655,-0.38364 -1.91827,-1.09616 -0.93173,-0.76731 -1.2606,-1.31539 0,-0.76732 0.32884,-0.82212 0.38365,-0.0548 3.39814,0.21923 1.20576,0 2.74039,-0.27404 1.53463,-0.32884 1.69904,-0.71251 0.16442,-0.10962 -0.27404,-0.60288 z"
         stroke-miterlimit="2"
         stroke="null" />
      <path
         style="fill:#25c8c1;stroke-width:0.46526"
         id="icon"
         d="m 244.52967,288.1795 c -0.0888,-0.001 -0.17192,-8.9e-4 -0.18461,10e-4 -0.0127,0.002 -0.0577,0.0105 -0.1,0.019 -0.0423,0.008 -0.0978,0.0217 -0.12323,0.0295 -0.0254,0.008 -0.0791,0.0269 -0.11922,0.0423 -0.0401,0.0155 -0.10231,0.0439 -0.13831,0.0632 -0.0359,0.0194 -0.0948,0.0542 -0.13076,0.0775 -0.0359,0.0233 -0.0965,0.0667 -0.13461,0.0965 -0.0438,0.0342 -0.90389,0.88819 -2.33691,2.32017 -1.24724,1.24626 -2.309,2.31105 -2.35934,2.36627 -0.0504,0.0552 -0.12476,0.14145 -0.16522,0.19152 -0.0405,0.0501 -0.10284,0.13177 -0.13861,0.18154 -0.0357,0.0498 -0.0924,0.13369 -0.12592,0.18653 -0.0335,0.0528 -0.084,0.13715 -0.11215,0.1873 -0.0282,0.0501 -0.0756,0.14131 -0.10546,0.20269 -0.0298,0.0613 -0.0727,0.157 -0.0954,0.21246 -0.0226,0.0555 -0.0535,0.13507 -0.0685,0.17683 -0.0152,0.0417 -0.0428,0.12777 -0.0615,0.19131 -0.0187,0.0635 -0.0442,0.16053 -0.0567,0.21553 -0.0124,0.055 -0.0296,0.14152 -0.0382,0.1923 -0.009,0.0508 -0.0216,0.1443 -0.0289,0.20768 -0.009,0.0818 -0.0135,0.17706 -0.0137,0.32691 -1.4e-4,0.11645 0.004,0.2513 0.009,0.29999 0.005,0.0486 0.0181,0.14084 0.0287,0.20477 0.0106,0.064 0.0297,0.15915 0.0425,0.21153 0.0127,0.0524 0.0355,0.13499 0.0506,0.18353 0.0152,0.0486 0.0422,0.12645 0.0603,0.17307 0.0181,0.0466 0.0508,0.12461 0.0728,0.17322 0.022,0.0486 0.0628,0.12999 0.0906,0.18076 0.0278,0.0508 0.0765,0.1333 0.10815,0.18346 0.0317,0.0502 0.0905,0.13499 0.13077,0.18846 0.0402,0.0535 0.0994,0.12845 0.13145,0.16652 0.0321,0.0381 0.15546,0.16784 0.27414,0.28845 0.11877,0.12061 0.23608,0.24468 0.26084,0.27583 0.0248,0.0312 0.11338,0.12807 0.19692,0.21538 0.0836,0.0873 0.29515,0.30083 0.47014,0.47436 0.175,0.17361 0.34752,0.34015 0.38353,0.37006 0.036,0.03 0.0995,0.081 0.14115,0.11346 0.0417,0.0325 0.12477,0.0915 0.18461,0.13107 0.0598,0.0397 0.14308,0.0917 0.185,0.11568 0.0418,0.0239 0.11007,0.0606 0.15161,0.0814 0.0415,0.0208 0.12315,0.0583 0.18154,0.0832 0.0583,0.0249 0.16507,0.0645 0.23713,0.0879 0.072,0.0234 0.18623,0.0548 0.25384,0.0698 0.0675,0.015 0.17123,0.0342 0.23045,0.0428 0.0592,0.009 0.17461,0.0194 0.25646,0.0241 0.10968,0.006 0.18607,0.006 0.29129,0 0.0785,-0.005 0.18461,-0.0141 0.23591,-0.0206 0.0512,-0.007 0.14345,-0.0219 0.20483,-0.0339 0.0613,-0.0122 0.15808,-0.0346 0.21492,-0.05 0.0568,-0.0155 0.1503,-0.0438 0.20769,-0.0632 0.0573,-0.0193 0.15669,-0.0569 0.22076,-0.0835 0.0641,-0.0266 0.16838,-0.0744 0.23175,-0.10615 0.0634,-0.0318 0.16153,-0.0843 0.21808,-0.11676 0.0565,-0.0325 0.15476,-0.0938 0.21822,-0.13607 0.0635,-0.0423 0.14831,-0.10161 0.18845,-0.13169 0.0402,-0.0301 0.11292,-0.0873 0.16153,-0.12715 0.0487,-0.0398 0.13177,-0.11138 0.18462,-0.15907 0.0529,-0.0477 1.14185,-1.13317 2.41993,-2.41217 1.82036,-1.82158 2.33555,-2.3415 2.37858,-2.39945 0.0301,-0.0407 0.071,-0.10123 0.0908,-0.13461 0.0198,-0.0333 0.049,-0.0885 0.0648,-0.12269 0.0159,-0.0342 0.0397,-0.0926 0.0529,-0.12999 0.0132,-0.0373 0.0331,-0.11154 0.0445,-0.16484 0.018,-0.0854 0.0205,-0.1143 0.0205,-0.24307 0,-0.12877 -0.002,-0.15769 -0.0205,-0.24307 -0.0113,-0.0533 -0.0312,-0.12777 -0.0444,-0.16538 -0.0131,-0.0377 -0.0408,-0.10423 -0.0615,-0.14792 -0.0207,-0.0436 -0.0596,-0.11284 -0.0865,-0.15384 -0.0269,-0.0409 -0.0698,-0.10038 -0.0955,-0.13207 -0.0256,-0.0318 -0.0755,-0.0855 -0.11092,-0.11931 -0.0354,-0.0339 -0.0851,-0.0776 -0.11053,-0.0971 -0.0254,-0.0195 -0.0765,-0.0552 -0.11376,-0.0794 -0.0372,-0.0242 -0.10292,-0.0607 -0.14615,-0.0811 -0.0432,-0.0204 -0.11515,-0.0492 -0.15985,-0.0642 -0.0448,-0.0149 -0.12092,-0.0351 -0.16922,-0.0448 -0.0742,-0.0149 -0.11192,-0.0177 -0.24176,-0.0177 -0.12899,0 -0.16776,0.003 -0.23999,0.0174 -0.0474,0.01 -0.12645,0.0312 -0.17568,0.0482 -0.0493,0.017 -0.11761,0.0449 -0.15185,0.0621 -0.0342,0.0172 -0.0901,0.0485 -0.12399,0.0696 -0.0339,0.021 -0.0912,0.061 -0.12738,0.0888 -0.0419,0.0322 -0.86482,0.84873 -2.26942,2.25184 -1.67549,1.6737 -2.22127,2.21449 -2.27688,2.25586 -0.0402,0.0301 -0.10423,0.0741 -0.1423,0.0981 -0.0381,0.0238 -0.10184,0.0591 -0.14177,0.0781 -0.0399,0.0191 -0.10745,0.0463 -0.14999,0.0605 -0.0426,0.0142 -0.11376,0.0336 -0.15822,0.0431 -0.0667,0.0143 -0.10485,0.0172 -0.21922,0.0172 -0.11385,0 -0.15246,-0.003 -0.2173,-0.0169 -0.0434,-0.009 -0.10785,-0.0275 -0.14323,-0.0403 -0.0355,-0.0128 -0.0917,-0.0372 -0.125,-0.0542 -0.0333,-0.0171 -0.09,-0.0503 -0.12599,-0.074 -0.0507,-0.0333 -0.12077,-0.0983 -0.31222,-0.28977 -0.19984,-0.19984 -0.25584,-0.26053 -0.2943,-0.31861 -0.0261,-0.0395 -0.0611,-0.10007 -0.0777,-0.13461 -0.0167,-0.0345 -0.0391,-0.0894 -0.0499,-0.12176 -0.0108,-0.0325 -0.0252,-0.0844 -0.0319,-0.11538 -0.007,-0.0311 -0.0142,-0.10369 -0.0165,-0.16145 -0.003,-0.0636 -3e-4,-0.13484 0.005,-0.18076 0.005,-0.0417 0.0192,-0.11454 0.0312,-0.16192 0.0119,-0.0474 0.0379,-0.127 0.0577,-0.17692 0.0198,-0.0499 0.0546,-0.12576 0.0774,-0.16853 0.0227,-0.0427 0.0626,-0.11023 0.0887,-0.14999 0.026,-0.0397 0.0698,-0.10161 0.0975,-0.13761 0.0321,-0.0419 0.82444,-0.84058 2.20552,-2.22294 l 2.15541,-2.15764 0.0723,-0.0975 c 0.0397,-0.0535 0.093,-0.13492 0.11838,-0.18068 0.0254,-0.0458 0.0607,-0.11969 0.0785,-0.16406 0.0178,-0.0445 0.0407,-0.1103 0.0511,-0.14623 0.0103,-0.036 0.025,-0.1 0.0325,-0.14231 0.01,-0.0545 0.0138,-0.11607 0.0138,-0.21153 8e-5,-0.0933 -0.004,-0.15699 -0.0131,-0.20768 -0.007,-0.0402 -0.0219,-0.10423 -0.0328,-0.1423 -0.0108,-0.0381 -0.035,-0.10592 -0.0539,-0.15084 -0.0189,-0.0449 -0.0529,-0.11307 -0.0756,-0.15153 -0.0227,-0.0385 -0.0609,-0.0959 -0.0848,-0.12776 -0.0239,-0.0318 -0.0678,-0.0838 -0.0975,-0.11561 -0.0297,-0.0318 -0.0805,-0.0799 -0.11291,-0.107 -0.0325,-0.0271 -0.0884,-0.069 -0.12438,-0.0931 -0.0359,-0.0242 -0.10692,-0.0641 -0.15768,-0.0886 -0.0508,-0.0245 -0.12592,-0.0555 -0.16707,-0.069 -0.0411,-0.0135 -0.10684,-0.0315 -0.14615,-0.0401 -0.0553,-0.0122 -0.10652,-0.0161 -0.23242,-0.018 z m -18.70281,0.71246 c -0.0486,3e-4 -0.11662,0.005 -0.151,0.0112 -0.0345,0.006 -0.0911,0.0209 -0.12599,0.0337 -0.0349,0.0127 -0.0829,0.034 -0.10669,0.0473 -0.0238,0.0133 -0.0669,0.0432 -0.0958,0.0665 -0.0289,0.0232 -0.0749,0.0704 -0.10222,0.10476 -0.0299,0.0377 -0.0678,0.0994 -0.095,0.15492 -0.0249,0.0508 -0.0558,0.12692 -0.0687,0.16922 -0.0129,0.0423 -0.0288,0.10277 -0.0354,0.1343 -0.007,0.0316 -0.0168,0.0905 -0.0229,0.13077 -0.006,0.0404 -0.0148,0.12699 -0.0195,0.1926 -0.005,0.0655 -0.006,0.1573 -0.004,0.20384 0.003,0.0465 0.01,0.12784 0.0162,0.18076 0.006,0.0529 0.0199,0.13938 0.0305,0.1923 0.0106,0.0528 0.0315,0.14284 0.0464,0.19999 0.015,0.0571 0.051,0.17476 0.0801,0.26153 0.0291,0.0867 0.0751,0.21307 0.10223,0.28076 0.0272,0.0677 0.0731,0.17668 0.10199,0.2423 0.029,0.0655 0.0982,0.21092 0.15385,0.32307 0.0556,0.11207 0.14191,0.27823 0.19169,0.36922 0.0498,0.0909 0.10961,0.19822 0.13299,0.23845 0.0234,0.0402 0.0702,0.11976 0.10415,0.17692 0.0339,0.0571 0.1153,0.18998 0.18076,0.29536 0.0655,0.10531 0.19115,0.29985 0.27914,0.43229 0.088,0.13246 0.2076,0.30937 0.26568,0.39313 0.0582,0.0837 0.16276,0.23184 0.23245,0.32914 0.0697,0.0973 0.20807,0.28592 0.30743,0.41921 0.0994,0.13322 0.24999,0.33229 0.33461,0.44228 0.0847,0.10999 0.22668,0.29175 0.31546,0.40383 0.0888,0.11207 0.23592,0.2956 0.327,0.40767 0.0911,0.11207 0.24191,0.2956 0.33514,0.40767 0.0933,0.11207 0.2283,0.27306 0.3,0.35768 0.0717,0.0846 0.18238,0.21438 0.24599,0.28845 0.0635,0.074 0.19861,0.22976 0.30015,0.34615 0.10146,0.1163 0.25384,0.28937 0.33853,0.38459 0.0846,0.0951 0.21622,0.2423 0.29245,0.32691 0.0761,0.0846 0.25107,0.27668 0.38867,0.42682 0.13761,0.15014 0.32622,0.35438 0.4193,0.45382 0.093,0.0995 0.38899,0.41445 0.65765,0.69996 0.26868,0.28553 0.61489,0.65236 0.76928,0.81528 0.15445,0.16285 0.3619,0.381 0.46107,0.48468 0.0992,0.10369 0.35754,0.37035 0.57404,0.5926 0.21652,0.22229 0.51275,0.51997 0.65812,0.6616 0.14538,0.14153 0.32846,0.31799 0.40669,0.392 0.0783,0.0741 0.21162,0.19861 0.2963,0.27692 0.0847,0.0782 0.25606,0.23421 0.38076,0.34659 0.12469,0.1123 0.34638,0.3099 0.49253,0.43913 0.14623,0.12922 0.55391,0.48643 0.90597,0.79381 l 0.64005,0.55881 0.0364,8e-5 c 0.02,0 0.35138,0.009 0.73637,0.0189 l 0.69996,0.0189 0.0346,0.0368 c 0.0191,0.0203 0.19553,0.21337 0.39214,0.42914 0.19661,0.21576 0.56345,0.61727 0.81519,0.89226 0.25183,0.27499 0.79357,0.86511 1.20404,1.31132 0.41037,0.4462 0.96588,1.04849 1.23442,1.33841 0.26845,0.28991 0.63006,0.67936 0.80351,0.8655 0.17345,0.18614 0.44183,0.47344 0.59628,0.63844 0.15453,0.16499 0.39345,0.41936 0.53098,0.56527 0.1376,0.14591 0.39185,0.41415 0.56496,0.59613 0.17316,0.18191 0.45745,0.4779 0.63167,0.65774 0.1743,0.17977 0.37537,0.38415 0.44674,0.45397 0.0714,0.0699 0.15891,0.1493 0.19453,0.17637 0.0356,0.0271 0.0935,0.0673 0.12868,0.0893 0.0351,0.0221 0.096,0.0558 0.13523,0.0748 0.0392,0.0191 0.10738,0.0472 0.15153,0.0626 0.0442,0.0153 0.12199,0.0366 0.17307,0.0473 0.0662,0.0138 0.12822,0.0206 0.21591,0.0237 0.0915,0.003 0.14777,10e-4 0.21923,-0.008 0.0529,-0.007 0.12907,-0.021 0.16922,-0.0312 0.0402,-0.0102 0.0938,-0.0253 0.11923,-0.0335 0.0254,-0.008 0.0738,-0.0261 0.10768,-0.0395 0.0339,-0.0135 0.0979,-0.0431 0.1423,-0.0659 0.0445,-0.0227 0.11885,-0.0661 0.16538,-0.0963 0.0465,-0.0302 0.11577,-0.0801 0.15384,-0.11069 0.0381,-0.0305 0.0965,-0.0811 0.12977,-0.1123 0.0333,-0.0312 0.095,-0.0966 0.13699,-0.14537 0.0421,-0.0488 0.10738,-0.13492 0.14515,-0.19137 0.0378,-0.0565 0.091,-0.14816 0.11823,-0.20384 0.0272,-0.0557 0.0602,-0.13192 0.0732,-0.16938 0.013,-0.0375 0.0321,-0.10146 0.0422,-0.1423 0.0102,-0.0408 0.0228,-0.10184 0.028,-0.13569 0.005,-0.0338 0.009,-0.10999 0.009,-0.16922 -1.3e-4,-0.0658 -0.005,-0.13615 -0.0131,-0.18076 -0.007,-0.0402 -0.0238,-0.10569 -0.0369,-0.14554 -0.0132,-0.0399 -0.0386,-0.10123 -0.0565,-0.13638 -0.0179,-0.0351 -0.0491,-0.089 -0.0692,-0.11984 -0.0293,-0.0448 -2.18169,-2.20147 -10.84827,-10.86909 l -10.812,-10.81259 -0.0968,-0.0492 c -0.0532,-0.0272 -0.13453,-0.0647 -0.18076,-0.0835 -0.0462,-0.0187 -0.11684,-0.0448 -0.15708,-0.0579 -0.0401,-0.0131 -0.10292,-0.0308 -0.13938,-0.0394 -0.0365,-0.009 -0.10223,-0.0207 -0.14615,-0.027 -0.0439,-0.006 -0.11961,-0.0111 -0.1683,-0.0107 z m 6.1971,14.57736 c -0.005,-10e-4 -1.53053,1.52012 -3.3901,3.38059 -2.08569,2.08666 -3.40022,3.40735 -3.43055,3.4466 -0.0272,0.0352 -0.0696,0.0941 -0.0941,0.13076 -0.0246,0.0367 -0.0683,0.11408 -0.0971,0.17193 -0.0288,0.0578 -0.0666,0.14861 -0.0839,0.20168 -0.0174,0.0531 -0.0384,0.13038 -0.0468,0.17177 -0.008,0.0413 -0.0188,0.10445 -0.0232,0.14029 -0.004,0.0359 -0.008,0.11792 -0.008,0.1823 0,0.0645 0.005,0.15777 0.0118,0.20738 0.006,0.0496 0.0188,0.1213 0.0272,0.1593 0.008,0.038 0.0293,0.11185 0.0463,0.16423 0.017,0.0523 0.0475,0.13231 0.0677,0.17769 0.0202,0.0454 0.0535,0.11185 0.0738,0.14784 0.0203,0.0359 0.0562,0.0947 0.0798,0.13068 0.0236,0.0359 0.0695,0.0982 0.10192,0.13846 0.0324,0.0401 0.088,0.10269 0.12361,0.13891 0.0356,0.0362 0.0967,0.0925 0.13576,0.125 0.0391,0.0325 0.10153,0.0796 0.13876,0.10469 0.0373,0.0251 0.0964,0.0614 0.13138,0.0808 0.0349,0.0193 0.0914,0.0477 0.12546,0.0631 0.034,0.0154 0.0968,0.0398 0.13953,0.0544 0.0427,0.0145 0.106,0.0331 0.14068,0.0412 0.0347,0.008 0.10323,0.02 0.15231,0.0265 0.0491,0.006 0.13492,0.0116 0.19076,0.0115 0.0559,-7e-5 0.13838,-0.005 0.18338,-0.0111 0.045,-0.006 0.11246,-0.0181 0.14999,-0.027 0.0375,-0.009 0.089,-0.0226 0.11446,-0.0305 0.0255,-0.008 0.0783,-0.0267 0.11746,-0.0418 0.0391,-0.0152 0.10838,-0.0465 0.15392,-0.0698 0.0455,-0.0233 0.12423,-0.0695 0.17484,-0.10276 0.0507,-0.0332 0.12846,-0.089 0.17284,-0.12415 0.0577,-0.0455 1.04364,-1.02643 3.45552,-3.43769 1.85619,-1.85577 3.37405,-3.37612 3.37286,-3.3788 -0.001,-0.003 -0.54136,-0.53737 -1.20065,-1.18843 -0.65929,-0.65105 -1.20273,-1.18464 -1.20763,-1.1858 z"
         stroke="null" />
    </g>
  </g>
</svg>
