<?xml version="1.0" encoding="UTF-8" standalone="no"?>
<svg
   xmlns:dc="http://purl.org/dc/elements/1.1/"
   xmlns:cc="http://creativecommons.org/ns#"
   xmlns:rdf="http://www.w3.org/1999/02/22-rdf-syntax-ns#"
   xmlns:svg="http://www.w3.org/2000/svg"
   xmlns="http://www.w3.org/2000/svg"
   id="svg20"
   version="1.1"
   height="36"
   width="161">
  <metadata
     id="metadata26">
    <rdf:RDF>
      <cc:Work
         rdf:about="">
        <dc:format>image/svg+xml</dc:format>
        <dc:type
           rdf:resource="http://purl.org/dc/dcmitype/StillImage" />
      </cc:Work>
    </rdf:RDF>
  </metadata>
  <defs
     id="defs24" />
  <g
     id="g5">
    <title
       id="title2">background</title>
    <path
       id="canvas_background"
       d="M -1,-1 H 162 V 37 H -1 Z"
       style="fill:none" />
  </g>
  <g
     id="g18">
    <title
       id="title7">Layer 1</title>
    <g
       id="svg_1"
       transform="matrix(0.21603037,0,0,0.21603037,-27.609152,-56.534766)"
       stroke="null">
      <path
         style="stroke-width:0;stroke-miterlimit:2"
         id="path73222"
         d="m 156.17,402.68 q -2.2118,-1.6589 -2.5805,-2.9491 -0.36864,-2.7648 4.9766,-19.722 5.5296,-17.142 7.7414,-21.565 2.3962,-4.608 3.5021,-8.663 1.1059,-4.055 1.4746,-4.7923 -0.36864,-2.0275 -0.18432,-2.5805 0.18432,-0.73728 1.6589,-2.3962 2.5805,-2.2118 5.5296,-8.663 l 9.216,-26.358 q 1.6589,-5.8982 0.9216,-5.8982 -0.18432,0 -5.5296,0.73728 -5.161,0.55296 -5.3453,0.55296 -4.7923,0.73728 -4.7923,-2.5805 0.9216,-6.4512 6.6355,-7.0042 14.193,-3.3178 15.667,-2.9491 2.3962,-1.6589 2.3962,-2.5805 0,-1.8432 2.7648,-2.0275 2.7648,-0.18432 4.055,1.6589 1.2902,2.2118 16.036,-0.9216 13.271,-1.1059 16.404,-0.18432 1.6589,-0.36864 3.8707,-0.55296 4.4237,-0.18432 5.161,-0.55296 7.5571,1.2902 8.1101,2.0275 1.1059,1.1059 0.73728,2.2118 l 1.2902,0.9216 q 2.7648,1.4746 1.8432,4.2394 -0.18432,1.6589 -1.8432,2.0275 -1.4746,0.18432 -8.2944,0 -13.271,-1.8432 -33.362,0.9216 -9.4003,0.73728 -11.244,2.9491 -3.3178,3.8707 -9.9533,20.828 -6.4512,16.957 -6.8198,17.51 6.2669,1.8432 34.284,-0.73728 8.4787,-1.6589 9.769,-0.9216 1.4746,0.73728 2.2118,3.6864 0.9216,2.7648 0.18432,4.2394 -1.6589,3.8707 -33.362,4.4237 -11.428,0.18432 -15.852,-0.36864 -1.6589,1.2902 -1.6589,3.3178 -3.3178,5.8982 -9.769,22.856 -6.4512,16.957 -6.4512,20.275 -1.4746,3.6864 -2.2118,7.3728 -0.55296,3.5021 -1.1059,3.8707 -0.18432,0.55296 -2.2118,0.55296 -2.02748,0 -3.8707,-2.2118 z"
         stroke-miterlimit="2"
         stroke="null" />
      <path
         style="stroke-width:0;stroke-miterlimit:2"
         id="path73224"
         d="m 287.58,357.89 q 1.1059,-2.9491 0.9216,-7.9258 0,-5.161 -1.4746,-5.8982 -5.161,-2.9491 -12.165,2.7648 -9.216,7.9258 -18.248,28.017 -3.8707,9.216 0.55296,12.902 5.5296,4.608 18.248,-9.216 7.9258,-9.0317 12.165,-20.644 z m -35.574,-1.2902 q 12.349,-20.46 28.754,-24.33 3.8707,-1.1059 5.5296,-0.9216 1.8432,0.18432 4.4237,2.9491 4.2394,1.8432 6.0826,4.4237 2.0275,2.5805 2.5805,7.5571 1.4746,14.377 -9.5846,30.228 -4.2394,6.0826 -7.9258,9.4003 -3.6864,3.1334 -9.769,6.8198 -7.1885,4.7923 -14.377,5.3453 -3.1334,0 -7.1885,-3.5021 -7.0042,-7.1885 -5.8982,-13.64 l 0.36864,-4.2394 q -0.9216,-0.9216 -0.55296,-1.4746 0.55296,-0.55296 0.73728,-0.73728 1.1059,0 0.73728,-1.6589 -0.36864,-1.8432 1.4746,-6.8198 1.8432,-5.161 4.608,-9.4003 z"
         stroke-miterlimit="2"
         stroke="null" />
      <path
         style="stroke-width:0;stroke-miterlimit:2"
         id="path73226"
         d="m 328.9,394.76 q -1.8432,2.5805 -3.3178,2.5805 -1.4746,0 -4.4237,-2.9491 -1.8432,-1.4746 -2.3962,-2.7648 -1.1059,-2.5805 3.6864,-23.04 0.55296,-4.608 6.4512,-19.354 5.89824,-14.746 9.5846,-20.091 3.6864,-2.7648 7.1885,0.73728 1.8432,1.4746 0.73728,4.9766 -1.4746,4.7923 -6.0826,14.746 -4.4237,9.769 -3.8707,9.769 0.55296,0 1.6589,-0.73728 2.0275,-3.5021 9.769,-9.5846 7.9258,-6.0826 9.9533,-7.0042 2.0275,-1.1059 4.2394,-2.0275 2.3962,-0.9216 2.7648,-1.1059 4.055,-2.0275 8.4787,-1.4746 4.608,0.55296 5.7139,3.3178 0,1.8432 2.2118,2.9491 l 0.9216,1.1059 q 0,1.6589 -4.7923,2.0275 -4.7923,0.18432 -10.691,2.7648 -0.73728,0.55296 -3.1334,1.8432 -2.2118,1.1059 -3.1334,1.6589 -0.73728,0.55296 -2.7648,1.6589 -2.02752,1.10594 -3.1334,1.8432 -0.9216,0.73728 -2.5805,1.8432 -1.6589,1.10592 -2.9491,2.0275 -1.1059,0.9216 -2.5805,2.0275 -5.7139,4.7923 -10.691,13.271 -1.2902,1.2902 -2.7648,6.8198 -1.2902,5.3453 -1.2902,6.6355 -0.73728,2.9491 -2.7648,5.5296 z"
         stroke-miterlimit="2"
         stroke="null" />
      <path
         style="stroke-width:0;stroke-miterlimit:2"
         id="path73230"
         d="m 562.81,286.56 q 3.3178,-5.5296 7.9258,-5.5296 4.7923,0 6.6355,5.5296 4.608,10.691 3.6864,46.449 -0.73728,23.04 2.0275,33.546 1.4746,8.4787 4.055,18.432 2.5805,9.769 4.055,9.769 5.8982,0 20.46,-58.429 3.1334,-10.506 4.7923,-24.33 5.8982,-22.303 5.8982,-24.699 v -4.055 q 0.73728,0 1.4746,-2.3962 0.9216,-2.3962 0.9216,-6.0826 0,-3.6864 2.5805,-6.2669 0.73728,-2.0275 4.7923,-0.9216 4.2394,0.9216 5.161,3.6864 0.55296,3.8707 -5.161,28.201 0,2.2118 -2.3962,12.349 -2.2118,9.9533 -2.9491,14.193 -1.8432,11.981 -3.3178,11.612 -7.5571,32.44 -19.354,59.351 -9.4003,21.565 -20.828,6.8198 -6.0826,-7.9258 -8.8474,-19.907 -0.9216,-4.4237 -3.1334,-16.404 -3.6864,-9.5846 -3.1334,-22.856 0.18432,-4.608 0.73728,-12.902 0.73728,-8.2944 0.9216,-12.534 -0.18432,-13.087 -1.4746,-13.087 -1.2902,-0.18432 -4.608,9.216 -3.3178,9.40032 -6.4512,16.957 -7.9258,18.616 -9.769,22.487 -1.8432,3.8707 -3.5021,10.691 -12.165,32.44 -14.561,42.025 -1.4746,3.6864 -2.5805,5.5296 -2.5805,4.055 -7.0042,-0.73728 -2.5805,-2.7648 -2.7648,-4.9766 0,-2.0275 1.4746,-7.0042 1.4746,-5.161 4.9766,-13.455 3.5021,-8.4787 4.9766,-16.036 6.2669,-14.561 8.1101,-20.828 2.0275,-6.4512 3.5021,-9.4003 1.4746,-3.1334 4.055,-8.2944 2.5805,-5.161 4.2394,-9.4003 1.8432,-4.4237 3.8707,-10.875 2.2118,-6.6355 3.3178,-9.9533 2.9491,-9.4003 7.1885,-15.483 z"
         stroke-miterlimit="2"
         stroke="null" />
      <path
         style="stroke-width:0;stroke-miterlimit:2"
         id="path73232"
         d="m 672.63,355.31 q 3.1334,-1.2902 6.2669,-4.608 3.3178,-3.3178 3.3178,-5.7139 0,-2.5805 -2.5805,-4.055 -2.5805,-1.6589 -6.0826,-0.73728 -3.5021,0.9216 -7.1885,4.2394 -3.6864,3.3178 -6.0826,6.6355 -2.3962,3.1334 -1.8432,3.6864 0.73728,1.4746 5.8982,1.6589 5.161,0.18432 8.2944,-1.1059 z m -0.36864,29.86 q 0.55296,-0.36864 0.55296,-0.36864 0.18432,0 0.36864,-0.18432 0.36864,-0.18432 0.36864,-0.36864 1.2902,-1.1059 3.1334,-2.9491 2.0275,-2.0275 2.9491,-2.0275 0.9216,0 1.8432,0.9216 1.1059,0.9216 1.4746,1.1059 2.9491,0 -0.9216,4.7923 -3.6864,4.7923 -9.216,8.2944 -5.8982,5.161 -14.008,3.8707 -7.9258,-1.4746 -12.718,-8.1101 -5.7139,-7.1885 -4.2394,-23.04 0.73728,-10.322 8.8474,-21.012 8.1101,-10.875 17.142,-14.377 2.5805,-1.6589 4.7923,-1.6589 2.2118,-0.18432 7.3728,0.55296 5.3453,0.73728 8.2944,4.4237 4.608,4.608 4.608,10.691 -0.73728,4.4237 -5.7139,10.138 -4.9766,5.7139 -11.981,9.216 -10.322,3.1334 -16.773,-1.2902 -3.3178,-1.2902 -4.608,0.55296 -1.1059,1.8432 -2.0275,9.216 -1.4746,12.718 6.0826,14.008 0.73728,0.18432 2.2118,0.55296 1.4746,0.18432 1.8432,0.36864 0.55296,0 1.6589,0.18432 1.1059,0 1.8432,-0.18432 1.4746,-0.36864 2.7648,-1.1059 1.4746,-0.9216 2.2118,-1.2902 1.4746,-0.73728 1.8432,-0.9216 z"
         stroke-miterlimit="2"
         stroke="null" />
      <path
         style="stroke-width:0;stroke-miterlimit:2"
         id="path73234"
         d="m 760.53,350.34 q -2.2118,4.4237 -4.055,12.349 -1.8432,7.7414 -1.8432,11.244 0,3.3178 0.55296,4.4237 0.55296,1.1059 1.1059,1.2902 0.55296,0.18432 1.8432,0.18432 8.663,0 21.197,-19.169 5.3453,-8.2944 5.3453,-9.5846 0,-1.2902 1.6589,-3.3178 2.0275,-2.9491 4.2394,-4.055 2.2118,-1.1059 4.9766,1.6589 1.1059,1.1059 1.1059,5.8982 -0.9216,3.3178 -3.1334,8.663 -2.2118,5.161 -3.5021,6.6355 -3.5021,2.7648 -5.8982,6.8198 -5.161,6.0826 -7.3728,7.9258 -2.2118,1.8432 -2.7648,2.3962 -5.7139,5.7139 -12.349,7.3728 -6.4512,1.4746 -10.138,-1.4746 -5.7139,-2.9491 -5.7139,-9.9533 l -0.9216,-3.8707 q -2.7648,0 -4.9766,3.8707 -2.0275,3.6864 -8.2944,8.2944 -6.2669,4.608 -9.5846,4.608 -4.2394,0 -7.0042,-7.1885 -2.7648,-7.3728 -2.0275,-16.404 0,-6.0826 1.1059,-11.796 1.2902,-5.7139 1.4746,-6.4512 1.8432,-13.271 4.608,-16.036 1.2902,-1.6589 3.8707,-1.4746 5.5296,0.36864 4.9766,9.9533 -0.36864,5.8982 -2.0275,8.1101 -0.36864,0.9216 -1.4746,9.4003 -0.9216,8.2944 -1.2902,10.322 -0.9216,6.0826 2.2118,6.4512 4.055,0.36864 11.796,-10.875 7.9258,-11.244 11.059,-20.091 3.1334,-9.0317 4.2394,-9.769 2.9491,-1.8432 7.0042,0.9216 4.2394,4.2394 0,12.718 z"
         stroke-miterlimit="2"
         stroke="null" />
      <path
         style="stroke-width:0;stroke-miterlimit:2"
         id="path73236"
         d="m 837.99,386.09 -3.3178,-1.2902 q 0,-1.6589 -5.3453,-4.055 -10.138,-8.2944 -9.216,-9.5846 v -0.9216 q -1.2902,0 -2.9491,-3.5021 -1.4746,-3.6864 -1.4746,-6.8198 0,-3.3178 2.7648,-9.216 2.9491,-5.8982 7.3728,-10.138 4.4237,-4.2394 12.718,-9.5846 16.957,-11.059 24.146,-6.8198 5.5296,3.3178 7.7414,9.216 0,11.612 -3.3178,11.612 -0.9216,0 -0.9216,1.4746 0,1.4746 -2.7648,3.8707 -8.1101,5.8982 -9.216,0.9216 -0.9216,-1.8432 -1.6589,-1.8432 -1.1059,-0.55296 -1.1059,-2.3962 l 1.1059,-2.0275 q 1.1059,0 3.6864,-4.2394 2.5805,-4.4237 2.5805,-5.7139 0,-1.2902 -0.36864,-1.4746 -0.18432,-0.18432 -1.6589,-0.18432 -14.377,6.4512 -17.879,9.769 -0.73728,1.2902 -0.9216,1.6589 -0.18432,0.18432 -0.9216,0.18432 0,-1.4746 -5.8982,6.8198 -1.2902,1.8432 -3.8707,5.7139 -1.2902,1.2902 -1.4746,3.6864 0,2.3962 -0.18432,2.7648 0,0.36864 0,0.9216 0.18432,0.36864 0.18432,0.73728 0.18432,0.18432 0.55296,0.73728 0.55296,0.36864 0.9216,0.73728 0.36864,0.18432 1.2902,0.9216 0.9216,0.73728 1.6589,1.2902 16.773,12.534 17.879,16.773 3.1334,5.7139 2.0275,8.4787 -1.1059,2.7648 -5.161,4.608 -3.8707,1.8432 -11.428,2.3962 -7.5571,0.73728 -11.428,0 -3.3178,-1.2902 -6.4512,-3.6864 -3.1334,-2.5805 -4.2394,-4.4237 0,-2.5805 1.1059,-2.7648 1.2902,-0.18432 11.428,0.73728 4.055,0 9.216,-0.9216 5.161,-1.1059 5.7139,-2.3962 0.55296,-0.36864 -0.9216,-2.0275 z"
         stroke-miterlimit="2"
         stroke="null" />
      <path
         style="fill:#25c8c1;stroke-width:0.46526"
         id="icon"
         d="m 447.93,327.7 c -0.29878,-0.005 -0.57818,-0.003 -0.62085,0.004 -0.0427,0.007 -0.19401,0.0354 -0.33628,0.0639 -0.14228,0.0282 -0.32879,0.0729 -0.41441,0.0991 -0.0856,0.0261 -0.26593,0.0903 -0.40096,0.14227 -0.13478,0.052 -0.34405,0.14771 -0.46512,0.21264 -0.1208,0.0652 -0.31869,0.18237 -0.43976,0.26075 -0.1208,0.0784 -0.32465,0.22428 -0.45269,0.32439 -0.14719,0.11511 -3.0398,2.987 -7.8591,7.8028 -4.1945,4.1912 -7.7652,7.7721 -7.9345,7.9578 -0.16943,0.18573 -0.41958,0.47572 -0.55565,0.6441 -0.13633,0.16841 -0.34586,0.44313 -0.46615,0.61051 -0.12003,0.16737 -0.31068,0.4496 -0.42346,0.62731 -0.11279,0.17771 -0.28249,0.46123 -0.37716,0.62991 -0.0947,0.16866 -0.25429,0.47522 -0.35466,0.68165 -0.10011,0.20617 -0.24445,0.52798 -0.32077,0.7145 -0.0761,0.18677 -0.17978,0.45425 -0.23048,0.59469 -0.051,0.14021 -0.14383,0.42968 -0.20695,0.64336 -0.0629,0.21368 -0.14874,0.53989 -0.19065,0.72483 -0.0416,0.18496 -0.0996,0.47596 -0.12856,0.64671 -0.0287,0.17099 -0.0727,0.48531 -0.0973,0.69844 -0.0318,0.27498 -0.0453,0.59548 -0.0461,1.0994 -4.7e-4,0.39164 0.0134,0.84514 0.031,1.0089 0.0174,0.16349 0.0608,0.47363 0.0965,0.68863 0.0357,0.21522 0.0999,0.53523 0.14279,0.71138 0.0427,0.17616 0.11951,0.45399 0.17021,0.61721 0.051,0.16349 0.14202,0.42527 0.20281,0.58204 0.0608,0.15676 0.17099,0.41907 0.24472,0.58255 0.074,0.16349 0.21108,0.43717 0.30473,0.6079 0.0936,0.17074 0.25739,0.4483 0.36371,0.61698 0.10657,0.16866 0.30447,0.45399 0.43976,0.63378 0.13529,0.18004 0.33422,0.432 0.44209,0.56003 0.10787,0.12805 0.52281,0.56445 0.92195,0.97006 0.39941,0.40562 0.79392,0.82286 0.8772,0.92763 0.0833,0.10477 0.3813,0.43071 0.66225,0.72432 0.28119,0.2936 0.99258,1.0117 1.5811,1.5953 0.58851,0.58385 1.1687,1.1439 1.2898,1.2445 0.12107,0.10089 0.33448,0.27239 0.47471,0.38156 0.1402,0.10916 0.41958,0.30757 0.62084,0.44079 0.20125,0.13348 0.48117,0.30835 0.62214,0.38906 0.14072,0.0805 0.37018,0.20384 0.50988,0.27369 0.13942,0.0701 0.41414,0.19608 0.61051,0.27989 0.19608,0.0838 0.55514,0.21678 0.7975,0.29568 0.24213,0.0786 0.62628,0.18444 0.85365,0.23488 0.22713,0.0504 0.57585,0.11512 0.77503,0.14383 0.19918,0.0287 0.5872,0.0652 0.86245,0.081 0.36888,0.0215 0.62577,0.0215 0.97964,0 0.26386,-0.016 0.62085,-0.0473 0.79336,-0.0693 0.17228,-0.022 0.48243,-0.0735 0.68886,-0.11409 0.20617,-0.0409 0.53161,-0.1164 0.72278,-0.16814 0.19117,-0.052 0.50546,-0.14745 0.69845,-0.21238 0.19272,-0.0649 0.52695,-0.19143 0.74241,-0.28093 0.21548,-0.0895 0.56627,-0.25015 0.7794,-0.35699 0.21315,-0.10683 0.54324,-0.28352 0.73339,-0.39268 0.19013,-0.10942 0.52048,-0.31533 0.73389,-0.45761 0.21342,-0.14227 0.49876,-0.34172 0.63378,-0.44286 0.13529,-0.10115 0.37975,-0.29361 0.54323,-0.42761 0.16375,-0.134 0.44313,-0.37457 0.62085,-0.53495 0.17797,-0.16039 3.8401,-3.8109 8.1383,-8.1122 6.1219,-6.126 7.8545,-7.8745 7.9992,-8.0694 0.1014,-0.13684 0.23877,-0.34043 0.30551,-0.45269 0.0665,-0.11201 0.16478,-0.29775 0.21807,-0.4126 0.0536,-0.11486 0.13348,-0.31146 0.17771,-0.43718 0.0445,-0.12546 0.11149,-0.37509 0.14952,-0.55435 0.0605,-0.28714 0.0688,-0.38441 0.0688,-0.81746 0,-0.43304 -0.008,-0.5303 -0.0688,-0.81746 -0.038,-0.17927 -0.10502,-0.42968 -0.14926,-0.55617 -0.044,-0.12676 -0.1371,-0.35052 -0.20695,-0.49745 -0.0696,-0.14668 -0.20048,-0.37949 -0.29075,-0.51737 -0.0905,-0.13762 -0.23489,-0.33758 -0.32103,-0.44416 -0.0861,-0.10684 -0.25403,-0.2874 -0.37302,-0.40122 -0.119,-0.11408 -0.28637,-0.26101 -0.37173,-0.32646 -0.0854,-0.0654 -0.25739,-0.18547 -0.38259,-0.26696 -0.12495,-0.0815 -0.34612,-0.2041 -0.4915,-0.27265 -0.14512,-0.0686 -0.38725,-0.16556 -0.53756,-0.216 -0.15055,-0.0502 -0.40665,-0.11822 -0.5691,-0.15081 -0.24963,-0.0502 -0.37639,-0.0595 -0.81304,-0.0595 -0.43381,0 -0.56417,0.01 -0.80709,0.0585 -0.15935,0.0321 -0.42527,0.10503 -0.59083,0.1622 -0.16581,0.0572 -0.39553,0.15107 -0.51066,0.20902 -0.11512,0.0579 -0.30292,0.16323 -0.417,0.2341 -0.11408,0.0706 -0.3068,0.20514 -0.42838,0.29852 -0.14072,0.10813 -2.9084,2.8543 -7.6321,7.573 -5.6347,5.6287 -7.4702,7.4474 -7.6572,7.5865 -0.13504,0.10114 -0.35052,0.24937 -0.47857,0.32982 -0.12805,0.0802 -0.34249,0.19867 -0.47675,0.26282 -0.13425,0.0642 -0.36138,0.15573 -0.50443,0.20333 -0.14331,0.0479 -0.38259,0.11304 -0.53212,0.14486 -0.22427,0.0479 -0.35258,0.058 -0.73724,0.058 -0.38286,0 -0.51272,-0.0101 -0.73078,-0.0569 -0.1459,-0.0316 -0.36268,-0.0924 -0.48169,-0.13555 -0.11925,-0.043 -0.30835,-0.1252 -0.42036,-0.18238 -0.11201,-0.0574 -0.30266,-0.16917 -0.42372,-0.24885 -0.17047,-0.11201 -0.40613,-0.3306 -1.05,-0.97448 -0.67206,-0.67207 -0.8604,-0.87617 -0.98974,-1.0715 -0.0879,-0.13296 -0.20539,-0.33655 -0.26127,-0.4527 -0.0561,-0.11614 -0.13141,-0.30059 -0.16788,-0.40949 -0.0362,-0.10917 -0.0846,-0.28378 -0.10736,-0.38803 -0.0228,-0.1045 -0.0476,-0.3487 -0.0554,-0.54295 -0.009,-0.21393 -0.001,-0.45348 0.0179,-0.60791 0.0176,-0.14021 0.0647,-0.38518 0.10502,-0.54454 0.0401,-0.15935 0.12727,-0.42709 0.19401,-0.59497 0.0665,-0.16788 0.18367,-0.42295 0.26024,-0.56678 0.0763,-0.14357 0.21057,-0.37069 0.29826,-0.50443 0.0874,-0.13348 0.23488,-0.34172 0.32775,-0.46278 0.10787,-0.14099 2.7726,-2.8269 7.4172,-7.4758 l 7.2487,-7.2562 0.24316,-0.32775 c 0.13348,-0.18004 0.31275,-0.45373 0.39811,-0.60762 0.0854,-0.15418 0.2041,-0.40252 0.26386,-0.55175 0.0598,-0.14952 0.13684,-0.37095 0.17177,-0.49178 0.0347,-0.12107 0.0841,-0.33629 0.10942,-0.47857 0.0328,-0.1834 0.0463,-0.39035 0.0463,-0.71138 2.6e-4,-0.31378 -0.0134,-0.52797 -0.044,-0.69844 -0.0243,-0.13529 -0.0737,-0.35052 -0.11021,-0.47857 -0.0362,-0.12804 -0.1177,-0.3562 -0.18133,-0.50727 -0.0634,-0.15107 -0.17798,-0.38026 -0.25429,-0.50959 -0.0763,-0.12934 -0.20488,-0.32258 -0.28533,-0.42968 -0.0805,-0.10684 -0.22815,-0.28196 -0.32801,-0.3888 -0.0999,-0.10684 -0.27084,-0.26877 -0.37975,-0.35983 -0.10914,-0.0911 -0.2972,-0.23204 -0.41827,-0.31327 -0.1208,-0.0815 -0.35957,-0.21548 -0.5303,-0.298 -0.17073,-0.0825 -0.42346,-0.18677 -0.56184,-0.23204 -0.13814,-0.0453 -0.35932,-0.1058 -0.4915,-0.13478 -0.18611,-0.041 -0.35825,-0.0542 -0.78164,-0.0604 z m -62.898,2.396 c -0.16349,10e-4 -0.39217,0.0181 -0.50779,0.0375 -0.11589,0.0194 -0.30654,0.0704 -0.42372,0.1133 -0.11744,0.0427 -0.27886,0.11434 -0.35879,0.15909 -0.0799,0.0448 -0.22506,0.14538 -0.32233,0.22351 -0.0973,0.0781 -0.25195,0.23669 -0.34378,0.35232 -0.10063,0.12676 -0.22791,0.33422 -0.31948,0.521 -0.0836,0.17073 -0.1878,0.42683 -0.231,0.5691 -0.0435,0.14228 -0.097,0.3456 -0.119,0.45166 -0.022,0.10633 -0.0566,0.30422 -0.0771,0.43977 -0.0202,0.13581 -0.0499,0.42708 -0.0657,0.64773 -0.0158,0.2204 -0.0215,0.529 -0.0124,0.68551 0.009,0.1565 0.0336,0.42993 0.0546,0.60791 0.021,0.17771 0.067,0.46874 0.10269,0.64671 0.0357,0.17771 0.1058,0.48037 0.15599,0.67257 0.0504,0.19194 0.17151,0.58772 0.26929,0.87953 0.0978,0.29153 0.25248,0.71654 0.34379,0.94419 0.0913,0.22764 0.24575,0.59418 0.34301,0.81485 0.0975,0.2204 0.33009,0.70934 0.51737,1.0865 0.18703,0.37691 0.47726,0.93568 0.64466,1.2417 0.16737,0.30576 0.36863,0.66662 0.44727,0.80191 0.0786,0.13504 0.23617,0.40277 0.35025,0.59498 0.11408,0.19194 0.38777,0.63893 0.60791,0.99332 0.22039,0.35414 0.64284,1.0084 0.93875,1.4538 0.29593,0.44546 0.69816,1.0404 0.89348,1.3221 0.19557,0.28145 0.54738,0.77968 0.78173,1.1069 0.23437,0.32724 0.69974,0.96155 1.0339,1.4098 0.33422,0.44804 0.84072,1.1175 1.1253,1.4874 0.28482,0.36992 0.76233,0.98118 1.0609,1.3581 0.29852,0.3769 0.79341,0.99411 1.0997,1.371 0.30628,0.3769 0.81355,0.99412 1.1271,1.371 0.31378,0.3769 0.76777,0.91833 1.0089,1.2029 0.24109,0.28455 0.61335,0.72096 0.82728,0.97006 0.21367,0.24886 0.66792,0.7727 1.0094,1.1641 0.34121,0.39113 0.85366,0.97318 1.1385,1.2934 0.28455,0.31999 0.72715,0.81485 0.98351,1.0994 0.2561,0.28455 0.84435,0.93047 1.3071,1.4354 0.46279,0.50494 1.0971,1.1918 1.4101,1.5262 0.31274,0.33448 1.3082,1.3938 2.2117,2.354 0.90358,0.96024 2.0679,2.1939 2.5871,2.7418 0.51942,0.54766 1.2171,1.2813 1.5506,1.63 0.3337,0.34871 1.2024,1.2455 1.9305,1.9929 0.72818,0.74757 1.7244,1.7487 2.2133,2.225 0.48889,0.47596 1.1046,1.0694 1.3677,1.3183 0.26334,0.24912 0.71166,0.66793 0.99645,0.93127 0.28481,0.26308 0.86114,0.78768 1.2805,1.1656 0.41933,0.37767 1.1649,1.0422 1.6564,1.4768 0.49177,0.43459 1.8628,1.6359 3.0468,2.6696 l 2.1525,1.8793 0.12236,2.6e-4 c 0.0673,0 1.1817,0.0287 2.4764,0.0636 l 2.354,0.0636 0.11641,0.12365 c 0.0641,0.0683 0.6576,0.71757 1.3188,1.4432 0.66118,0.72561 1.8949,2.0759 2.7415,3.0007 0.84691,0.92479 2.6688,2.9094 4.0492,4.41 1.3801,1.5006 3.2483,3.5261 4.1514,4.5011 0.90279,0.975 2.1189,2.2847 2.7022,2.9107 0.58334,0.62601 1.4859,1.5922 2.0053,2.1471 0.51969,0.55487 1.3232,1.4103 1.7857,1.901 0.46278,0.49071 1.3178,1.3928 1.9,2.0048 0.58232,0.61176 1.5384,1.6072 2.1243,2.212 0.58618,0.60456 1.2624,1.2919 1.5024,1.5267 0.24006,0.23515 0.53444,0.50211 0.6542,0.59316 0.11977,0.0911 0.31456,0.22635 0.43278,0.30033 0.11796,0.0743 0.32284,0.18755 0.45477,0.2517 0.13192,0.0641 0.36112,0.15883 0.50959,0.21057 0.14849,0.0515 0.41027,0.12313 0.58204,0.15909 0.22247,0.0463 0.43123,0.0691 0.72613,0.0797 0.30757,0.0108 0.49694,0.004 0.73725,-0.0279 0.17797,-0.0235 0.43407,-0.0706 0.5691,-0.10503 0.13529,-0.0342 0.3156,-0.0851 0.40096,-0.11278 0.0854,-0.0277 0.24834,-0.0877 0.36216,-0.13297 0.11382,-0.0455 0.3293,-0.14511 0.47856,-0.22169 0.14952,-0.0763 0.39967,-0.2222 0.55617,-0.32387 0.1565,-0.10166 0.38932,-0.26929 0.51737,-0.37225 0.12805,-0.10269 0.32439,-0.27291 0.4364,-0.37767 0.11201,-0.10477 0.31947,-0.32491 0.46071,-0.4889 0.1415,-0.16426 0.36112,-0.45373 0.48815,-0.64359 0.12702,-0.18987 0.30603,-0.49824 0.3976,-0.68551 0.0916,-0.18729 0.20255,-0.44364 0.24626,-0.56961 0.0437,-0.12598 0.10788,-0.34121 0.14202,-0.47857 0.0344,-0.1371 0.0768,-0.34249 0.0942,-0.45632 0.0174,-0.11382 0.0313,-0.36991 0.0308,-0.5691 -4.6e-4,-0.22117 -0.0176,-0.45787 -0.0442,-0.6079 -0.0241,-0.1353 -0.0799,-0.35543 -0.12417,-0.48946 -0.0443,-0.13426 -0.12986,-0.34043 -0.19013,-0.45864 -0.0603,-0.11796 -0.16504,-0.2993 -0.23282,-0.40303 -0.0986,-0.15084 -7.3371,-7.4036 -36.483,-36.553 l -36.361,-36.363 -0.32568,-0.16563 c -0.179,-0.0913 -0.45243,-0.21756 -0.6079,-0.28067 -0.15547,-0.0629 -0.39294,-0.15056 -0.52826,-0.19479 -0.13503,-0.044 -0.34612,-0.10374 -0.46874,-0.13245 -0.12262,-0.029 -0.34379,-0.0698 -0.4915,-0.0908 -0.14771,-0.0209 -0.40226,-0.0372 -0.56599,-0.0359 z m 20.841,49.024 c -0.0165,-0.004 -5.1472,5.1122 -11.401,11.369 -7.0142,7.0175 -11.435,11.459 -11.537,11.591 -0.0916,0.11848 -0.23411,0.31637 -0.31662,0.43976 -0.0828,0.12339 -0.22972,0.38363 -0.32672,0.57818 -0.097,0.19453 -0.22402,0.49978 -0.28223,0.67825 -0.0585,0.17849 -0.12908,0.43847 -0.15728,0.57767 -0.0282,0.13891 -0.0634,0.35129 -0.0781,0.47182 -0.015,0.12054 -0.0272,0.39656 -0.0272,0.61307 0,0.21677 0.0179,0.53058 0.0398,0.69742 0.0217,0.16685 0.0631,0.40794 0.0916,0.53574 0.0284,0.12779 0.0986,0.37613 0.15572,0.55231 0.0572,0.17591 0.15987,0.44494 0.22764,0.59758 0.068,0.15262 0.17979,0.37613 0.24808,0.49717 0.0683,0.12081 0.1891,0.31844 0.26851,0.4395 0.0794,0.12081 0.2336,0.33034 0.34276,0.46563 0.10891,0.13504 0.29593,0.34535 0.4157,0.46717 0.11977,0.12184 0.32517,0.31119 0.45658,0.42036 0.13141,0.10942 0.34146,0.26774 0.46665,0.35207 0.12546,0.0843 0.32413,0.20643 0.44183,0.27161 0.11745,0.0649 0.30732,0.16039 0.42192,0.21212 0.11434,0.0517 0.32568,0.134 0.46926,0.18289 0.14357,0.0489 0.35647,0.11124 0.47312,0.1384 0.11667,0.0274 0.34715,0.0673 0.5122,0.089 0.16504,0.0217 0.45373,0.039 0.64155,0.0388 0.1878,-2.6e-4 0.46535,-0.0171 0.6167,-0.0373 0.15133,-0.0199 0.37819,-0.061 0.50443,-0.0908 0.12598,-0.03 0.2993,-0.0761 0.38492,-0.10244 0.0856,-0.0267 0.26334,-0.0898 0.39501,-0.14047 0.13141,-0.051 0.36448,-0.1565 0.51765,-0.23488 0.15314,-0.0784 0.41777,-0.23385 0.58799,-0.3456 0.17047,-0.1115 0.432,-0.2993 0.58125,-0.41752 0.19401,-0.15314 3.5098,-3.4519 11.621,-11.561 6.2424,-6.241 11.347,-11.354 11.343,-11.363 -0.004,-0.009 -1.8206,-1.8072 -4.0378,-3.9967 -2.2172,-2.1895 -4.0448,-3.984 -4.0613,-3.9879 z"
         stroke="null" />
    </g>
  </g>
</svg>
