<?xml version="1.0" encoding="UTF-8" standalone="no"?>
<svg
   xmlns:dc="http://purl.org/dc/elements/1.1/"
   xmlns:cc="http://creativecommons.org/ns#"
   xmlns:rdf="http://www.w3.org/1999/02/22-rdf-syntax-ns#"
   xmlns:svg="http://www.w3.org/2000/svg"
   xmlns="http://www.w3.org/2000/svg"
   id="svg36"
   version="1.1"
   height="140"
   width="428">
  <metadata
     id="metadata42">
    <rdf:RDF>
      <cc:Work
         rdf:about="">
        <dc:format>image/svg+xml</dc:format>
        <dc:type
           rdf:resource="http://purl.org/dc/dcmitype/StillImage" />
      </cc:Work>
    </rdf:RDF>
  </metadata>
  <defs
     id="defs40" />
  <g
     id="g5">
    <title
       id="title2">background</title>
    <path
       id="canvas_background"
       d="M -1,-1 H 429 V 141 H -1 Z"
       style="fill:none" />
  </g>
  <g
     id="g34">
    <title
       id="title7">Layer 1</title>
    <g
       id="logo-group"
       transform="matrix(0.88110334,0,0,0.88110334,-129.71508,-234.07393)"
       stroke="null">
      <path
         style="fill:#25c8c1;stroke-width:0;stroke-miterlimit:2"
         id="path73189"
         d="m 277.58607,392.80121 q 0.63852,-0.75827 0.63852,-1.39677 0,-0.63852 0.31926,-1.31693 0.35917,-0.71832 0.71833,-0.63852 0.91786,0 1.39676,0.59861 0.0399,0.0798 0.15963,0.23945 0.11972,0.15963 0.15963,0.23944 0.0399,0.0399 0.11972,0.19954 0.0798,0.15963 0.11972,0.27935 0.0399,0.11972 0.0798,0.31926 0.0399,0.19954 0,0.43899 0,0.19953 -0.0399,0.51879 0,0.27936 -0.0798,0.79815 -0.0399,0.5188 -0.27935,1.79584 -0.19954,1.27706 -0.19954,1.4766 -1.19722,3.59168 -2.0752,9.13858 -0.87798,5.50723 -0.5188,5.98614 0.23944,0.23944 0.47889,0.0798 0.23945,-0.19954 0.71832,-1.1174 0.47889,-0.91786 1.71601,-2.43433 0.27936,-0.5188 1.35689,-2.27474 4.11046,-6.78442 7.34328,-12.4511 0.35917,-0.5188 1.1174,-1.75596 1.39676,-2.31463 1.95549,-2.7137 0.83804,-0.75827 1.71601,0.15963 0.91786,0.87798 0.99769,2.63387 0.0798,2.67382 -1.5963,7.86146 -0.5587,2.75365 -1.5963,5.82648 -0.0798,0.55871 -0.31926,1.67613 -0.39908,2.15503 -0.31926,2.63387 -0.59861,1.1174 -0.59861,4.31 -0.39908,2.7137 -0.5188,2.79353 -0.5188,-0.15963 -0.5188,0.19954 -0.11972,0.39907 -0.55871,0.11972 -0.43898,-0.27935 -0.63852,-0.5587 -0.43898,-0.99769 -0.27935,-3.31232 1.23711,-7.26325 2.91324,-14.60587 0.87798,-3.11277 1.39676,-5.94625 0,-0.23944 -0.39907,0.31926 -0.39908,0.55871 -0.39908,0.71833 -1.27705,1.79584 -1.5963,2.39445 -0.31926,0.5587 -0.79815,1.47659 -0.43898,0.87798 -0.79815,1.47659 -0.31926,0.55871 -1.27706,2.35458 -0.95781,1.75596 -1.35688,2.43433 -0.39908,0.63852 -1.15735,2.11509 -0.39907,0.9578 -1.43664,2.27474 l -0.99769,1.63618 q 0,0.19954 -0.83803,1.35689 -0.79815,1.15734 -1.87567,2.31462 -1.03757,1.1174 -1.83572,1.35688 -0.79815,0.19954 -1.87567,-0.71832 -0.79815,-0.91786 -0.95781,-2.35457 -0.11972,-1.47659 0.27936,-4.19029 0.27935,-1.35689 0.63852,-3.59168 0.79815,-4.6692 1.03757,-5.18798 0.0798,-0.87798 -0.0399,-0.87798 -0.15963,-0.0399 -0.47889,0.47889 -3.11278,5.18798 -4.1903,7.54268 -2.95318,5.46735 -4.34995,8.10156 -1.39676,2.63387 -1.51647,2.79352 -0.59861,0 -1.51647,-0.99768 -0.15963,-0.5188 -0.0399,-0.87798 0.11972,-0.39908 0.91786,-2.15504 1.2371,-2.43433 1.63618,-2.75365 0.47889,-0.63852 0.5587,-1.39676 0.5188,-0.71832 1.4766,-2.59399 1.51647,-2.35457 2.87335,-5.1481 0.79816,-1.35688 1.51648,-2.59399 0.71832,-1.27706 1.19722,-2.07521 0.47889,-0.79815 0.75827,-1.2371 0.27936,-0.47889 0.59862,-0.95781 0.67844,-0.99769 0.9578,-1.23711 z"
         stroke-miterlimit="2"
         stroke="null" />
      <path
         style="fill:#25c8c1;stroke-width:0;stroke-miterlimit:2"
         id="path73191"
         d="m 306.66976,403.61839 q -0.71832,-1.5963 -1.5963,-1.5963 -0.87798,0 -2.67382,2.11509 -1.79584,2.0752 -3.27243,4.90861 l -0.99769,2.27475 q 0,0.43898 0.99769,-0.0399 1.03757,-0.5188 1.71601,-1.07752 3.43202,-2.95319 4.94856,-5.1481 z m -9.97688,9.93688 q -0.11973,-0.23945 -0.39908,-0.47889 -0.23944,-0.27936 -0.23944,-0.5188 0,-0.27936 -0.19954,-0.5188 -0.67844,-0.67844 2.15503,-5.86642 0.23945,-0.23945 0.59862,-0.83803 0.39907,-0.59862 0.51879,-0.67845 0,-0.15963 0.11973,-0.27935 0.11972,-0.15963 0.27935,-0.15963 v -0.23944 q 0,-0.35917 1.31693,-1.75596 3.51186,-3.67151 5.4274,-2.15504 0.23945,0.31926 3.31232,3.03295 l -0.71833,1.99538 q -0.87797,2.59399 0.5188,4.86873 0.19954,0.43898 0.79815,0.83803 0.59862,0.39908 1.19723,0.47889 0.87798,0.15963 0.87798,0.91786 0,0.75827 -0.71832,0.91786 -2.67382,0.35917 -4.54949,-3.27243 -0.55871,-0.75827 -0.71832,-1.75596 -0.59862,0.83803 -1.27706,1.51648 -5.62693,5.66688 -8.30095,3.95087 z"
         stroke-miterlimit="2"
         stroke="null" />
      <path
         style="fill:#25c8c1;stroke-width:0;stroke-miterlimit:2"
         id="path73193"
         d="m 322.57543,388.61305 q 0.19954,-0.19954 0.5188,-0.19954 0.31926,0 0.75827,0.63852 0.43898,0.59862 0.43898,1.03757 0,1.5963 -2.35457,6.38521 -3.91093,8.42033 -3.59168,8.73978 0.91786,-0.35917 2.51416,-1.47659 0.71832,-0.47889 1.87567,-1.19723 1.67613,-0.95781 1.79584,-1.1174 0.67844,-0.27935 0.99769,-0.19954 0.31926,0.0798 0.71832,0.59862 0.35917,0.5587 0.11972,0.91786 -0.19954,0.31926 -1.03757,0.83803 -0.83803,0.5188 -2.19491,1.35688 -1.35689,0.83803 -2.2348,1.35689 -0.83803,0.51879 -0.91786,0.63852 0.59861,1.19722 1.15735,2.0752 0.87798,1.31694 0.87798,1.51648 0.43898,1.27705 1.31693,1.83572 0.87798,0.51879 2.03526,0.0399 1.19723,-0.5188 1.51647,0.43898 0.15963,0.31926 0.0798,0.47889 -0.0399,0.11972 -0.5188,0.59861 -1.55642,1.55643 -2.95319,0.83804 -0.59861,0.0399 -1.51647,-0.79815 -0.87798,-0.83804 -2.47428,-2.91324 0,-0.27936 -1.07752,-2.11509 0,-0.11972 -0.43898,-0.83803 -0.31926,0 -0.43898,-0.0399 -0.11973,-0.0399 -0.31926,0.15963 -0.35917,0.35917 -0.5188,0.63852 -0.15963,0.27935 -0.23945,0.39907 -1.35688,3.5518 -1.07751,4.46966 0,0.63852 -0.19954,0.87798 -0.19954,0.19954 -0.83803,0.19954 -0.47889,-0.15963 -0.99769,-0.91786 -0.5188,-0.79815 -0.5188,-1.43664 0.11972,-0.23945 0.27935,-0.83804 0.19954,-0.59861 0.47889,-1.51647 0.31926,-0.95781 0.55871,-1.71601 0.31926,-0.5188 0.83803,-2.11509 0.39908,-0.75827 1.35688,-3.07289 0.95781,-2.31463 1.23711,-2.95319 0.31926,-0.67844 2.39445,-5.62693 2.07521,-4.94857 2.15504,-5.34764 0,-0.63852 0.43898,-0.63852 z"
         stroke-miterlimit="2"
         stroke="null" />
      <path
         style="fill:#25c8c1;stroke-width:0;stroke-miterlimit:2"
         id="path73195"
         d="m 335.82015,405.13227 q 0.67844,-0.27936 1.35688,-0.99769 0.71832,-0.71832 0.71832,-1.23711 0,-0.55871 -0.5587,-0.87798 -0.55871,-0.35917 -1.31694,-0.15963 -0.75827,0.19954 -1.55642,0.91786 -0.79815,0.71832 -1.31694,1.43665 -0.5188,0.67844 -0.39907,0.79815 0.15963,0.31926 1.27705,0.35917 1.1174,0.0399 1.79584,-0.23945 z m -0.0798,6.46503 q 0.11972,-0.0798 0.11972,-0.0798 0.0399,0 0.0798,-0.0399 0.0798,-0.0399 0.0798,-0.0798 0.27936,-0.23944 0.67844,-0.63852 0.43899,-0.43898 0.63853,-0.43898 0.19953,0 0.39907,0.19954 0.23945,0.19953 0.31926,0.23944 0.63852,0 -0.19954,1.03757 -0.79815,1.03757 -1.99537,1.79584 -1.27706,1.1174 -3.03295,0.83803 -1.71601,-0.31926 -2.75365,-1.75596 -1.23711,-1.55642 -0.91786,-4.98844 0.15963,-2.2348 1.91555,-4.54949 1.75596,-2.35457 3.71139,-3.11277 0.5587,-0.35917 1.03757,-0.35917 0.47889,-0.0399 1.5963,0.11972 1.15735,0.15963 1.79584,0.95781 0.99769,0.99769 0.99769,2.31462 -0.15963,0.95781 -1.23711,2.19492 -1.07752,1.23711 -2.59399,1.99538 -2.2348,0.67844 -3.63156,-0.27936 -0.71832,-0.27935 -0.99769,0.11973 -0.23944,0.39907 -0.43898,1.99537 -0.31926,2.75365 1.31693,3.03295 0.15963,0.0399 0.4789,0.11972 0.31926,0.0399 0.39907,0.0798 0.11972,0 0.35917,0.0399 0.23944,0 0.39907,-0.0399 0.31926,-0.0798 0.59862,-0.23945 0.31926,-0.19953 0.47889,-0.27935 0.31926,-0.15963 0.39907,-0.19954 z"
         stroke-miterlimit="2"
         stroke="null" />
      <path
         style="fill:#25c8c1;stroke-width:0;stroke-miterlimit:2"
         id="path73197"
         d="m 355.11368,411.32114 q 1.19723,-0.27936 3.35226,-2.07521 0.11973,-0.0798 0.47889,-0.35917 0.35917,-0.27935 0.47889,-0.43898 0.11973,-0.15963 0.35917,-0.43898 0.23945,-0.31926 0.35917,-0.55871 1.07752,-2.11508 -0.39907,-3.39214 -0.39908,-0.39907 -1.31694,-0.27935 -0.87798,0.11972 -1.67613,0.87798 -2.39445,2.15503 -3.1926,5.98613 -0.15963,1.03757 1.55642,0.67844 z m 6.74441,4.42971 q -0.99769,0.23944 -1.35689,-0.87798 -0.71832,-2.03526 -0.5188,-3.95087 l 0.0798,-0.83804 -1.55642,1.23711 q -2.51416,2.2348 -4.82879,2.2348 -3.39214,-0.59862 -1.87567,-5.34764 0.83804,-2.47428 2.31463,-4.11047 2.59399,-3.87104 5.82647,-1.99537 0.99769,0.47889 1.27706,0.39907 0.27935,-0.0798 0.59861,-1.39676 1.07752,-4.58937 3.79122,-10.33635 0.63852,-1.39676 1.35688,-1.31693 0.87798,0 1.35688,1.19722 0.27936,0.63852 -0.11972,1.31694 -1.03757,1.79584 -2.55411,5.86642 -1.51647,4.07058 -2.15503,6.42509 -0.63852,2.31462 -0.91786,5.58705 -0.27936,3.27244 -0.0399,4.27013 0.23944,0.9578 0.11972,1.2371 -0.11972,0.31926 -0.79815,0.39908 z"
         stroke-miterlimit="2"
         stroke="null" />
      <path
         style="fill:#25c8c1;stroke-width:0;stroke-miterlimit:2"
         id="path73199"
         d="m 367.19132,411.16108 0.15963,-0.83803 q -0.0399,-0.23945 0.31926,-1.31694 0.71832,-1.5963 1.91555,-5.62693 0,-0.4789 0.63852,-0.5188 0.47889,-0.15963 0.71832,0 0.23945,0.11972 0.63852,0.75827 0.59861,0.59861 -0.11972,2.15503 -0.67844,1.55642 -0.83803,2.39445 -0.59862,1.31694 -0.91786,2.51417 -0.27936,1.19722 -0.5188,1.5963 -0.35917,1.63618 -0.67844,1.91555 -0.27936,0.27935 -0.87798,-0.31926 -0.55871,-0.63852 -0.63852,-1.43665 -0.0798,-0.79812 0.19953,-1.27705 z m 5.26781,-17.55959 q 0.91786,-0.63852 1.79584,0.75827 0.31926,0.79815 0.19953,1.27706 -0.11972,0.43898 -0.87797,1.35688 -1.07752,1.43665 -2.15504,0.5188 -0.47889,-0.39908 -0.5188,-0.99769 -0.0399,-0.59861 0.0399,-0.63852 0.31926,-0.0399 0.71833,-0.67844 0.43898,-0.67844 0.39907,-1.07752 0,-0.43898 0.39908,-0.5188 z"
         stroke-miterlimit="2"
         stroke="null" />
      <path
         style="fill:#25c8c1;stroke-width:0;stroke-miterlimit:2"
         id="path73201"
         d="m 384.89096,403.61839 q 0.9578,-0.43898 1.31693,-0.43898 0.35917,0 1.15735,0.71832 0.83803,0.71833 0.99768,1.19723 0,0.43898 0.11973,0.95781 0.15963,0.47889 0.11972,1.91555 -0.0399,1.43664 -0.31926,1.5963 0,0.19954 0.19954,0.19954 v 0.19953 q -0.43899,0 -0.0798,0.75827 0.39908,0.71833 0.75827,1.07752 0.35917,0.35917 0.27936,0.79815 -0.0798,0.39908 -0.71833,0.55871 -1.55642,0 -2.19491,-1.47659 -0.23945,-0.83804 -0.31926,-1.91555 -0.0798,-1.1174 0.0399,-1.35689 0.15963,-0.23944 0.11972,-1.27705 0,-1.07752 -0.35917,-1.19723 -0.31926,-0.15963 -0.9578,0.23945 -4.70908,2.95318 -6.66458,4.62925 -0.5188,0.5587 -1.23711,1.75595 -0.11972,0.19954 -0.31926,0.19954 -0.39907,0.19954 -1.15734,-0.43898 -0.87798,-0.95781 -0.91786,-1.07752 0,-0.31926 0.23944,-1.47659 0.27936,-1.15735 0.43899,-1.47659 0.15963,0 0.39907,-0.5188 0.23945,-0.5188 0.39908,-0.75827 0.11972,-0.59861 1.03757,-2.75365 0.91786,-1.55642 1.07751,-3.1926 -0.0399,-0.15963 0.0798,-0.27936 0.11972,-0.15963 0.27935,-0.15963 0.71832,-0.67844 1.47659,0.35917 0.79816,1.03757 0.63853,2.07521 -0.11973,0.99769 -1.27706,2.87336 -0.55871,1.35688 -0.55871,1.51647 1.59631,-1.07752 2.2348,-1.51647 0.31926,-0.35917 1.71601,-1.27706 1.39675,-0.91789 1.9555,-1.03757 z"
         stroke-miterlimit="2"
         stroke="null" />
      <path
         style="fill:#25c8c1;stroke-width:0;stroke-miterlimit:2"
         id="path73203"
         d="m 392.60037,411.16108 0.15963,-0.83803 q -0.0399,-0.23945 0.31926,-1.31694 0.71832,-1.5963 1.91555,-5.62693 0,-0.4789 0.63852,-0.5188 0.47889,-0.15963 0.71832,0 0.23945,0.11972 0.63852,0.75827 0.59861,0.59861 -0.11972,2.15503 -0.67844,1.55642 -0.83803,2.39445 -0.59862,1.31694 -0.91786,2.51417 -0.27936,1.19722 -0.5188,1.5963 -0.35917,1.63618 -0.67844,1.91555 -0.27936,0.27935 -0.87798,-0.31926 -0.55871,-0.63852 -0.63852,-1.43665 -0.0798,-0.79812 0.19953,-1.27705 z m 5.26781,-17.55959 q 0.91786,-0.63852 1.79584,0.75827 0.31926,0.79815 0.19953,1.27706 -0.11972,0.43898 -0.87798,1.35688 -1.07751,1.43665 -2.15503,0.5188 -0.47889,-0.39908 -0.5188,-0.99769 -0.0399,-0.59861 0.0399,-0.63852 0.31926,-0.0399 0.71833,-0.67844 0.43898,-0.67844 0.39907,-1.07752 0,-0.43898 0.39908,-0.5188 z"
         stroke-miterlimit="2"
         stroke="null" />
      <path
         style="fill:#25c8c1;stroke-width:0;stroke-miterlimit:2"
         id="path73205"
         d="m 410.3,403.61839 q 0.95781,-0.43898 1.31694,-0.43898 0.35917,0 1.15735,0.71832 0.83803,0.71833 0.99768,1.19723 0,0.43898 0.11973,0.95781 0.15963,0.47889 0.11972,1.91555 -0.0399,1.43664 -0.31926,1.5963 0,0.19954 0.19954,0.19954 v 0.19953 q -0.43899,0 -0.0798,0.75827 0.39908,0.71833 0.75827,1.07752 0.35917,0.35917 0.27935,0.79815 -0.0798,0.39908 -0.71832,0.55871 -1.55642,0 -2.19491,-1.47659 -0.23945,-0.83804 -0.31926,-1.91555 -0.0798,-1.1174 0.0399,-1.35689 0.15963,-0.23944 0.11972,-1.27705 0,-1.07752 -0.35917,-1.19723 -0.31926,-0.15963 -0.95781,0.23945 -4.70907,2.95318 -6.66457,4.62925 -0.5188,0.5587 -1.23711,1.75595 -0.11972,0.19954 -0.31926,0.19954 -0.39907,0.19954 -1.15734,-0.43898 -0.87798,-0.95781 -0.91786,-1.07752 0,-0.31926 0.23944,-1.47659 0.27936,-1.15735 0.43899,-1.47659 0.15963,0 0.39907,-0.5188 0.23945,-0.5188 0.39908,-0.75827 0.11972,-0.59861 1.03757,-2.75365 0.91786,-1.55642 1.07751,-3.1926 -0.0399,-0.15963 0.0798,-0.27936 0.11972,-0.15963 0.27935,-0.15963 0.71832,-0.67844 1.47659,0.35917 0.79815,1.03757 0.63852,2.07521 -0.11972,0.99769 -1.27705,2.87336 -0.55871,1.35688 -0.55871,1.51647 1.59631,-1.07752 2.2348,-1.51647 0.31926,-0.35917 1.71601,-1.27706 1.39675,-0.91789 1.9555,-1.03757 z"
         stroke-miterlimit="2"
         stroke="null" />
      <path
         style="fill:#25c8c1;stroke-width:0;stroke-miterlimit:2"
         id="path73207"
         d="m 426.1123,402.81811 q -0.0399,-0.63852 -0.23944,-0.83803 -0.15963,-0.19954 -0.63852,-0.11973 -1.55642,0.23945 -3.39214,2.55411 -0.59862,0.79816 -1.03757,1.99538 -0.39908,1.15735 -0.47889,2.2348 -0.0399,1.03757 0.35916,1.19722 2.39446,-0.0798 4.27012,-2.95318 1.35689,-1.87567 1.15735,-4.07058 z m -2.15503,-3.11278 q 0.75827,-0.39907 1.79584,-0.0798 0.95781,0.11972 2.19491,1.19723 0.95781,0.9578 1.39677,2.11508 0.5188,1.1174 -0.23945,2.11509 -0.5188,0.5188 -0.91786,1.27705 -0.35917,0.75827 -0.43898,1.15735 -0.0399,0.31926 -2.03526,7.98151 -1.79584,6.18567 -3.59168,7.14321 -1.07752,0.43898 -2.31462,-0.11972 -2.07521,-0.91786 -2.91324,-3.59168 -0.35917,-1.23711 -0.15963,-1.39677 0.23944,-0.15963 0.71832,0 0.47889,0.15963 0.59862,0.55871 0.15963,0.39907 0.67844,1.1174 0.51879,0.71832 0.75827,0.75827 1.11739,0.51879 1.75596,0.0798 0.63852,-0.5188 1.07751,-1.35688 0.47889,-0.79815 1.03757,-2.59399 1.67613,-5.90631 2.07521,-6.66458 -0.27935,0.23945 -0.79815,0.71833 -1.1174,1.03757 -1.9555,1.35688 -0.23944,0.31926 -1.19723,0.35917 -0.91786,0.0399 -1.79584,-0.23945 -0.83803,-0.43898 -1.03757,-0.67844 -0.19953,-0.23944 -0.51879,-0.95781 -0.31926,-0.75827 -0.11973,-2.11508 0.19954,-1.35689 0.71833,-2.7137 0.75827,-1.55642 2.39445,-3.31232 1.63618,-1.75596 2.83341,-2.11508 z"
         stroke-miterlimit="2"
         stroke="null" />
      <path
         style="fill:#25c8c1;stroke-width:0;stroke-miterlimit:2"
         id="path73209"
         d="m 448.76037,405.13227 q 0.67844,-0.27936 1.35688,-0.99769 0.71832,-0.71832 0.71832,-1.23711 0,-0.55871 -0.5587,-0.87798 -0.55871,-0.35917 -1.31694,-0.15963 -0.75827,0.19954 -1.55642,0.91786 -0.79815,0.71832 -1.31693,1.43665 -0.5188,0.67844 -0.39908,0.79815 0.15963,0.31926 1.27706,0.35917 1.11739,0.0399 1.79584,-0.23945 z m -0.0798,6.46503 q 0.11973,-0.0798 0.11973,-0.0798 0.0399,0 0.0798,-0.0399 0.0798,-0.0399 0.0798,-0.0798 0.27935,-0.23944 0.67844,-0.63852 0.43898,-0.43898 0.63852,-0.43898 0.19954,0 0.39907,0.19954 0.23945,0.19953 0.31926,0.23944 0.63853,0 -0.19953,1.03757 -0.79815,1.03757 -1.99538,1.79584 -1.27705,1.1174 -3.03295,0.83803 -1.71601,-0.31926 -2.75364,-1.75596 -1.23711,-1.55642 -0.91786,-4.98844 0.15963,-2.2348 1.91554,-4.54949 1.75596,-2.35457 3.71139,-3.11277 0.55871,-0.35917 1.03757,-0.35917 0.47889,-0.0399 1.5963,0.11972 1.15735,0.15963 1.79584,0.95781 0.99769,0.99769 0.99769,2.31462 -0.15963,0.95781 -1.2371,2.19492 -1.07752,1.23711 -2.594,1.99538 -2.23479,0.67844 -3.63156,-0.27936 -0.71832,-0.27935 -0.99768,0.11973 -0.23945,0.39907 -0.43899,1.99537 -0.31926,2.75365 1.31694,3.03295 0.15963,0.0399 0.47889,0.11972 0.31926,0.0399 0.39907,0.0798 0.11973,0 0.35917,0.0399 0.23945,0 0.39908,-0.0399 0.31926,-0.0798 0.59861,-0.23945 0.31926,-0.19953 0.47889,-0.27935 0.31926,-0.15963 0.39908,-0.19954 z"
         stroke-miterlimit="2"
         stroke="null" />
      <path
         style="fill:#25c8c1;stroke-width:0;stroke-miterlimit:2"
         id="path73211"
         d="m 464.97281,403.61839 q -0.71832,-1.5963 -1.5963,-1.5963 -0.87798,0 -2.67382,2.11509 -1.79584,2.0752 -3.27243,4.90861 l -0.99769,2.27475 q 0,0.43898 0.99769,-0.0399 1.03757,-0.5188 1.71601,-1.07752 3.43202,-2.95319 4.94856,-5.1481 z m -9.97689,9.93688 q -0.11972,-0.23945 -0.39907,-0.47889 -0.23945,-0.27936 -0.23945,-0.5188 0,-0.27936 -0.19954,-0.5188 -0.67844,-0.67844 2.15504,-5.86642 0.23944,-0.23945 0.59861,-0.83803 0.39908,-0.59862 0.5188,-0.67845 0,-0.15963 0.11972,-0.27935 0.11973,-0.15963 0.27936,-0.15963 v -0.23944 q 0,-0.35917 1.31693,-1.75596 3.51185,-3.67151 5.4274,-2.15504 0.23945,0.31926 3.31231,3.03295 l -0.71832,1.99538 q -0.87798,2.59399 0.5188,4.86873 0.19954,0.43898 0.79815,0.83803 0.59861,0.39908 1.19723,0.47889 0.87798,0.15963 0.87798,0.91786 0,0.75827 -0.71833,0.91786 -2.67382,0.35917 -4.54948,-3.27243 -0.55871,-0.75827 -0.71833,-1.75596 -0.59861,0.83803 -1.27705,1.51648 -5.62694,5.66688 -8.30096,3.95087 z"
         stroke-miterlimit="2"
         stroke="null" />
      <path
         style="fill:#25c8c1;stroke-width:0;stroke-miterlimit:2"
         id="path73213"
         d="m 478.04413,411.80131 -0.71832,-0.27935 q 0,-0.35917 -1.15735,-0.87798 -2.19491,-1.79584 -1.99537,-2.07521 v -0.19954 q -0.27936,0 -0.63852,-0.75827 -0.31926,-0.79815 -0.31926,-1.47659 0,-0.71832 0.59861,-1.99538 0.63852,-1.27705 1.5963,-2.19491 0.95778,-0.91786 2.75365,-2.07521 3.67151,-2.39445 5.22786,-1.47659 1.19723,0.71832 1.67613,1.99538 0,2.51416 -0.71832,2.51416 -0.19954,0 -0.19954,0.31926 0,0.31926 -0.59861,0.83803 -1.75596,1.27706 -1.99538,0.19954 -0.19954,-0.39908 -0.35917,-0.39908 -0.23944,-0.11972 -0.23944,-0.51879 l 0.23944,-0.43899 q 0.23945,0 0.79815,-0.91786 0.55871,-0.95781 0.55871,-1.23711 0,-0.27935 -0.0798,-0.31926 -0.0399,-0.0399 -0.35917,-0.0399 -3.11277,1.39677 -3.87104,2.11509 -0.15963,0.27935 -0.19954,0.35917 -0.0399,0.0399 -0.19954,0.0399 0,-0.31926 -1.27705,1.47659 -0.27935,0.39908 -0.83803,1.23711 -0.27936,0.27935 -0.31926,0.79815 0,0.5188 -0.0399,0.59861 0,0.0798 0,0.19954 0.0399,0.0798 0.0399,0.15963 0.0399,0.0399 0.11972,0.15963 0.11972,0.0798 0.19954,0.15963 0.0798,0.0399 0.27935,0.19954 0.19954,0.15963 0.35917,0.27935 3.63156,2.7137 3.87104,3.63156 0.67845,1.23711 0.43899,1.83572 -0.23945,0.59862 -1.1174,0.99769 -0.83803,0.39908 -2.47428,0.5188 -1.63619,0.15963 -2.47428,0 -0.71833,-0.27935 -1.39677,-0.79815 -0.67844,-0.55871 -0.91786,-0.95781 0,-0.55871 0.23945,-0.59861 0.27935,-0.0399 2.47428,0.15963 0.87798,0 1.99538,-0.19954 1.11739,-0.23945 1.2371,-0.5188 0.11973,-0.0798 -0.19953,-0.43898 z"
         stroke-miterlimit="2"
         stroke="null" />
      <path
         style="fill:#25c8c1;stroke-width:0;stroke-miterlimit:2"
         id="path73215"
         d="m 485.90026,411.16108 0.15963,-0.83803 q -0.0399,-0.23945 0.31926,-1.31694 0.71833,-1.5963 1.91555,-5.62693 0,-0.4789 0.63852,-0.5188 0.47889,-0.15963 0.71833,0 0.23944,0.11972 0.63852,0.75827 0.59861,0.59861 -0.11973,2.15503 -0.67844,1.55642 -0.83803,2.39445 -0.59861,1.31694 -0.91786,2.51417 -0.27935,1.19722 -0.5188,1.5963 -0.35916,1.63618 -0.67844,1.91555 -0.27935,0.27935 -0.87798,-0.31926 -0.5587,-0.63852 -0.63852,-1.43665 -0.0798,-0.79812 0.19954,-1.27705 z m 5.26781,-17.55959 q 0.91786,-0.63852 1.79584,0.75827 0.31926,0.79815 0.19954,1.27706 -0.11972,0.43898 -0.87798,1.35688 -1.07752,1.43665 -2.15503,0.5188 -0.47889,-0.39908 -0.5188,-0.99769 -0.0399,-0.59861 0.0399,-0.63852 0.31926,-0.0399 0.71832,-0.67844 0.43898,-0.67844 0.39908,-1.07752 0,-0.43898 0.39907,-0.5188 z"
         stroke-miterlimit="2"
         stroke="null" />
      <path
         style="fill:#25c8c1;stroke-width:0;stroke-miterlimit:2"
         id="path73217"
         d="m 500.28539,405.13227 q 0.67844,-0.27936 1.35688,-0.99769 0.71832,-0.71832 0.71832,-1.23711 0,-0.55871 -0.5587,-0.87798 -0.55871,-0.35917 -1.31694,-0.15963 -0.75827,0.19954 -1.55642,0.91786 -0.79815,0.71832 -1.31694,1.43665 -0.51879,0.67844 -0.39907,0.79815 0.15963,0.31926 1.27705,0.35917 1.1174,0.0399 1.79584,-0.23945 z m -0.0798,6.46503 q 0.11972,-0.0798 0.11972,-0.0798 0.0399,0 0.0798,-0.0399 0.0798,-0.0399 0.0798,-0.0798 0.27936,-0.23944 0.67845,-0.63852 0.43898,-0.43898 0.63852,-0.43898 0.19953,0 0.39907,0.19954 0.23945,0.19953 0.31926,0.23944 0.63852,0 -0.19954,1.03757 -0.79815,1.03757 -1.99537,1.79584 -1.27706,1.1174 -3.03295,0.83803 -1.71601,-0.31926 -2.75365,-1.75596 -1.2371,-1.55642 -0.91786,-4.98844 0.15963,-2.2348 1.91555,-4.54949 1.75596,-2.35457 3.71139,-3.11277 0.55871,-0.35917 1.03757,-0.35917 0.47889,-0.0399 1.5963,0.11972 1.15735,0.15963 1.79584,0.95781 0.99769,0.99769 0.99769,2.31462 -0.15963,0.95781 -1.23711,2.19492 -1.07751,1.23711 -2.59399,1.99538 -2.23479,0.67844 -3.63156,-0.27936 -0.71832,-0.27935 -0.99769,0.11973 -0.23944,0.39907 -0.43898,1.99537 -0.31926,2.75365 1.31694,3.03295 0.15963,0.0399 0.47889,0.11972 0.31926,0.0399 0.39907,0.0798 0.11972,0 0.35917,0.0399 0.23945,0 0.39908,-0.0399 0.31926,-0.0798 0.59861,-0.23945 0.31926,-0.19953 0.47889,-0.27935 0.31926,-0.15963 0.39907,-0.19954 z"
         stroke-miterlimit="2"
         stroke="null" />
      <path
         style="fill:#25c8c1;stroke-width:0;stroke-miterlimit:2"
         id="path73219"
         d="m 508.63503,413.67531 q -0.39908,0.5587 -0.71833,0.5587 -0.31926,0 -0.9578,-0.63852 -0.39908,-0.31926 -0.5188,-0.59861 -0.23945,-0.5587 0.79815,-4.98844 0.11972,-0.99769 1.39676,-4.19029 1.27704,-3.19261 2.07521,-4.34995 0.79815,-0.59862 1.55642,0.15963 0.39908,0.31926 0.15963,1.07751 -0.31926,1.03757 -1.31694,3.19261 -0.9578,2.11508 -0.83803,2.11508 0.11973,0 0.35917,-0.15963 0.43898,-0.75827 2.11509,-2.0752 1.71601,-1.31694 2.15503,-1.51648 0.43898,-0.23944 0.91786,-0.43898 0.5188,-0.19954 0.59862,-0.23944 0.87797,-0.43899 1.83572,-0.31926 0.99768,0.11972 1.2371,0.71832 0,0.39907 0.47889,0.63852 l 0.19954,0.23944 q 0,0.35917 -1.03757,0.43899 -1.03757,0.0399 -2.31462,0.59861 -0.15963,0.11972 -0.67844,0.39908 -0.4789,0.23944 -0.67845,0.35916 -0.15963,0.11973 -0.59861,0.35917 -0.43898,0.23945 -0.67844,0.39908 -0.19954,0.15963 -0.55871,0.39907 -0.35916,0.23945 -0.63852,0.43899 -0.23944,0.19953 -0.5587,0.43898 -1.23711,1.03757 -2.31463,2.87336 -0.27935,0.27935 -0.59861,1.47659 -0.27935,1.15734 -0.27935,1.43664 -0.15963,0.63852 -0.59862,1.19723 z"
         stroke-miterlimit="2"
         stroke="null" />
      <path
         style="stroke-width:0;stroke-miterlimit:2"
         id="path73222"
         d="m 155.30252,357.36192 q -1.47506,-1.10633 -1.72095,-1.96677 -0.24584,-1.84385 3.31892,-13.15268 3.68771,-11.43207 5.16277,-14.38179 1.59804,-3.0731 2.33557,-5.77739 0.73753,-2.7043 0.98341,-3.19601 -0.24584,-1.35214 -0.12292,-1.72094 0.12292,-0.4917 1.10633,-1.59804 1.72094,-1.47506 3.68771,-5.77739 l 6.14619,-17.57826 q 1.10633,-3.93353 0.61462,-3.93353 -0.12293,0 -3.68772,0.49169 -3.44189,0.36877 -3.5648,0.36877 -3.196,0.4917 -3.196,-1.72094 0.61462,-4.30234 4.42524,-4.67113 9.46537,-2.21266 10.44839,-1.96677 1.59803,-1.10633 1.59803,-1.72095 0,-1.22924 1.84386,-1.35215 1.84386,-0.12292 2.7043,1.10633 0.86044,1.47506 10.69447,-0.61462 8.85049,-0.73753 10.9399,-0.12292 1.10633,-0.24585 2.58138,-0.36877 2.95019,-0.12293 3.4419,-0.36877 5.03986,0.86044 5.40866,1.35214 0.73753,0.73753 0.49169,1.47506 l 0.86044,0.61462 q 1.84386,0.98342 1.22924,2.82728 -0.12292,1.10632 -1.22924,1.35214 -0.98342,0.12293 -5.53157,0 -8.85048,-1.22923 -22.24926,0.61462 -6.2691,0.4917 -7.49867,1.96677 -2.21265,2.58139 -6.63789,13.89028 -4.30234,11.30869 -4.54816,11.67749 4.17942,1.22924 22.86415,-0.49169 5.65448,-1.10633 6.51498,-0.61462 0.98342,0.49169 1.47506,2.45847 0.61462,1.84386 0.12293,2.82728 -1.10633,2.58138 -22.24926,2.95018 -7.62138,0.12293 -10.57177,-0.24585 -1.10632,0.86044 -1.10632,2.21266 -2.21266,3.93353 -6.51499,15.24276 -4.30233,11.3087 -4.30233,13.52148 -0.98342,2.45848 -1.47506,4.91695 -0.36877,2.33557 -0.73753,2.58139 -0.12293,0.36877 -1.47506,0.36877 -1.35214,0 -2.58139,-1.47506 z"
         stroke-miterlimit="2"
         stroke="null" />
      <path
         style="stroke-width:0;stroke-miterlimit:2"
         id="path73224"
         d="m 242.9404,327.49128 q 0.73753,-1.96677 0.61462,-5.28575 0,-3.44189 -0.98342,-3.93353 -3.44189,-1.96677 -8.11289,1.84385 -6.14619,5.28575 -12.16967,18.68466 -2.58138,6.14619 0.36878,8.6044 3.68771,3.07309 12.16966,-6.14619 5.28575,-6.02328 8.11289,-13.76757 z m -23.72445,-0.86044 q 8.2356,-13.64486 19.17616,-16.22578 2.58139,-0.73753 3.68772,-0.61462 1.22923,0.12293 2.95018,1.96677 2.82727,1.22924 4.05651,2.95018 1.35215,1.72095 1.72095,5.03987 0.98341,9.58808 -6.39201,20.15918 -2.82728,4.05651 -5.28575,6.2691 -2.45848,2.08967 -6.51499,4.54815 -4.79404,3.196 -9.58808,3.5648 -2.08968,0 -4.79404,-2.33556 -4.67113,-4.79404 -3.93353,-9.09658 l 0.24584,-2.82727 q -0.61462,-0.61462 -0.36877,-0.98342 0.36877,-0.36877 0.4917,-0.49169 0.73753,0 0.49169,-1.10633 -0.24585,-1.22924 0.98342,-4.54815 1.22924,-3.4419 3.07309,-6.2691 z"
         stroke-miterlimit="2"
         stroke="null" />
      <path
         style="stroke-width:0;stroke-miterlimit:2"
         id="path73226"
         d="m 270.49688,352.08004 q -1.22924,1.72094 -2.21265,1.72094 -0.98342,0 -2.95019,-1.96676 -1.22924,-0.98342 -1.59803,-1.84386 -0.73753,-1.72095 2.45847,-15.36547 0.36877,-3.0731 4.30233,-12.90727 3.93356,-9.83416 6.39201,-13.39877 2.45848,-1.84385 4.79404,0.4917 1.22924,0.98341 0.4917,3.31891 -0.98342,3.19601 -4.05651,9.83417 -2.95019,6.51499 -2.58139,6.51499 0.36877,0 1.10633,-0.4917 1.35215,-2.33556 6.51499,-6.39201 5.28575,-4.05651 6.63789,-4.67113 1.35215,-0.73753 2.82728,-1.35214 1.59803,-0.61462 1.84385,-0.73753 2.7043,-1.35215 5.65448,-0.98342 3.0731,0.36877 3.81063,2.21265 0,1.22924 1.47506,1.96677 l 0.61462,0.73753 q 0,1.10633 -3.19601,1.35215 -3.196,0.12292 -7.12987,1.84386 -0.4917,0.36877 -2.08968,1.22923 -1.47506,0.73753 -2.08968,1.10633 -0.49169,0.36877 -1.84385,1.10633 -1.35217,0.73755 -2.08968,1.22924 -0.61462,0.49169 -1.72095,1.22923 -1.10632,0.73755 -1.96676,1.35215 -0.73753,0.61462 -1.72095,1.35215 -3.81062,3.19601 -7.12987,8.85049 -0.86044,0.86044 -1.84386,4.54815 -0.86044,3.5648 -0.86044,4.42524 -0.4917,1.96677 -1.84386,3.68772 z"
         stroke-miterlimit="2"
         stroke="null" />
      <path
         style="stroke-width:0;stroke-miterlimit:2"
         id="path73230"
         d="m 426.49244,279.92101 q 2.21265,-3.68772 5.28575,-3.68772 3.196,0 4.42524,3.68772 3.07309,7.12987 2.45848,30.97703 -0.4917,15.36547 1.35214,22.37197 0.98342,5.65448 2.7043,12.29237 1.72095,6.51499 2.7043,6.51499 3.93353,0 13.64486,-38.96654 2.08967,-7.0065 3.196,-16.22578 3.93354,-14.87397 3.93354,-16.47187 v -2.7043 q 0.49169,0 0.98341,-1.59803 0.61462,-1.59804 0.61462,-4.05651 0,-2.45848 1.72095,-4.17942 0.49169,-1.35215 3.196,-0.61462 2.82728,0.61462 3.4419,2.45847 0.36877,2.58139 -3.4419,18.80737 0,1.47506 -1.59803,8.2356 -1.47506,6.63789 -1.96677,9.46537 -1.22924,7.99018 -2.21265,7.74409 -5.03987,21.63437 -12.90727,39.58143 -6.2691,14.38179 -13.89028,4.54815 -4.05651,-5.28575 -5.90037,-13.27606 -0.61462,-2.95018 -2.08967,-10.9399 -2.45848,-6.392 -2.08968,-15.24276 0.12292,-3.07309 0.49169,-8.60439 0.4917,-5.53157 0.61462,-8.35898 -0.12292,-8.72778 -0.98342,-8.72778 -0.86043,-0.12292 -3.07309,6.14619 -2.21265,6.26911 -4.30233,11.3087 -5.28575,12.41508 -6.51499,14.99667 -1.22924,2.58139 -2.33556,7.12987 -8.11289,21.63438 -9.7108,28.02665 -0.98341,2.45848 -1.72094,3.68772 -1.72095,2.70429 -4.67113,-0.4917 -1.72095,-1.84386 -1.84386,-3.31892 0,-1.35214 0.98342,-4.67113 0.98341,-3.44189 3.31891,-8.97319 2.33557,-5.65448 3.31892,-10.69448 4.17942,-9.71079 5.40866,-13.89028 1.35215,-4.30233 2.33556,-6.2691 0.98342,-2.08967 2.7043,-5.53157 1.72095,-3.44189 2.82727,-6.2691 1.22924,-2.95018 2.58139,-7.25258 1.47506,-4.42524 2.21265,-6.6379 1.96677,-6.2691 4.79404,-10.32567 z"
         stroke-miterlimit="2"
         stroke="null" />
      <path
         style="stroke-width:0;stroke-miterlimit:2"
         id="path73232"
         d="m 499.73186,325.77067 q 2.08967,-0.86044 4.17942,-3.0731 2.21265,-2.21265 2.21265,-3.81062 0,-1.72095 -1.72094,-2.7043 -1.72095,-1.10632 -4.05652,-0.49169 -2.33556,0.61462 -4.79404,2.82727 -2.45847,2.21266 -4.05651,4.42524 -1.59803,2.08968 -1.22924,2.45848 0.4917,0.98342 3.93354,1.10633 3.44189,0.12292 5.53157,-0.73753 z m -0.24585,19.91376 q 0.36877,-0.24585 0.36877,-0.24585 0.12292,0 0.24585,-0.12292 0.24584,-0.12293 0.24584,-0.24585 0.86044,-0.73753 2.08968,-1.96677 1.35215,-1.35215 1.96677,-1.35215 0.61462,0 1.22924,0.61462 0.73753,0.61462 0.98341,0.73753 1.96677,0 -0.61461,3.19601 -2.45848,3.196 -6.14619,5.53157 -3.93354,3.44189 -9.342,2.58138 -5.28575,-0.98341 -8.48168,-5.40866 -3.81063,-4.79404 -2.82728,-15.36547 0.4917,-6.88378 5.90037,-14.01299 5.40866,-7.25258 11.43207,-9.58808 1.72095,-1.10633 3.19601,-1.10633 1.47505,-0.12292 4.91695,0.36877 3.5648,0.4917 5.53157,2.95019 3.07309,3.07309 3.07309,7.12987 -0.49169,2.95018 -3.81062,6.76107 -3.31892,3.81063 -7.99018,6.14619 -6.88379,2.08968 -11.18599,-0.86044 -2.21265,-0.86044 -3.07309,0.36877 -0.73753,1.22924 -1.35215,6.14619 -0.98341,8.48169 4.05651,9.342 0.4917,0.12292 1.47506,0.36877 0.98342,0.12292 1.22924,0.24585 0.36877,0 1.10633,0.12292 0.73753,0 1.22924,-0.12292 0.98341,-0.24585 1.84385,-0.73753 0.98342,-0.61462 1.47506,-0.86044 0.98342,-0.4917 1.22924,-0.61462 z"
         stroke-miterlimit="2"
         stroke="null" />
      <path
         style="stroke-width:0;stroke-miterlimit:2"
         id="path73234"
         d="m 558.35273,322.45615 q -1.47505,2.95019 -2.70429,8.2356 -1.22924,5.16278 -1.22924,7.49868 0,2.21265 0.36877,2.95018 0.36877,0.73753 0.73753,0.86044 0.36877,0.12292 1.22924,0.12292 5.77739,0 14.13637,-12.78388 3.5648,-5.53157 3.5648,-6.39201 0,-0.86044 1.10633,-2.21266 1.35214,-1.96677 2.82727,-2.70429 1.47506,-0.73753 3.31892,1.10632 0.73752,0.73753 0.73752,3.93354 -0.61461,2.21265 -2.08967,5.77739 -1.47506,3.44189 -2.33557,4.42524 -2.33556,1.84386 -3.93353,4.54815 -3.44189,4.05652 -4.91695,5.28575 -1.47506,1.22924 -1.84386,1.59804 -3.81062,3.81062 -8.2356,4.91695 -4.30233,0.98342 -6.76107,-0.98342 -3.81063,-1.96676 -3.81063,-6.63789 l -0.61462,-2.58139 q -1.84385,0 -3.31891,2.58139 -1.35215,2.45847 -5.53157,5.53157 -4.17942,3.07309 -6.39201,3.07309 -2.82728,0 -4.67113,-4.79404 -1.84386,-4.91695 -1.35215,-10.9399 0,-4.05651 0.73753,-7.8668 0.86044,-3.81062 0.98342,-4.30233 1.22923,-8.85049 3.07309,-10.69448 0.86044,-1.10632 2.58139,-0.98341 3.68771,0.24584 3.31891,6.63789 -0.24585,3.93354 -1.35215,5.40866 -0.24584,0.61462 -0.98341,6.2691 -0.61462,5.53157 -0.86044,6.88379 -0.61462,4.05651 1.47505,4.30233 2.7043,0.24585 7.86681,-7.25258 5.28575,-7.49867 7.37529,-13.39877 2.08968,-6.02328 2.82727,-6.51499 1.96677,-1.22924 4.67113,0.61462 2.82728,2.82727 0,8.48168 z"
         stroke-miterlimit="2"
         stroke="null" />
      <path
         style="stroke-width:0;stroke-miterlimit:2"
         id="path73236"
         d="m 610.01113,346.29798 -2.21265,-0.86044 q 0,-1.10633 -3.56481,-2.7043 -6.76107,-5.53157 -6.14618,-6.39201 v -0.61462 q -0.86044,0 -1.96677,-2.33556 -0.98342,-2.45848 -0.98342,-4.54815 0,-2.21266 1.84386,-6.14619 1.96677,-3.93354 4.91695,-6.76108 2.95018,-2.82727 8.48169,-6.39201 11.30869,-7.37529 16.10307,-4.54815 3.68771,2.21265 5.16277,6.14619 0,7.74409 -2.21266,7.74409 -0.61462,0 -0.61462,0.98342 0,0.98341 -1.84385,2.58138 -5.40866,3.93354 -6.14619,0.61462 -0.61462,-1.22924 -1.10633,-1.22924 -0.73753,-0.36877 -0.73753,-1.59803 l 0.73753,-1.35215 q 0.73753,0 2.45848,-2.82727 1.72094,-2.95019 1.72094,-3.81063 0,-0.86044 -0.24585,-0.98341 -0.12292,-0.12293 -1.10632,-0.12293 -9.58808,4.30233 -11.92358,6.51499 -0.4917,0.86044 -0.61462,1.10633 -0.12293,0.12292 -0.61462,0.12292 0,-0.98342 -3.93353,4.54815 -0.86044,1.22924 -2.58139,3.81063 -0.86044,0.86044 -0.98342,2.45847 0,1.59804 -0.12292,1.84386 0,0.24585 0,0.61462 0.12292,0.24585 0.12292,0.49169 0.12293,0.12293 0.36877,0.4917 0.36878,0.24585 0.61462,0.49169 0.24585,0.12293 0.86044,0.61462 0.61462,0.4917 1.10633,0.86044 11.18598,8.35898 11.92358,11.18599 2.08968,3.81062 1.35215,5.65448 -0.73753,1.84385 -3.44189,3.07309 -2.58139,1.22924 -7.62139,1.59804 -5.03986,0.49169 -7.62138,0 -2.21265,-0.86044 -4.30233,-2.45848 -2.08968,-1.72095 -2.82727,-2.95018 0,-1.72095 0.73753,-1.84386 0.86044,-0.12292 7.62138,0.4917 2.70429,0 6.14619,-0.61462 3.44189,-0.73753 3.81062,-1.59804 0.36877,-0.24585 -0.61462,-1.35215 z"
         stroke-miterlimit="2"
         stroke="null" />
      <path
         style="fill:#25c8c1;stroke-width:0.46526"
         id="icon"
         d="m 349.87849,307.35744 c -0.19926,-0.003 -0.3856,-0.002 -0.41405,0.003 -0.0285,0.005 -0.12939,0.0236 -0.22427,0.0426 -0.0949,0.0188 -0.21927,0.0486 -0.27637,0.0661 -0.0571,0.0174 -0.17735,0.0602 -0.2674,0.0949 -0.0899,0.0347 -0.22945,0.0985 -0.31019,0.14181 -0.0806,0.0435 -0.21254,0.12162 -0.29328,0.17389 -0.0806,0.0523 -0.21651,0.14958 -0.3019,0.21634 -0.0982,0.0768 -2.02726,1.99204 -5.24127,5.20372 -2.79733,2.79513 -5.17864,5.18325 -5.29155,5.30709 -0.11299,0.12386 -0.27982,0.31726 -0.37056,0.42955 -0.0909,0.11232 -0.23066,0.29553 -0.31088,0.40715 -0.0801,0.11162 -0.2072,0.29985 -0.28241,0.41836 -0.0752,0.11852 -0.18839,0.3076 -0.25153,0.42009 -0.0632,0.11248 -0.16959,0.31693 -0.23652,0.4546 -0.0668,0.13749 -0.16303,0.35211 -0.21393,0.4765 -0.0507,0.12456 -0.11989,0.30294 -0.1537,0.3966 -0.034,0.0935 -0.0959,0.28656 -0.13802,0.42906 -0.0419,0.1425 -0.0992,0.36005 -0.12715,0.48339 -0.0277,0.12335 -0.0664,0.31742 -0.0857,0.43129 -0.0191,0.11404 -0.0485,0.32366 -0.0649,0.4658 -0.0212,0.18338 -0.0302,0.39713 -0.0308,0.73319 -3.1e-4,0.26119 0.009,0.56363 0.0207,0.67284 0.0116,0.10903 0.0405,0.31587 0.0644,0.45925 0.0238,0.14353 0.0666,0.35695 0.0952,0.47442 0.0285,0.11749 0.0797,0.30277 0.11351,0.41162 0.034,0.10904 0.0947,0.28362 0.13526,0.38817 0.0405,0.10454 0.11403,0.27948 0.1632,0.3885 0.0494,0.10904 0.14077,0.29155 0.20323,0.40542 0.0624,0.11386 0.17165,0.29897 0.24256,0.41146 0.0711,0.11248 0.20305,0.30277 0.29328,0.42267 0.0902,0.12007 0.22289,0.2881 0.29483,0.37349 0.0719,0.0854 0.34866,0.37643 0.61485,0.64694 0.26637,0.27051 0.52947,0.54876 0.58501,0.61864 0.0555,0.0699 0.25429,0.28724 0.44166,0.48305 0.18752,0.1958 0.66195,0.6747 1.05444,1.06391 0.39248,0.38937 0.77941,0.76287 0.86017,0.82996 0.0807,0.0673 0.22307,0.18166 0.31659,0.25447 0.0935,0.0728 0.27982,0.20512 0.41404,0.29396 0.13421,0.089 0.32089,0.20564 0.41491,0.25947 0.0938,0.0537 0.24687,0.13594 0.34004,0.18252 0.093,0.0468 0.27619,0.13077 0.40715,0.18666 0.13077,0.0559 0.37023,0.14457 0.53186,0.19719 0.16147,0.0524 0.41766,0.12301 0.5693,0.15664 0.15147,0.0336 0.38404,0.0768 0.51687,0.0959 0.13283,0.0191 0.39161,0.0435 0.57517,0.054 0.24601,0.0143 0.41733,0.0143 0.65333,0 0.17597,-0.0107 0.41404,-0.0315 0.52909,-0.0462 0.1149,-0.0147 0.32174,-0.049 0.45941,-0.0761 0.13749,-0.0273 0.35453,-0.0776 0.48202,-0.11213 0.12749,-0.0347 0.33709,-0.0983 0.4658,-0.14164 0.12853,-0.0433 0.35143,-0.12766 0.49512,-0.18735 0.1437,-0.0597 0.37764,-0.16683 0.51978,-0.23808 0.14215,-0.0713 0.36229,-0.18908 0.4891,-0.26188 0.1268,-0.073 0.34711,-0.2103 0.48944,-0.30518 0.14233,-0.0949 0.33262,-0.2279 0.42267,-0.29535 0.0902,-0.0675 0.25325,-0.19581 0.36228,-0.28517 0.10921,-0.0894 0.29552,-0.24981 0.41405,-0.35676 0.11869,-0.10697 2.56098,-2.54151 5.42746,-5.41006 4.08272,-4.08546 5.2382,-5.25154 5.3347,-5.38152 0.0676,-0.0913 0.15924,-0.22703 0.20375,-0.3019 0.0444,-0.0747 0.10989,-0.19857 0.14543,-0.27517 0.0358,-0.0766 0.089,-0.20771 0.11852,-0.29155 0.0297,-0.0837 0.0743,-0.25015 0.0997,-0.3697 0.0403,-0.1915 0.0459,-0.25637 0.0459,-0.54517 0,-0.28879 -0.005,-0.35366 -0.0459,-0.54517 -0.0253,-0.11955 -0.07,-0.28655 -0.0995,-0.37091 -0.0293,-0.0845 -0.0914,-0.23376 -0.13802,-0.33175 -0.0464,-0.0978 -0.1337,-0.25308 -0.1939,-0.34504 -0.0604,-0.0918 -0.15665,-0.22513 -0.21409,-0.29621 -0.0574,-0.0713 -0.16942,-0.19167 -0.24877,-0.26757 -0.0794,-0.0761 -0.19098,-0.17407 -0.24791,-0.21772 -0.057,-0.0436 -0.17166,-0.12369 -0.25515,-0.17804 -0.0833,-0.0543 -0.23083,-0.13611 -0.32779,-0.18183 -0.0968,-0.0457 -0.25825,-0.11041 -0.3585,-0.14405 -0.1004,-0.0335 -0.27119,-0.0788 -0.37953,-0.10058 -0.16648,-0.0335 -0.25102,-0.0397 -0.54222,-0.0397 -0.28931,0 -0.37625,0.007 -0.53825,0.039 -0.10627,0.0214 -0.28362,0.07 -0.39403,0.10817 -0.11058,0.0381 -0.26378,0.10075 -0.34056,0.13939 -0.0768,0.0386 -0.20202,0.10886 -0.2781,0.15613 -0.0761,0.0471 -0.20461,0.13681 -0.28569,0.19908 -0.0939,0.0721 -1.93962,1.90355 -5.08988,5.05047 -3.7578,3.7538 -4.98191,4.9667 -5.10662,5.05947 -0.0901,0.0675 -0.23376,0.1663 -0.31916,0.21995 -0.0854,0.0535 -0.22841,0.1325 -0.31794,0.17528 -0.0895,0.0428 -0.24101,0.10386 -0.33641,0.1356 -0.0956,0.0319 -0.25515,0.0754 -0.35487,0.0966 -0.14957,0.0319 -0.23514,0.0387 -0.49167,0.0387 -0.25533,0 -0.34194,-0.007 -0.48736,-0.0379 -0.0973,-0.0211 -0.24188,-0.0616 -0.32124,-0.0904 -0.0795,-0.0287 -0.20564,-0.0835 -0.28034,-0.12163 -0.0747,-0.0383 -0.20185,-0.11282 -0.28258,-0.16596 -0.11369,-0.0747 -0.27085,-0.22047 -0.70025,-0.64988 -0.4482,-0.44821 -0.57381,-0.58432 -0.66007,-0.71459 -0.0586,-0.0887 -0.13697,-0.22444 -0.17424,-0.30191 -0.0374,-0.0774 -0.0876,-0.20046 -0.11196,-0.27309 -0.0241,-0.0728 -0.0564,-0.18925 -0.0716,-0.25878 -0.0152,-0.0697 -0.0317,-0.23254 -0.0369,-0.36209 -0.006,-0.14267 -6.7e-4,-0.30243 0.0119,-0.40542 0.0117,-0.0935 0.0431,-0.25688 0.07,-0.36315 0.0267,-0.10628 0.0849,-0.28483 0.12939,-0.39679 0.0444,-0.11196 0.12249,-0.28207 0.17355,-0.37799 0.0509,-0.0957 0.14043,-0.24722 0.19892,-0.33641 0.0583,-0.089 0.15664,-0.22789 0.21857,-0.30863 0.0719,-0.094 1.84906,-1.88527 4.94657,-4.98564 l 4.83418,-4.83919 0.16217,-0.21858 c 0.089,-0.12007 0.20857,-0.30259 0.2655,-0.40522 0.057,-0.10282 0.13611,-0.26844 0.17597,-0.36797 0.0399,-0.0997 0.0913,-0.24738 0.11455,-0.32797 0.0231,-0.0807 0.0561,-0.22427 0.073,-0.31916 0.0219,-0.12231 0.0309,-0.26032 0.0309,-0.47442 1.8e-4,-0.20926 -0.009,-0.3521 -0.0293,-0.46579 -0.0162,-0.0902 -0.0491,-0.23376 -0.0735,-0.31916 -0.0241,-0.0854 -0.0785,-0.23755 -0.12093,-0.3383 -0.0423,-0.10075 -0.1187,-0.2536 -0.16959,-0.33985 -0.0509,-0.0863 -0.13663,-0.21513 -0.19028,-0.28656 -0.0537,-0.0713 -0.15216,-0.18804 -0.21876,-0.25929 -0.0666,-0.0713 -0.18062,-0.17924 -0.25325,-0.23997 -0.0728,-0.0607 -0.19821,-0.15475 -0.27895,-0.20892 -0.0806,-0.0543 -0.2398,-0.14371 -0.35366,-0.19874 -0.11386,-0.055 -0.28241,-0.12456 -0.37469,-0.15475 -0.0921,-0.0302 -0.23963,-0.0705 -0.32779,-0.0899 -0.12411,-0.0273 -0.23891,-0.0361 -0.52127,-0.0403 z m -41.94694,1.59791 c -0.10904,6.6e-4 -0.26154,0.0121 -0.33865,0.025 -0.0773,0.0129 -0.20443,0.0469 -0.28258,0.0756 -0.0783,0.0285 -0.18598,0.0762 -0.23928,0.10609 -0.0533,0.0299 -0.15009,0.097 -0.21496,0.14906 -0.0649,0.0521 -0.16803,0.15785 -0.22927,0.23497 -0.0671,0.0845 -0.152,0.22289 -0.21306,0.34745 -0.0558,0.11386 -0.12525,0.28466 -0.15406,0.37954 -0.029,0.0949 -0.0647,0.23048 -0.0794,0.30121 -0.0147,0.0709 -0.0378,0.20289 -0.0514,0.29329 -0.0135,0.0906 -0.0333,0.28482 -0.0438,0.43197 -0.0105,0.14699 -0.0143,0.35279 -0.008,0.45717 0.006,0.10437 0.0224,0.28672 0.0364,0.40542 0.014,0.11851 0.0447,0.3126 0.0685,0.43129 0.0238,0.11852 0.0706,0.32036 0.10403,0.44854 0.0336,0.12801 0.11438,0.39195 0.17959,0.58656 0.0652,0.19443 0.16838,0.47787 0.22928,0.62969 0.0609,0.15181 0.16389,0.39626 0.22875,0.54343 0.065,0.14698 0.22014,0.47306 0.34504,0.72459 0.12473,0.25136 0.31829,0.62401 0.42993,0.82809 0.11162,0.20391 0.24584,0.44457 0.29828,0.5348 0.0524,0.0901 0.15751,0.26861 0.23359,0.39679 0.0761,0.12801 0.2586,0.42611 0.40541,0.66245 0.14698,0.23618 0.42872,0.67251 0.62606,0.96955 0.19736,0.29708 0.46561,0.69384 0.59587,0.88171 0.13042,0.1877 0.36505,0.51997 0.52133,0.7382 0.15631,0.21824 0.46666,0.64126 0.68952,0.9402 0.22289,0.2988 0.56068,0.74527 0.75046,0.99195 0.18995,0.2467 0.5084,0.65436 0.70752,0.90573 0.19909,0.25135 0.52913,0.66297 0.7334,0.91432 0.20426,0.25136 0.54256,0.66298 0.75166,0.91433 0.20927,0.25135 0.51203,0.61243 0.67284,0.80222 0.16079,0.18976 0.40905,0.48081 0.55172,0.64693 0.1425,0.16597 0.44544,0.51532 0.67317,0.77635 0.22756,0.26084 0.56931,0.64901 0.75927,0.86257 0.18977,0.2134 0.48494,0.54343 0.65591,0.73319 0.1708,0.18977 0.5631,0.62054 0.87171,0.95728 0.30864,0.33675 0.73166,0.79482 0.9404,1.01783 0.20857,0.22306 0.87245,0.92953 1.475,1.56989 0.6026,0.64039 1.37909,1.46312 1.72534,1.82852 0.34641,0.36523 0.81169,0.8545 1.0341,1.08705 0.22255,0.23256 0.80189,0.83063 1.28746,1.32908 0.48563,0.49855 1.15001,1.16621 1.47606,1.48386 0.32604,0.31742 0.73666,0.71318 0.91213,0.87918 0.17562,0.16614 0.47461,0.44544 0.66453,0.62106 0.18994,0.17545 0.5743,0.52531 0.85397,0.77735 0.27966,0.25187 0.77688,0.69505 1.10466,0.98488 0.32797,0.28983 1.24231,1.09099 2.03193,1.78037 l 1.43551,1.25331 0.0816,1.8e-4 c 0.0449,0 0.78808,0.0191 1.65152,0.0424 l 1.5699,0.0424 0.0776,0.0825 c 0.0427,0.0455 0.43856,0.47855 0.87951,0.96248 0.44095,0.48391 1.26372,1.38442 1.82832,2.00117 0.56481,0.61675 1.77984,1.9403 2.70043,2.94105 0.92039,1.00076 2.1663,2.35157 2.76859,3.0018 0.60207,0.65024 1.4131,1.52368 1.8021,1.94116 0.38904,0.41749 0.99096,1.06185 1.33735,1.43191 0.34658,0.37005 0.88244,0.94054 1.19089,1.26779 0.30863,0.32725 0.87884,0.92886 1.26712,1.33701 0.38835,0.40798 1.02596,1.07185 1.4167,1.47519 0.39093,0.40318 0.8419,0.86157 1.00196,1.01816 0.16009,0.15682 0.35642,0.33486 0.43629,0.39558 0.0799,0.0608 0.20978,0.15096 0.28862,0.20029 0.0787,0.0496 0.2153,0.12508 0.30329,0.16786 0.088,0.0428 0.24083,0.10593 0.33984,0.14043 0.099,0.0344 0.27362,0.0821 0.38817,0.1061 0.14837,0.0309 0.28759,0.0461 0.48426,0.0531 0.20512,0.007 0.33141,0.003 0.49167,-0.0186 0.11869,-0.0157 0.28949,-0.0471 0.37954,-0.07 0.0902,-0.0228 0.21047,-0.0568 0.2674,-0.0752 0.0569,-0.0185 0.16562,-0.0585 0.24153,-0.0887 0.0759,-0.0303 0.21961,-0.0968 0.31915,-0.14785 0.0997,-0.0509 0.26654,-0.14818 0.37091,-0.21599 0.10437,-0.0678 0.25964,-0.17959 0.34504,-0.24825 0.0854,-0.0685 0.21634,-0.18201 0.29104,-0.25187 0.0747,-0.0699 0.21305,-0.21668 0.30725,-0.32605 0.0944,-0.10955 0.24083,-0.30259 0.32554,-0.42921 0.0847,-0.12663 0.2041,-0.33228 0.26517,-0.45717 0.0611,-0.12491 0.13508,-0.29587 0.16423,-0.37988 0.0291,-0.084 0.0719,-0.22755 0.0947,-0.31916 0.0229,-0.0914 0.0512,-0.22841 0.0628,-0.30432 0.0116,-0.0759 0.0209,-0.24669 0.0205,-0.37953 -3e-4,-0.1475 -0.0117,-0.30536 -0.0295,-0.40542 -0.0161,-0.0902 -0.0533,-0.23703 -0.0828,-0.32642 -0.0296,-0.0895 -0.0866,-0.22703 -0.1268,-0.30587 -0.0402,-0.0787 -0.11007,-0.1996 -0.15527,-0.26878 -0.0658,-0.1006 -4.89314,-4.93749 -24.33066,-24.37735 l -24.24931,-24.25064 -0.2172,-0.11046 c -0.11937,-0.0609 -0.30172,-0.14509 -0.40541,-0.18718 -0.10368,-0.0419 -0.26205,-0.1004 -0.3523,-0.1299 -0.0901,-0.0294 -0.23082,-0.0692 -0.3126,-0.0883 -0.0818,-0.0193 -0.22927,-0.0465 -0.32778,-0.0606 -0.0985,-0.0139 -0.26827,-0.0248 -0.37746,-0.0239 z m 13.89895,32.69431 c -0.011,-0.003 -3.43269,3.40934 -7.60338,7.58203 -4.6778,4.68 -7.62605,7.64206 -7.69407,7.73009 -0.0611,0.079 -0.15613,0.21099 -0.21116,0.29327 -0.0552,0.0823 -0.1532,0.25585 -0.21789,0.3856 -0.0647,0.12973 -0.1494,0.3333 -0.18822,0.45232 -0.039,0.11904 -0.0861,0.29242 -0.10489,0.38525 -0.0188,0.0926 -0.0423,0.23428 -0.0521,0.31466 -0.01,0.0804 -0.0181,0.26447 -0.0181,0.40886 0,0.14457 0.0119,0.35385 0.0265,0.46511 0.0145,0.11128 0.0421,0.27206 0.0611,0.35729 0.0189,0.0852 0.0657,0.25084 0.10385,0.36834 0.0381,0.11731 0.10662,0.29673 0.15181,0.39853 0.0453,0.10178 0.1199,0.25084 0.16545,0.33156 0.0455,0.0806 0.12611,0.21237 0.17907,0.29311 0.053,0.0806 0.15579,0.2203 0.22859,0.31053 0.0726,0.0901 0.19735,0.23031 0.27723,0.31156 0.0799,0.0812 0.21685,0.20753 0.30449,0.28033 0.0876,0.073 0.22772,0.17856 0.31121,0.2348 0.0837,0.0562 0.21617,0.13767 0.29466,0.18114 0.0783,0.0433 0.20495,0.10696 0.28138,0.14146 0.0763,0.0345 0.2172,0.0894 0.31295,0.12197 0.0958,0.0326 0.23773,0.0742 0.31553,0.0923 0.0778,0.0183 0.23151,0.0449 0.34159,0.0594 0.11006,0.0145 0.30259,0.026 0.42785,0.0259 0.12524,-1.7e-4 0.31034,-0.0114 0.41128,-0.0249 0.10092,-0.0133 0.25222,-0.0407 0.33641,-0.0606 0.084,-0.02 0.1996,-0.0507 0.2567,-0.0683 0.0571,-0.0178 0.17562,-0.0599 0.26343,-0.0937 0.0876,-0.034 0.24308,-0.10438 0.34523,-0.15665 0.10213,-0.0523 0.27861,-0.15595 0.39213,-0.23048 0.11369,-0.0744 0.2881,-0.1996 0.38764,-0.27845 0.12938,-0.10212 2.3407,-2.30208 7.75009,-7.71007 4.16308,-4.16215 7.56736,-7.57203 7.5647,-7.57804 -0.003,-0.006 -1.21417,-1.20523 -2.69283,-2.66541 -1.47866,-1.46019 -2.69749,-2.65695 -2.7085,-2.65955 z"
         stroke="null" />
    </g>
  </g>
</svg>
