<?xml version="1.0" encoding="UTF-8" standalone="no"?>
<svg
   xmlns:dc="http://purl.org/dc/elements/1.1/"
   xmlns:cc="http://creativecommons.org/ns#"
   xmlns:rdf="http://www.w3.org/1999/02/22-rdf-syntax-ns#"
   xmlns:svg="http://www.w3.org/2000/svg"
   xmlns="http://www.w3.org/2000/svg"
   id="svg32"
   version="1.1"
   height="350"
   width="600">
  <metadata
     id="metadata38">
    <rdf:RDF>
      <cc:Work
         rdf:about="">
        <dc:format>image/svg+xml</dc:format>
        <dc:type
           rdf:resource="http://purl.org/dc/dcmitype/StillImage" />
      </cc:Work>
    </rdf:RDF>
  </metadata>
  <defs
     id="defs36" />
  <g
     id="g5">
    <title
       id="title2">background</title>
    <path
       id="canvas_background"
       d="M -1,-1 H 601 V 351 H -1 Z"
       style="fill:none" />
  </g>
  <g
     id="g30">
    <title
       id="title7">Layer 1</title>
    <g
       id="logo-group"
       transform="matrix(1.3643115,0,0,1.3643115,-402.50092,-351.42099)"
       stroke="null">
      <path
         style="fill:#afc5be;stroke-width:0;stroke-miterlimit:2"
         id="path810264"
         d="m 369.31652,500.13 q 0.71744,0.3776 1.5859,0.26432 0.90624,-0.15104 1.5482,-0.60416 0.64192,-0.49088 2.5677,-2.7187 1.9635,-2.2278 2.7187,-3.5117 0.7552,-1.3216 1.5104,-4.1158 0.79296,-2.832 0.83072,-3.2474 0.0378,-0.41536 0,-3.0586 -0.0755,-1.8125 -0.64192,-2.4544 -1.2461,-1.3216 -2.8698,-0.79296 -1.095,0.45312 -3.2096,2.9075 -2.1146,2.45438 -2.0768,3.1718 0,0.30208 -0.1888,0.5664 -0.98176,1.0573 -2.0013,4.4557 -1.2838,4.3802 -1.1328,6.9478 0.0378,1.5104 1.3594,2.1901 z m 6.3059,-23.071 q 1.7747,-1.0573 2.4544,-0.79296 4.6445,1.0195 5.5507,5.8906 0.64192,3.0963 0.11328,5.6262 -0.49088,2.5299 -2.9075,6.4947 -2.9453,5.815 -6.9101,8.1184 -3.927,2.3411 -6.3814,0.49088 -2.983,-2.1901 -3.0963,-3.625 -0.22656,-2.0768 0.52864,-5.8528 0.22656,-0.22656 0.1888,-0.5664 -0.0378,-0.3776 0.0755,-0.7552 0.11328,-0.3776 0.33984,-1.095 0.22656,-0.7552 0.3776,-1.5104 1.6992,-5.1354 4.1914,-8.4205 2.5677,-2.6432 5.4752,-4.0026 z"
         stroke-miterlimit="2"
         stroke="null" />
      <path
         style="fill:#afc5be;stroke-width:0;stroke-miterlimit:2"
         id="path810266"
         d="m 392.87652,494.2 q 0.0755,-0.15104 0.22656,-0.5664 0.15104,-0.45312 0.26432,-0.67968 0.15104,-0.22656 0.15104,-1.1328 0.0378,-0.944 -0.26432,-1.1328 -0.41536,-0.1888 -0.67968,-0.11328 -0.26432,0.0755 -0.86848,0.49088 -2.8698,2.4166 -3.4362,5.1731 -0.11328,0.944 0.1888,1.4349 0.33984,0.45312 1.095,0.22656 0.7552,-0.22656 1.3594,-0.79296 0.60416,-0.60416 0.79296,-0.79296 0.1888,-0.1888 0.30208,-0.33984 0.15104,-0.15104 0.26432,-0.41536 0.15104,-0.30208 0.22656,-0.41536 0.0755,-0.15104 0.1888,-0.49088 0.15104,-0.33984 0.1888,-0.45312 z m -4.2669,-4.9466 q 1.888,-1.6237 3.3984,-1.9635 2.2656,-0.52864 3.1718,0.41536 1.4726,0.64192 1.6992,2.681 0.30208,3.1341 -2.0768,6.5702 -1.3971,2.039 -3.8515,3.5117 -0.98176,0.67968 -3.4739,0.83072 -0.64192,0 -1.4726,-0.71744 -1.6992,-1.7747 -1.4726,-3.1341 l 0.0755,-0.86848 q -0.1888,-0.1888 -0.11328,-0.30208 0.11328,-0.11328 0.15104,-0.15104 0.22656,0 0.15104,-0.33984 -0.0755,-0.3776 0.26432,-1.3971 0.33984,-1.0195 0.86848,-1.888 1.2838,-2.1146 2.681,-3.2474 z"
         stroke-miterlimit="2"
         stroke="null" />
      <path
         style="fill:#afc5be;stroke-width:0;stroke-miterlimit:2"
         id="path810268"
         d="m 403.08652,497.14 q 0.52864,0 1.9635,-0.5664 1.4726,-0.60416 2.0768,-1.1328 0.64192,-0.52864 0.98176,-0.86848 0.33984,-0.3776 0.60416,-0.83072 0.5664,-0.86848 -0.0755,-1.888 -1.095,-1.3216 -4.0403,1.5104 -1.2083,1.2838 -1.5482,2.5299 -0.33984,1.2461 0.0378,1.2461 z m -4.8333,4.6445 0.26432,-1.3594 q 0.1888,-1.0195 1.4726,-4.8333 1.2838,-3.8138 2.1901,-6.1549 1.0573,-2.4544 1.0573,-3.2474 0,-0.1888 0.41536,-0.64192 0.41536,-0.33984 0.98176,-0.26432 0.60416,0.0378 1.0573,0.3776 0.60416,0.98176 0.41536,2.1146 0,0.7552 -0.83072,1.9635 -0.0755,0.11328 -0.0378,0.0755 2.2278,-1.3216 3.8138,-1.095 1.6237,0.22656 2.4922,1.3594 0.86848,1.095 0.86848,2.6054 0,0.64192 -0.60416,1.9258 -0.60416,1.2461 -0.98176,1.5859 -0.22656,0 -0.60416,0.79296 -0.45312,0.60416 -1.737,1.2838 -1.2461,0.64192 -1.6992,0.49088 -0.1888,0.11328 -0.1888,0.33984 0,0.26432 -1.2838,0.60416 -1.2461,0.30208 -1.9258,0.30208 -0.67968,0 -1.0195,-0.30208 -0.26432,0.26432 -0.26432,0.5664 0,0.30208 -0.3776,1.1328 -0.3776,0.79296 -0.60416,0.79296 -0.22656,0.1888 0,0.41536 0,0.79296 -0.22656,1.1706 0,0.98176 -0.3776,1.8125 0,0.45312 -0.15104,0.86848 -0.11328,0.45312 -0.26432,0.45312 -0.22656,0.0755 -0.26432,1.0195 0,0.98176 -0.5664,1.6992 -0.52864,0.71744 -1.0195,0.71744 -0.71744,0.0755 -0.90624,-0.30208 -0.79296,-1.1328 -0.5664,-2.2656 0.41536,-1.5859 0.41536,-2.1901 l 0.1888,-1.2083 q 0.41536,-0.67968 0.41536,-1.7747 0,-0.45312 0.45312,-0.83072 z"
         stroke-miterlimit="2"
         stroke="null" />
      <path
         style="fill:#afc5be;stroke-width:0;stroke-miterlimit:2"
         id="path810270"
         d="m 422.87652,485.85 q 0.5664,-0.26432 1.4726,-0.26432 0.90624,0 1.1706,0.15104 0.22656,-0.0755 0.30208,-0.0755 0.45312,0 1.1706,0.7552 0.71744,0.7552 0.90624,1.2083 0,2.7565 -0.45312,2.7565 -0.1888,0 -0.1888,0.22656 0,0.52864 -0.944,1.1706 -0.90624,0.64192 -1.6614,0.64192 -0.41536,-0.11328 -0.83072,-0.49088 -0.41536,-0.41536 -0.41536,-0.83072 0,-0.0378 0.7552,-0.944 0.79296,-0.90624 0.79296,-1.6237 0,-0.30208 -0.64192,-0.30208 -2.0768,0.944 -2.983,1.7747 -0.22656,0.45312 -0.45312,0.45312 0,-0.0378 -0.0755,-0.0378 -0.0378,0 -0.41536,0.3776 -0.3776,0.3776 -0.79296,1.0195 -0.3776,0.60416 -0.45312,1.095 l -0.0755,0.11328 v 0.1888 q -0.0378,0.0755 -0.0378,0.30208 0,0.60416 1.5859,1.8125 1.6237,1.1706 2.2278,1.8125 0.64192,0.60416 0.79296,1.095 0.33984,0.67968 0.33984,1.2083 0,1.2838 -1.3594,2.0013 -1.3216,0.67968 -3.1718,0.67968 -1.8502,0 -3.2096,-0.79296 -1.3594,-0.79296 -1.3971,-1.3594 0,-0.60416 0.41536,-0.71744 0.3776,-0.30208 1.0573,-0.15104 0.79296,0.15104 1.9635,0.30208 0.7552,0 1.3971,-0.15104 0.67968,-0.15104 0.67968,-0.30208 0,-0.15104 -0.30208,-0.41536 -0.30208,-0.26432 -0.64192,-0.26432 0,-0.15104 -1.5104,-1.2461 -1.4726,-1.1328 -1.4726,-1.4726 0,-0.0378 0.0378,-0.0755 v -0.1888 q -0.26432,0 -0.49088,-0.71744 -0.22656,-0.71744 -0.22656,-1.3971 0,-1.9635 2.3411,-4.2669 2.3789,-2.3411 4.7955,-3.0586 z"
         stroke-miterlimit="2"
         stroke="null" />
      <path
         style="fill:#afc5be;stroke-width:0;stroke-miterlimit:2"
         id="path810272"
         d="m 429.67652,498.09 q 0.71744,-0.49088 1.095,-0.49088 0.3776,-0.0378 1.095,0.26432 1.2838,0.79296 1.1328,1.7747 -0.15104,0.944 -1.6614,1.6992 -1.4726,0.5664 -2.4922,-0.22656 -1.5104,-1.4726 0.83072,-3.0208 z m 4.7955,-14.047 0.49088,-1.3216 q 0.67968,-1.1328 1.9635,-4.2669 1.28382,-3.1341 1.3216,-3.5494 0.0755,-0.45312 0.22656,-0.64192 0.15104,-0.22656 0.45312,-0.1888 0.1888,-0.15104 0.90624,-0.15104 0.60416,0.1888 0.944,0.60416 0.3776,0.3776 0.3776,1.1328 0,0.71744 -0.11328,1.0195 -0.0755,0.30208 -0.15104,0.52864 -0.0755,0.1888 -0.30208,0.60416 -0.1888,0.3776 -0.26432,0.5664 -0.1888,0.3776 -0.79296,1.3971 -1.095,2.1146 -1.095,2.1901 0,0.0378 -0.49088,1.1706 -0.30208,0.49088 -0.64192,1.3594 -0.30208,0.86848 -0.30208,1.0573 -0.1888,0.49088 -0.30208,0.60416 -0.1888,0 -0.1888,0.30208 v 0.11328 q 0,0.52864 -0.71744,2.0013 -1.2838,3.6627 -1.3971,5.0598 -0.11328,1.3971 -1.0573,1.8502 -1.1706,0.22656 -1.6614,-0.86848 -0.49088,-1.1328 0.0755,-3.8138 0.52864,-1.0573 0.52864,-1.5859 0.45312,-1.6237 1.2838,-3.1718 0.15104,0 0.30208,-0.26432 0.1888,-0.26432 0.1888,-0.83072 0,-0.5664 0.41536,-0.90624 z"
         stroke-miterlimit="2"
         stroke="null" />
      <path
         style="fill:#afc5be;stroke-width:0;stroke-miterlimit:2"
         id="path810274"
         d="m 453.92652,490.16 -0.0378,0.7552 q 0,0.0755 0.0755,0.22656 0.0755,0.15104 0.98176,0 2.3411,-0.3776 5.0221,-2.039 0.83072,-0.5664 1.9635,-2.0013 2.1146,-3.5117 1.737,-5.0598 -0.3776,-1.9635 -2.1901,-2.6054 -1.6614,-0.26432 -2.5677,-0.11328 -0.60416,0.1888 -0.86848,0.52864 -0.22656,0.30208 -0.67968,1.4349 -1.2083,2.3034 -1.5859,3.3229 -0.83072,2.9075 -1.3594,4.2291 -0.49088,1.2838 -0.49088,1.3216 z m -5.0976,4.4179 0.1888,-1.2461 q 0.45312,0 0.83072,-1.5482 0.0755,-0.33984 0.1888,-0.71744 0.22656,-0.7552 0.26432,-0.90624 0.30208,-0.98176 1.0195,-2.4544 1.1328,-4.1914 2.1146,-6.3437 0.15104,-0.3776 0.30208,-0.79296 0.1888,-0.41536 0.26432,-0.60416 0.0755,-0.22656 0.15104,-0.41536 0.0755,-0.30208 -0.0755,-0.45312 -0.33984,-0.15104 -0.26432,-0.944 0.11328,-0.83072 0.71744,-1.3594 0.944,-1.095 4.2669,-0.83072 0.45312,0.0378 2.4166,0.0378 0.22656,0.11328 0.79296,0.33984 1.3216,0.49088 1.3216,0.64192 0,0.30208 0.45312,0.33984 0.49088,0.0378 1.5482,1.0573 2.4544,2.3034 2.039,4.72 -0.15104,1.5104 -0.45312,1.888 -0.60416,0.45312 -0.60416,0.83072 0,0.33984 -1.095,2.0768 -1.888,3.0208 -4.2669,4.5312 -1.5859,0.71744 -3.5872,1.2461 -1.9635,0.52864 -2.983,0.49088 -0.0755,0 -0.83072,0.11328 -0.71744,0.11328 -0.90624,0.41536 -0.71744,1.6992 -0.71744,2.1901 -0.22656,0.41536 -0.944,2.5299 -0.67968,2.1146 -0.944,3.2474 -0.15104,0.49088 -0.60416,0.7552 -0.45312,0.30208 -0.86848,0.30208 -0.41536,0 -0.71744,-0.49088 -0.3776,-0.33984 -0.5664,-0.71744 -0.15104,-0.33984 -0.0755,-1.6237 0.11328,-1.2838 0.79296,-3.2474 0.1888,-0.79296 0.41536,-1.5104 0.41536,-1.3216 0.41536,-1.5482 z"
         stroke-miterlimit="2"
         stroke="null" />
      <path
         style="fill:#afc5be;stroke-width:0;stroke-miterlimit:2"
         id="path810276"
         d="m 474.04652,489.86 q -1.3971,0 -4.6067,5.3997 -0.5664,0.90624 -1.0195,2.3789 0.60416,0.0755 2.3411,-1.3594 0.33984,-0.30208 0.90624,-0.79296 0.60416,-0.49088 0.86848,-0.71744 0.26432,-0.22656 0.67968,-0.60416 0.71744,-0.71744 1.2838,-1.5482 l 0.83072,-1.3594 q -0.64192,-1.3971 -1.2838,-1.3971 z m -8.8736,9.8554 q 0,-0.33984 -0.49088,-0.944 -0.5664,-0.5664 2.3411,-5.8906 0.22656,-0.22656 0.5664,-0.79296 0.3776,-0.5664 0.49088,-0.64192 0,-0.15104 0.11328,-0.26432 0.11328,-0.15104 0.26432,-0.15104 l 0.30208,-0.60416 q 0.15104,-0.33984 1.4726,-1.6237 1.3216,-1.2838 2.1146,-1.7747 0.79296,-0.49088 1.6237,-0.45312 0.83072,0.0378 1.4349,0.52864 0.0755,0.11328 0.49088,0.41536 0.71744,0.5664 3.2096,2.7942 l -0.64192,1.888 q -0.86848,2.4922 0.45312,4.6067 0.3776,0.79296 1.2838,0.944 0.90624,0.15104 0.90624,0.83072 0,1.5482 -1.0195,1.7747 -2.9453,0.41536 -4.4179,-2.4166 -0.52864,-0.71744 -0.67968,-1.6614 -0.26432,0.3776 -0.86848,0.98176 -5.1354,5.2109 -7.7786,3.5117 -0.11328,-0.22656 -0.64192,-0.60416 -0.52864,-0.3776 -0.52864,-0.45312 z"
         stroke-miterlimit="2"
         stroke="null" />
      <path
         style="fill:#afc5be;stroke-width:0;stroke-miterlimit:2"
         id="path810278"
         d="m 491.51652,490.53 q -0.0378,-1.095 -1.1706,-0.90624 -1.095,0.1888 -2.5677,2.039 -0.5664,0.7552 -0.944,1.8125 -0.79296,2.3034 0.11328,2.6432 1.2083,-0.0378 1.888,-0.41536 0.67968,-0.3776 1.5859,-1.8125 1.2461,-1.737 1.095,-3.3606 z m -2.6432,-3.5117 q 1.3971,-0.67968 2.4922,-0.3776 0.90624,0.11328 2.0768,1.1328 1.8125,1.8125 2.1146,2.5677 0.52864,1.1706 -0.41536,2.3789 -0.49088,0.49088 -0.86848,1.2083 -0.33984,0.71744 -0.45312,1.3594 -0.11328,0.64192 -0.71744,2.4922 -0.67968,1.9635 -1.3971,4.7955 -0.83072,2.8698 -1.9258,4.4179 -1.095,1.5859 -2.039,2.1146 -1.0195,0.41536 -2.1901,-0.11328 -1.1706,-0.52864 -2.0013,-1.737 -0.41536,-0.5664 -1.0573,-2.1523 -0.64192,-1.5482 -0.41536,-1.6614 0.22656,-0.5664 1.2083,-0.52864 1.0195,0.0755 1.1328,0.45312 0.33984,0.98176 0.83072,1.5104 0.3776,0.64192 0.86848,0.86848 0.49088,0.26432 0.79296,0.0755 0.60416,-0.45312 0.90624,-1.095 0.33984,-0.64192 0.90624,-2.3789 1.3216,-4.6067 1.737,-5.2486 -0.22656,0.15104 -0.7552,0.5664 -1.0573,0.86848 -1.737,1.1328 -0.22656,0.30208 -1.1328,0.33984 -1.9258,0.0755 -2.7942,-1.095 -0.33984,-0.49088 -0.67968,-1.2461 -0.60416,-1.5482 0.5664,-4.6445 0.71744,-1.4726 2.2656,-3.1341 1.5482,-1.6614 2.681,-2.0013 z"
         stroke-miterlimit="2"
         stroke="null" />
      <path
         style="fill:#afc5be;stroke-width:0;stroke-miterlimit:2"
         id="path810280"
         d="m 505.61652,489.33 q -0.49088,0 -1.4349,0.83072 -0.90624,0.79296 -1.5859,1.8502 0.0755,0.45312 1.2461,0.45312 1.1706,0 1.4726,-0.15104 0.33984,-0.1888 1.095,-0.944 0.79296,-0.79296 0.83072,-1.095 0,-0.83072 -1.2083,-0.944 z m 0.26432,-2.7565 q 2.2278,0 3.2474,1.095 1.0195,1.0573 1.0195,2.0013 v 0.30208 q 0,0.79296 -1.0573,2.6054 -0.52864,0.944 -1.6237,1.6992 -1.095,0.71744 -2.1901,0.7552 -1.095,0.0378 -2.1146,-0.11328 -0.98176,-0.1888 -1.2083,-0.1888 -0.22656,0 -0.41536,0.26432 -0.26432,0.41536 -0.26432,1.5482 0.11328,1.0573 0.5664,1.4726 0.49088,0.41536 1.1706,0.41536 0.67968,0 1.2838,-0.26432 0.60416,-0.26432 1.3971,-0.944 0.83072,-0.67968 1.2838,-0.67968 0.45312,0 0.90624,0.45312 0.45312,0.45312 0.49088,0.86848 -0.11328,0.86848 -1.7747,2.3034 -1.6237,1.3971 -3.7005,1.3971 -2.0768,0 -3.3984,-1.2083 -1.3216,-1.2083 -1.3216,-3.4362 0,-0.86848 0.0755,-1.8502 0.11328,-0.98176 0.67968,-2.4166 0.5664,-1.4349 1.8125,-3.0963 1.2461,-1.6614 2.681,-2.3034 1.4349,-0.67968 2.4544,-0.67968 z"
         stroke-miterlimit="2"
         stroke="null" />
      <path
         style="fill:#afc5be;stroke-width:0;stroke-miterlimit:2"
         id="path810282"
         d="m 534.97652,499.18 q 1.0195,0 3.7005,-10.837 0.64192,-2.1523 0.98176,-4.9843 1.2083,-4.569 1.2083,-5.0598 v -0.83072 q 0.15104,0 0.30208,-0.49088 0.1888,-0.49088 0.1888,-1.2461 0,-0.7552 0.52864,-1.2838 0.60416,-1.0195 1.6992,-0.67968 1.095,0.33984 1.2461,1.2083 0.15104,0.83072 -1.0195,5.815 0,0.45312 -0.49088,2.5299 -0.45312,2.039 -0.60416,2.9075 -0.3776,2.4544 -0.67968,2.3789 -1.5482,6.6458 -3.9648,12.159 -0.944,2.1523 -2.3411,2.681 -1.3594,0.52864 -2.6054,-0.98176 -1.1328,-1.4726 -1.6614,-2.983 -0.52864,-1.5482 -0.86848,-4.4179 -0.79296,-5.0221 -0.71744,-8.647 0.0755,-3.625 -0.30208,-3.6627 -0.33984,0 -1.0195,1.9258 -0.64192,1.9258 -1.6237,4.3424 -0.944,2.3789 -0.98176,2.5299 -0.67968,1.3594 -1.0195,2.7565 -1.5104,4.0026 -2.1901,6.608 -0.67968,2.5677 -0.944,3.2474 -0.26432,0.71744 -0.5664,0.90624 -0.30208,0.1888 -1.2838,-0.33984 -0.98176,-0.49088 -1.1706,-1.5104 -0.15104,-1.0195 0.22656,-2.0768 0.26432,-1.0195 0.98176,-2.7187 0.71744,-1.737 1.0195,-3.2851 1.2838,-2.983 2.0768,-5.4752 0.0378,-0.1888 1.888,-4.2291 1.4349,-4.0781 3.625,-7.401 0.67968,-1.1328 2.0768,-0.98176 1.39712,0.15104 1.7747,1.2838 0.7552,1.737 0.83072,7.4765 0,1.6237 0.0378,2.3411 0.0378,0.71744 0.11328,1.8502 0.0755,1.8502 0.49088,3.4362 0.0755,0.52864 0.26432,2.1523 0.45312,3.5872 0.79296,3.5872 z"
         stroke-miterlimit="2"
         stroke="null" />
      <path
         style="fill:#afc5be;stroke-width:0;stroke-miterlimit:2"
         id="path810284"
         d="m 552.09652,494.2 q 0.0755,-0.15104 0.22656,-0.5664 0.15104,-0.45312 0.26432,-0.67968 0.15104,-0.22656 0.15104,-1.1328 0.0378,-0.944 -0.26432,-1.1328 -0.41536,-0.1888 -0.67968,-0.11328 -0.26432,0.0755 -0.86848,0.49088 -2.8698,2.4166 -3.4362,5.1731 -0.11328,0.944 0.1888,1.4349 0.33984,0.45312 1.095,0.22656 0.7552,-0.22656 1.3594,-0.79296 0.60416,-0.60416 0.79296,-0.79296 0.1888,-0.1888 0.30208,-0.33984 0.15104,-0.15104 0.26432,-0.41536 0.15104,-0.30208 0.22656,-0.41536 0.0755,-0.15104 0.1888,-0.49088 0.15104,-0.33984 0.1888,-0.45312 z m -4.2669,-4.9466 q 1.888,-1.6237 3.3984,-1.9635 2.2656,-0.52864 3.1718,0.41536 1.4726,0.64192 1.6992,2.681 0.30208,3.1341 -2.0768,6.5702 -1.3971,2.039 -3.8515,3.5117 -0.98176,0.67968 -3.4739,0.83072 -0.64192,0 -1.4726,-0.71744 -1.6992,-1.7747 -1.4726,-3.1341 l 0.0755,-0.86848 q -0.1888,-0.1888 -0.11328,-0.30208 0.11328,-0.11328 0.15104,-0.15104 0.22656,0 0.15104,-0.33984 -0.0755,-0.3776 0.26432,-1.3971 0.33984,-1.0195 0.86848,-1.888 1.2838,-2.1146 2.681,-3.2474 z"
         stroke-miterlimit="2"
         stroke="null" />
      <path
         style="fill:#afc5be;stroke-width:0;stroke-miterlimit:2"
         id="path810286"
         d="m 560.04652,488.04 q -0.26432,-0.0378 -0.45312,-0.26432 -0.15104,-0.22656 -0.15104,-0.45312 0,-0.26432 0.30208,-0.83072 0.33984,-0.5664 0.5664,-0.52864 0.26432,0 1.1328,0 0.90624,-0.0378 1.2083,-0.15104 0.30208,-0.11328 0.45312,-0.49088 0.15104,-0.41536 0.7552,-1.3971 1.3216,-2.5677 1.8502,-2.983 0.52864,-0.41536 1.2083,-0.49088 0.71744,-0.0755 1.3594,0.33984 0.5664,0.79296 0.0378,1.5859 -0.22656,0.45312 -0.71744,1.1706 -0.49088,0.71744 -0.71744,1.1328 -0.64192,0.90624 -0.1888,0.98176 0.45312,0.0755 2.2278,-0.1888 1.7747,-0.30208 2.0013,1.2838 0.11328,0.90624 -0.1888,1.095 -0.30208,0.1888 -1.737,0.1888 -1.2083,0.1888 -2.3034,0.22656 -1.0573,0 -1.2838,0.0755 -0.45312,0.11328 -0.71744,0.71744 -0.11328,0.0755 -0.26432,0.41536 -0.22656,0.45312 -0.944,1.7747 -0.98176,2.8698 -1.5104,5.9283 -0.11328,0.7552 0.0755,1.0573 0.1888,0.30208 1.2083,0.41536 1.8125,0.1888 3.9648,-1.095 l 1.0195,-0.60416 q 0.26432,-0.45312 0.83072,0.49088 0.15104,0.22656 0.22656,0.45312 0,1.4726 -1.5859,2.3789 -1.5482,0.98176 -3.2474,1.2838 -1.6992,0.26432 -2.5677,0.0755 -0.86848,-0.15104 -1.6237,-0.98176 -0.7552,-0.86848 -0.944,-1.4726 l -0.1888,-0.30208 q -0.22656,-0.1888 -0.15104,-1.9258 0.0755,-1.7747 0.26432,-2.4922 0.22656,-0.90624 1.2838,-3.8138 l 1.0195,-2.1901 z"
         stroke-miterlimit="2"
         stroke="null" />
      <path
         style="fill:#afc5be;stroke-width:0;stroke-miterlimit:2"
         id="path810288"
         d="m 600.84652,476.9 q 1.5482,0.26432 1.6614,0.41536 0.22656,0.22656 0.15104,0.45312 l 0.26432,0.1888 q 0.60416,0.33984 0.15104,1.6614 -0.0378,0.33984 -0.3776,0.41536 -0.30208,0.0378 -1.6992,0 -2.5299,-0.33984 -6.457,0.1888 -1.9258,0.15104 -2.3034,0.60416 -0.64192,0.7552 -1.9258,3.927 -1.2461,3.1341 -1.3216,3.2474 1.2083,0.33984 6.6835,-0.15104 1.4726,-0.30208 2.0013,-0.22656 0.67968,0.0755 0.79296,1.1328 0.15104,1.0573 -0.60416,1.5104 -0.71744,0.41536 -2.5677,0.60416 -1.8502,0.1888 -4.0026,0.22656 -2.1523,0.0378 -3.0586,-0.0755 -0.33984,0.26432 -0.33984,0.67968 -0.67968,1.2461 -1.9258,4.4179 -1.2083,3.1718 -1.2083,3.8515 -0.30208,0.7552 -0.45312,1.5104 -0.11328,0.71744 -0.22656,0.79296 -0.11328,0.52864 -0.71744,0.5664 -0.60416,0.0378 -0.86848,-0.33984 -1.737,-0.79296 -1.1706,-2.5677 0.30208,-1.3594 1.095,-3.8893 0.83072,-2.5299 1.2838,-3.4362 0.49088,-0.944 0.71744,-1.7747 0.22656,-0.83072 0.30208,-0.98176 -0.0755,-0.41536 -0.0378,-0.52864 0.0755,-0.15104 0.33984,-0.49088 0.52864,-0.45312 1.1328,-1.7747 l 1.888,-5.3997 q 0.33984,-1.2083 0.1888,-1.2083 -0.0378,0 -1.1328,0.15104 -1.0573,0.11328 -1.095,0.11328 -0.98176,0.15104 -0.98176,-0.52864 0.11328,-0.67968 0.45312,-1.2838 0.3776,-0.60416 0.90624,-0.64192 l 1.4726,-0.33984 q 1.0573,-0.22656 2.039,0.0378 0.45312,-0.30208 0.49088,-0.52864 0.30208,-1.1328 1.3594,-1.3594 1.095,-0.22656 1.3971,0.5664 0.11328,0.30208 0.0755,0.64192 -0.0378,0.30208 0.15104,0.30208 0.41536,0 2.2656,-0.41536 2.7187,-0.22656 3.3606,-0.0378 0.33984,-0.0755 0.79296,-0.11328 0.90624,-0.0378 1.0573,-0.11328 z"
         stroke-miterlimit="2"
         stroke="null" />
      <path
         style="fill:#afc5be;stroke-width:0;stroke-miterlimit:2"
         id="path810290"
         d="m 608.07652,494.2 q 0.0755,-0.15104 0.22656,-0.5664 0.15104,-0.45312 0.26432,-0.67968 0.15104,-0.22656 0.15104,-1.1328 0.0378,-0.944 -0.26432,-1.1328 -0.41536,-0.1888 -0.67968,-0.11328 -0.26432,0.0755 -0.86848,0.49088 -2.8698,2.4166 -3.4362,5.1731 -0.11328,0.944 0.1888,1.4349 0.33984,0.45312 1.095,0.22656 0.7552,-0.22656 1.3594,-0.79296 0.60416,-0.60416 0.79296,-0.79296 0.1888,-0.1888 0.30208,-0.33984 0.15104,-0.15104 0.26432,-0.41536 0.15104,-0.30208 0.22656,-0.41536 0.0755,-0.15104 0.1888,-0.49088 0.15104,-0.33984 0.1888,-0.45312 z m -4.2669,-4.9466 q 1.888,-1.6237 3.3984,-1.9635 2.2656,-0.52864 3.1718,0.41536 1.4726,0.64192 1.6992,2.681 0.30208,3.1341 -2.0768,6.5702 -1.3971,2.039 -3.8515,3.5117 -0.98176,0.67968 -3.4739,0.83072 -0.64192,0 -1.4726,-0.71744 -1.6992,-1.7747 -1.4726,-3.1341 l 0.0755,-0.86848 q -0.1888,-0.1888 -0.11328,-0.30208 0.11328,-0.11328 0.15104,-0.15104 0.22656,0 0.15104,-0.33984 -0.0755,-0.3776 0.26432,-1.3971 0.33984,-1.0195 0.86848,-1.888 1.2838,-2.1146 2.681,-3.2474 z"
         stroke-miterlimit="2"
         stroke="null" />
      <path
         style="fill:#afc5be;stroke-width:0;stroke-miterlimit:2"
         id="path810292"
         d="m 622.33652,498.2 v -0.5664 q -0.3776,0.944 -0.83072,1.2838 -0.86848,0.86848 -1.737,1.2838 -2.4922,1.5859 -3.8893,-0.22656 -1.5104,-1.2461 -1.1328,-3.0586 0.11328,-2.6432 1.6237,-5.9661 1.6614,-3.3229 1.737,-3.4362 0.60416,-0.22656 1.3971,0.0378 0.83072,0.22656 0.90624,0.71744 0.22656,0.3776 -0.0378,1.4726 -0.22656,1.0573 -0.86848,2.3034 -1.5104,3.7005 -1.5859,4.569 -0.0378,0.83072 0.45312,0.98176 0.41536,0.26432 0.98176,0.0378 0.60416,-0.22656 1.5859,-1.4726 0.98176,-1.2838 1.6992,-3.0586 0.7552,-1.7747 0.86848,-3.1341 -0.0755,-0.41536 0.22656,-0.90624 0.30208,-0.49088 0.79296,-0.79296 0.15104,-0.22656 0.3776,-0.33984 0.26432,-0.15104 0.3776,0 l 0.60416,-0.0378 q 0.0755,0 0.33984,0.3776 0.26432,0.33984 0.3776,0.41536 1.0573,0.90624 -0.52864,4.6445 -2.1523,4.5312 -0.45312,6.0038 0.60416,0.41536 0.49088,1.9635 -0.15104,0.52864 -1.1328,0.5664 -0.944,0.0378 -1.5104,-0.3776 -0.52864,-0.49088 -1.0573,-2.5677 -0.0755,-0.22656 -0.0755,-0.71744 z"
         stroke-miterlimit="2"
         stroke="null" />
      <path
         style="fill:#afc5be;stroke-width:0;stroke-miterlimit:2"
         id="path810294"
         d="m 640.21652,497.97 0.1888,-2.5677 v -0.60416 q -0.11328,-0.7552 -0.49088,-0.7552 -0.67968,0 -2.5299,1.3216 -3.3229,2.3789 -4.9843,4.5312 -0.33984,0.3776 -0.5664,0.45312 -0.1888,0.0378 -0.60416,0 -0.3776,-0.0378 -1.0573,-0.7552 -0.67968,-0.71744 -0.90624,-1.2838 0,-1.5104 1.5104,-4.4557 0.1888,-0.60416 1.0195,-2.6054 0.86848,-2.039 0.98176,-3.1341 l -0.0378,-0.0378 q 0,-0.3776 0.3776,-0.3776 0.0755,-0.11328 0.7552,-0.11328 0.67968,0 1.3971,0.52864 0.71744,0.52864 0.71744,1.4726 0,0.944 -0.98176,2.9075 -0.98176,1.9635 -0.98176,2.039 0.60416,-0.41536 2.3034,-1.737 3.8893,-3.1341 4.7955,-3.1341 0.49088,0 1.3594,0.5664 0.90624,0.52864 1.0573,0.98176 l -0.15104,1.737 0.0755,2.0768 q 0,1.2083 -0.15104,1.6992 l 0.11328,0.22656 q -0.15104,0.15104 0.30208,1.1328 0.45312,0.98176 0.45312,1.2461 0,0.22656 -0.5664,0.7552 -0.52864,0.49088 -1.0195,0.5664 -2.3789,-0.0755 -2.3789,-2.681 z"
         stroke-miterlimit="2"
         stroke="null" />
      <path
         style="fill:#afc5be;stroke-width:0;stroke-miterlimit:2"
         id="path810296"
         d="m 650.98652,497.29 q -0.0755,0.41536 0.26432,0.5664 0.33984,0.11328 1.1328,-0.1888 0.79296,-0.30208 1.888,-1.095 1.095,-0.83072 1.5859,-1.4726 0.52864,-0.64192 0.83072,-1.6237 0.30208,-1.0195 -0.5664,-1.7747 -1.0573,-0.83072 -2.5299,0.52864 -1.9258,1.737 -2.6054,5.0598 z m 8.7226,4.6067 q -0.30208,0.22656 -0.5664,0.26432 -0.22656,0.0755 -0.67968,0.15104 -0.41536,0.0755 -0.86848,-0.26432 -0.45312,-0.33984 -0.67968,-0.79296 -0.33984,-0.90624 -0.41536,-3.7005 l -1.5482,1.3971 q -2.3789,2.2278 -4.4179,2.2278 -0.60416,-0.11328 -1.5482,-1.0195 -0.90624,-0.90624 -1.1706,-1.5482 -0.45312,-1.095 0.33984,-3.5872 0.79296,-2.5299 2.1523,-4.0781 1.2083,-1.8125 3.0963,-2.3411 1.888,-0.5664 3.2851,0.30208 1.2083,0.60416 1.3594,-0.22656 0.0378,-0.15104 1.0195,-3.2474 1.0195,-3.0963 2.7565,-6.7968 0.7552,-1.5859 1.5482,-1.5104 0.49088,0 1.0573,0.33984 0.60416,0.30208 0.83072,0.944 0.26432,0.60416 -0.15104,1.3594 -0.98176,1.6992 -2.4166,5.5507 -1.4349,3.8515 -2.039,6.0416 -0.60416,2.1901 -0.7552,5.3997 -0.11328,3.2096 0.11328,3.7005 0.0755,0.60416 0.0378,0.944 0,0.30208 -0.33984,0.49088 z"
         stroke-miterlimit="2"
         stroke="null" />
      <path
         style="fill:#25c8c1;stroke-width:0;stroke-miterlimit:2"
         id="path810299"
         d="m 376.31652,408.51 h -71.496 l -5.832,-9.936 q 12.312,-23.328 30.672,-62.856 18.36,-39.744 33.264,-74.088 h 5.832 l 18.576,9.936 -57.672,110.81 -8.856,13.392 55.512,-3.024 1.296,-41.904 19.44,-1.512 v 42.12 l 29.592,-1.512 v 18.576 h -29.592 v 34.776 h -20.736 z"
         stroke-miterlimit="2"
         stroke="null" />
      <path
         style="fill:#25c8c1;stroke-width:0;stroke-miterlimit:2"
         id="path810303"
         d="m 680.43652,408.51 h -71.496 l -5.832,-9.936 q 12.312,-23.328 30.672,-62.856 18.36,-39.744 33.264,-74.088 h 5.832 l 18.576,9.936 -57.672,110.81 -8.856,13.392 55.512,-3.024 1.296,-41.904 19.44,-1.512 v 42.12 l 29.592,-1.512 v 18.576 h -29.592 v 34.776 h -20.736 z"
         stroke-miterlimit="2"
         stroke="null" />
      <path
         style="fill:#afc5be;stroke-width:0.89766002"
         id="icon"
         d="m 513.27652,273.64 c -1.64,0.005 -3.1169,0.016 -3.2816,0.0235 -0.16471,0.008 -0.75963,0.0384 -1.3226,0.0679 -0.56248,0.0294 -1.416,0.0873 -1.8966,0.12777 -0.48013,0.0409 -1.3785,0.13027 -1.9964,0.19914 -0.61739,0.0689 -1.5158,0.18217 -1.9964,0.25105 -0.48014,0.0694 -1.3226,0.20213 -1.8716,0.29597 -0.54901,0.0933 -1.4958,0.2715 -2.1042,0.39528 -0.60791,0.12378 -1.4953,0.31643 -1.9714,0.42773 -0.47613,0.1113 -1.1684,0.28149 -1.5392,0.37881 -0.37033,0.0968 -1.1339,0.30845 -1.6969,0.47015 -0.56248,0.16121 -1.4384,0.42574 -1.9465,0.58794 -0.50758,0.16171 -1.4174,0.46916 -2.0214,0.68278 -0.60392,0.21411 -1.6486,0.6079 -2.3208,0.87541 -0.67229,0.26753 -1.672,0.68227 -2.221,0.92181 -0.54901,0.24007 -1.4698,0.66231 -2.0463,0.93878 -0.57646,0.2765 -1.5137,0.74516 -2.0832,1.0416 -0.56898,0.29646 -1.3216,0.69924 -1.672,0.89488 -0.35037,0.19615 -0.92881,0.52556 -1.2857,0.73269 -0.35686,0.20712 -1.0641,0.63485 -1.5722,0.95026 -0.50758,0.31593 -1.3276,0.84348 -1.8217,1.1724 -0.49411,0.3289 -1.2013,0.81254 -1.5722,1.074 -0.37033,0.26203 -1.0331,0.74565 -1.4723,1.075 -0.43921,0.32941 -1.0566,0.80156 -1.3725,1.0496 -0.31543,0.24756 -0.89937,0.71921 -1.2977,1.0476 -0.39778,0.32841 -0.97073,0.81203 -1.2722,1.0746 -0.30195,0.26253 -0.91884,0.81453 -1.3715,1.2263 -0.45268,0.41176 -1.2697,1.1864 -1.8157,1.7219 -0.54651,0.53504 -1.392,1.4 -1.8786,1.9215 -0.48712,0.52156 -1.1624,1.2627 -1.5012,1.647 -0.33839,0.38431 -0.93186,1.0805 -1.3191,1.5472 -0.3868,0.46666 -0.87243,1.0616 -1.0781,1.3226 -0.20613,0.26053 -0.67828,0.87841 -1.0491,1.3725 -0.37033,0.49411 -0.8879,1.2013 -1.1499,1.5722 -0.26152,0.37083 -0.74516,1.0781 -1.074,1.5722 -0.3289,0.49411 -0.85646,1.3136 -1.1724,1.8217 -0.31642,0.50809 -0.78908,1.2942 -1.0506,1.7468 -0.26153,0.45268 -0.67229,1.1828 -0.91283,1.6221 -0.24107,0.43921 -0.74666,1.416 -1.124,2.1711 -0.37781,0.75464 -0.84897,1.7319 -1.0481,2.1711 -0.19864,0.43921 -0.47215,1.0571 -0.6084,1.3725 -0.13575,0.31543 -0.44519,1.068 -0.68676,1.672 -0.24156,0.60391 -0.58545,1.5023 -0.76363,1.9964 -0.17817,0.49411 -0.50409,1.4484 -0.72469,2.1212 -0.2206,0.67228 -0.53603,1.6944 -0.70073,2.2709 -0.1647,0.57647 -0.3898,1.396 -0.5006,1.8217 -0.1108,0.42523 -0.30196,1.2113 -0.42474,1.7468 -0.12278,0.53504 -0.31343,1.4334 -0.42373,1.9964 -0.11031,0.56249 -0.25754,1.3486 -0.32741,1.7468 -0.0699,0.39778 -0.20514,1.2737 -0.30096,1.9465 -0.0958,0.67229 -0.22959,1.7504 -0.29747,2.3957 -0.0679,0.64483 -0.15772,1.6445 -0.20064,2.221 -0.0424,0.57646 -0.0998,1.5757 -0.12727,2.221 -0.0274,0.64483 -0.0504,1.925 -0.0504,2.8449 0,0.9193 0.023,2.1995 0.0504,2.8449 0.0274,0.64484 0.0849,1.6445 0.12727,2.221 0.0429,0.57646 0.13277,1.5757 0.20064,2.221 0.0679,0.64484 0.20163,1.7229 0.29747,2.3957 0.0953,0.67229 0.25404,1.672 0.35136,2.221 0.0978,0.54901 0.26752,1.4359 0.37682,1.9714 0.1093,0.53503 0.29996,1.4 0.42324,1.9215 0.12378,0.52156 0.31443,1.2852 0.42373,1.6969 0.1093,0.41176 0.32292,1.1754 0.47415,1.6969 0.15172,0.52156 0.45718,1.4983 0.67877,2.1711 0.2216,0.67229 0.55451,1.639 0.74017,2.1481 0.18517,0.50908 0.55151,1.4569 0.81404,2.1057 0.26253,0.64933 0.67378,1.625 0.9148,2.1691 0.24057,0.54353 0.82402,1.7638 1.2957,2.7106 0.47215,0.94676 1.1155,2.182 1.4299,2.745 0.31443,0.56298 0.86993,1.5172 1.2337,2.1212 0.36435,0.60391 0.96526,1.5582 1.3356,2.1212 0.36983,0.56299 0.87642,1.3152 1.1255,1.672 0.24904,0.35685 0.74416,1.0416 1.0995,1.5222 0.35536,0.48013 0.88341,1.1764 1.1729,1.5472 0.28998,0.37033 0.90188,1.123 1.3595,1.672 0.45817,0.54901 1.0626,1.2562 1.3436,1.5722 0.28099,0.31543 0.90385,0.9947 1.384,1.5088 0.48014,0.51457 1.3152,1.368 1.8547,1.8966 0.54003,0.52904 1.3661,1.3121 1.8357,1.7404 0.46966,0.42823 1.1873,1.0656 1.5956,1.417 0.40776,0.35087 1.1908,0.99874 1.7398,1.4399 0.54901,0.44071 1.4698,1.1519 2.0463,1.5807 0.57646,0.42822 1.3066,0.95924 1.6221,1.1794 0.31594,0.22061 0.94479,0.64783 1.3975,0.94981 0.45319,0.30146 1.2392,0.80705 1.7469,1.123 0.50808,0.31643 1.2942,0.78908 1.7468,1.0506 0.45318,0.26154 1.1803,0.6708 1.617,0.90987 0.43621,0.23907 1.4139,0.74516 2.1726,1.1245 0.75863,0.37981 1.8372,0.89689 2.3962,1.1489 0.55949,0.25205 1.4684,0.64384 2.0198,0.87093 0.5515,0.22709 1.3885,0.56099 1.8607,0.74216 0.47165,0.18168 1.4934,0.54502 2.2709,0.80854 0.7771,0.26303 1.9071,0.62438 2.5109,0.80306 0.60391,0.17867 1.5188,0.43522 2.0333,0.56947 0.51408,0.13476 1.3117,0.3344 1.7718,0.44371 0.46017,0.1093 1.2747,0.28797 1.8098,0.39727 0.53553,0.10931 1.4224,0.27901 1.9714,0.37682 0.54901,0.0978 1.5487,0.25605 2.221,0.35087 0.67279,0.0953 1.7508,0.22909 2.3957,0.29747 0.64534,0.0679 1.6445,0.15821 2.221,0.20064 0.57646,0.0425 1.5537,0.0998 2.1711,0.12727 0.61789,0.0275 1.9206,0.0499 2.8948,0.0499 0.97478,0 2.2774,-0.0224 2.8948,-0.0499 0.61788,-0.0275 1.5946,-0.0844 2.1711,-0.12628 0.57646,-0.0419 1.4749,-0.12028 1.9964,-0.17468 0.52156,-0.0544 1.4649,-0.1667 2.0962,-0.25055 0.63137,-0.0834 1.6645,-0.23907 2.2959,-0.34588 0.63136,-0.1068 1.5522,-0.2755 2.0463,-0.37582 0.49411,-0.0998 1.3366,-0.28099 1.8716,-0.40277 0.53554,-0.12178 1.4838,-0.35586 2.1082,-0.52057 0.62438,-0.16519 1.5786,-0.43271 2.1212,-0.59492 0.54253,-0.16221 1.4694,-0.45568 2.0593,-0.65183 0.58993,-0.19614 1.6416,-0.56997 2.3368,-0.83 0.69525,-0.26053 1.6905,-0.65233 2.212,-0.87043 0.52156,-0.21861 1.3675,-0.58495 1.8806,-0.81453 0.51258,-0.22909 1.4599,-0.67679 2.1052,-0.99425 0.64534,-0.31743 1.5671,-0.78858 2.0493,-1.0471 0.48213,-0.25853 1.2797,-0.70123 1.7718,-0.98321 0.49261,-0.28199 1.2438,-0.72619 1.669,-0.98724 0.42574,-0.26053 1.3012,-0.82152 1.9465,-1.2472 0.64534,-0.42523 1.4758,-0.98769 1.8467,-1.2497 0.37083,-0.26203 1.067,-0.77011 1.5472,-1.129 0.48063,-0.35836 1.2777,-0.97576 1.7718,-1.3715 0.49411,-0.39578 1.2802,-1.0466 1.7468,-1.4464 0.46666,-0.39928 1.2183,-1.0641 1.67,-1.4763 0.45218,-0.41275 1.2802,-1.1994 1.8407,-1.7484 0.56,-0.54901 1.417,-1.425 1.904,-1.9465 0.48713,-0.52156 1.1624,-1.2627 1.5012,-1.647 0.33839,-0.38431 0.93133,-1.0805 1.3181,-1.5472 0.3868,-0.46666 0.90583,-1.107 1.1534,-1.4224 0.24806,-0.31594 0.68676,-0.8884 0.97477,-1.2727 0.28848,-0.38431 0.75065,-1.0152 1.0271,-1.4025 0.2765,-0.3868 0.77661,-1.114 1.112,-1.6151 0.33489,-0.5016 0.84997,-1.2967 1.1444,-1.7668 0.29447,-0.47065 0.78408,-1.2822 1.0875,-1.8038 0.30395,-0.52156 0.74916,-1.3076 0.98977,-1.7468 0.24056,-0.43921 0.78858,-1.5063 1.2173,-2.3707 0.42873,-0.86494 0.97926,-2.0214 1.2228,-2.5704 0.24357,-0.54901 0.65333,-1.5203 0.91041,-2.1586 0.25753,-0.63785 0.57047,-1.4354 0.69574,-1.7718 0.12528,-0.33639 0.42923,-1.2068 0.67529,-1.934 0.24606,-0.72769 0.59343,-1.8167 0.77211,-2.4206 0.17817,-0.60391 0.42323,-1.4688 0.54351,-1.9215 0.12079,-0.45318 0.32043,-1.2503 0.4442,-1.7718 0.12329,-0.52156 0.31394,-1.3865 0.42324,-1.9215 0.10931,-0.53554 0.279,-1.4224 0.37682,-1.9714 0.0973,-0.54901 0.25604,-1.5487 0.35137,-2.221 0.0958,-0.67279 0.22959,-1.7508 0.29746,-2.3957 0.0679,-0.64534 0.15772,-1.6445 0.20014,-2.221 0.0425,-0.57646 0.0998,-1.5537 0.12727,-2.1711 0.0275,-0.61788 0.0499,-2.3637 0.0505,-3.8805 v -2.72 h -64.829 v -64.833 z m -4.693,22.808 0.18672,-0.008 v 49.511 h 49.522 l -0.0335,0.38681 c -0.0189,0.21262 -0.0778,0.76861 -0.13177,1.2353 -0.0534,0.46666 -0.15422,1.2188 -0.2236,1.672 -0.0698,0.45269 -0.22659,1.3251 -0.34887,1.9385 -0.12228,0.6134 -0.31094,1.4784 -0.41974,1.9215 -0.1088,0.44371 -0.31044,1.2033 -0.44769,1.688 -0.13775,0.48462 -0.39429,1.3156 -0.57048,1.8467 -0.17617,0.53104 -0.46066,1.3355 -0.63185,1.7888 -0.1717,0.45268 -0.47465,1.2053 -0.67379,1.672 -0.19914,0.46665 -0.53653,1.2188 -0.75015,1.6714 -0.21361,0.45269 -0.60042,1.2278 -0.85945,1.7219 -0.25953,0.49461 -0.64085,1.1908 -0.84747,1.5478 -0.20662,0.35685 -0.62088,1.0416 -0.92037,1.5222 -0.29997,0.48014 -0.79408,1.2328 -1.0986,1.672 -0.30445,0.43921 -0.80705,1.1354 -1.1165,1.5472 -0.30994,0.41176 -0.80255,1.0407 -1.0941,1.3975 -0.29197,0.35686 -0.80455,0.96328 -1.139,1.347 -0.33489,0.38431 -1.125,1.2233 -1.7564,1.8652 -0.63136,0.64134 -1.5188,1.4988 -1.972,1.9056 -0.45318,0.40628 -1.0706,0.94434 -1.3725,1.1949 -0.30145,0.25055 -0.87392,0.70922 -1.2722,1.0192 -0.39778,0.30994 -1.0052,0.76561 -1.3496,1.0126 -0.34438,0.24706 -0.96229,0.67379 -1.3725,0.94775 -0.41076,0.27451 -1.1959,0.76961 -1.7449,1.1 -0.54901,0.3304 -1.3126,0.7736 -1.6969,0.9842 -0.38431,0.21112 -1.1479,0.60441 -1.6969,0.87392 -0.54901,0.27002 -1.4359,0.68128 -1.9714,0.91436 -0.53503,0.23259 -1.3661,0.57447 -1.8467,0.75863 -0.48013,0.18467 -1.3336,0.48963 -1.8966,0.67728 -0.56249,0.18767 -1.4234,0.45618 -1.912,0.59643 -0.48912,0.13974 -1.2977,0.35287 -1.7968,0.47265 -0.4996,0.12028 -1.2448,0.28698 -1.6566,0.37083 -0.41176,0.0838 -1.153,0.2186 -1.647,0.30046 -0.49411,0.0813 -1.2577,0.19365 -1.6969,0.24955 -0.43921,0.0559 -1.1803,0.13576 -1.647,0.17718 -0.46666,0.0419 -1.2497,0.0983 -1.7398,0.12627 -0.49012,0.0279 -1.6022,0.0505 -2.4706,0.0505 -0.86843,-5.1e-4 -2.1067,-0.0339 -2.752,-0.0749 -0.64484,-0.0409 -1.3076,-0.0879 -1.4724,-0.10431 -0.1647,-0.016 -0.66979,-0.0729 -1.123,-0.12578 -0.45268,-0.0534 -1.1939,-0.15422 -1.647,-0.22409 -0.45268,-0.0698 -1.1604,-0.19165 -1.5722,-0.27051 -0.41176,-0.0789 -1.0067,-0.20014 -1.3226,-0.26951 -0.31543,-0.0694 -0.84348,-0.19216 -1.1729,-0.27351 -0.32941,-0.0813 -1.0366,-0.27401 -1.5722,-0.42873 -0.53503,-0.15472 -1.2203,-0.36135 -1.5222,-0.45917 -0.30196,-0.0983 -0.96427,-0.32941 -1.4724,-0.51458 -0.50758,-0.18466 -1.2378,-0.46466 -1.6221,-0.62188 -0.38431,-0.15721 -1.1364,-0.48462 -1.672,-0.72768 -0.53503,-0.24257 -1.371,-0.64434 -1.8572,-0.89239 -0.48612,-0.24756 -1.1489,-0.59992 -1.4724,-0.78259 -0.32342,-0.18317 -0.89139,-0.51258 -1.2622,-0.73268 -0.37033,-0.2201 -1.0556,-0.65083 -1.5223,-0.95727 -0.46666,-0.30594 -1.1744,-0.78907 -1.5722,-1.0725 -0.39778,-0.28398 -1.0556,-0.77411 -1.4609,-1.0896 -0.40577,-0.31543 -0.96723,-0.76562 -1.2478,-1.0002 -0.28099,-0.23457 -0.80255,-0.68427 -1.1594,-0.99972 -0.35686,-0.31494 -1.2563,-1.1813 -1.9989,-1.9245 -0.74267,-0.74366 -1.6396,-1.6849 -1.9939,-2.0912 -0.35386,-0.40677 -0.90036,-1.0581 -1.2148,-1.4474 -0.31393,-0.38979 -0.82301,-1.0451 -1.131,-1.4569 -0.30795,-0.41176 -0.81853,-1.1304 -1.1349,-1.5971 -0.31642,-0.46666 -0.73816,-1.107 -0.93734,-1.4224 -0.19913,-0.31593 -0.62087,-1.0232 -0.93734,-1.5722 -0.31642,-0.54901 -0.83649,-1.5148 -1.1549,-2.1461 -0.31892,-0.63136 -0.73418,-1.4963 -0.92235,-1.9215 -0.18866,-0.42574 -0.50958,-1.1894 -0.71371,-1.6969 -0.20413,-0.50809 -0.51657,-1.3371 -0.69425,-1.8427 -0.17768,-0.50559 -0.4457,-1.3226 -0.59543,-1.8153 -0.14973,-0.49262 -0.38331,-1.3256 -0.51906,-1.8506 -0.13626,-0.52505 -0.31543,-1.2692 -0.39829,-1.6535 -0.0833,-0.38431 -0.20613,-0.99075 -0.273,-1.3476 -0.0669,-0.35686 -0.17868,-1.0197 -0.24905,-1.4724 -0.0699,-0.45318 -0.17119,-1.1943 -0.2251,-1.647 -0.0539,-0.45318 -0.12228,-1.1155 -0.15123,-1.4723 -0.0294,-0.35686 -0.0754,-1.0197 -0.10282,-1.4724 -0.0269,-0.45318 -0.0494,-1.5342 -0.0499,-2.4027 0,-0.86844 0.0225,-1.9804 0.0504,-2.4706 0.0279,-0.49011 0.0848,-1.2732 0.12727,-1.7398 0.0424,-0.46666 0.12177,-1.2078 0.17667,-1.647 0.0549,-0.43921 0.1672,-1.2029 0.24856,-1.6969 0.0818,-0.49411 0.21711,-1.2353 0.30096,-1.647 0.0839,-0.41176 0.25054,-1.1569 0.37083,-1.6566 0.11979,-0.4991 0.3329,-1.3076 0.47265,-1.7968 0.14025,-0.48861 0.40876,-1.3495 0.59642,-1.912 0.18767,-0.56299 0.49261,-1.4164 0.67728,-1.8966 0.18416,-0.48063 0.52555,-1.3117 0.75813,-1.8467 0.23258,-0.53554 0.64384,-1.4224 0.91382,-1.9714 0.27051,-0.54901 0.6638,-1.3126 0.87442,-1.6969 0.21062,-0.3843 0.59693,-1.0581 0.85896,-1.4973 0.26152,-0.43921 0.71071,-1.1579 0.99766,-1.5971 0.28698,-0.43921 0.81702,-1.2123 1.1779,-1.718 0.36085,-0.50559 0.9912,-1.3366 1.4,-1.8467 0.40927,-0.51007 1.0471,-1.2757 1.4174,-1.7009 0.37084,-0.42573 1.3051,-1.4035 2.0763,-2.1736 0.77161,-0.76961 1.7169,-1.6725 2.1012,-2.0059 0.38431,-0.3329 0.99075,-0.84448 1.3476,-1.1364 0.35685,-0.29198 1.0306,-0.81753 1.4973,-1.1679 0.46666,-0.35037 1.2302,-0.89589 1.6969,-1.2128 0.46666,-0.31693 1.118,-0.74417 1.4474,-0.94982 0.3294,-0.20513 0.92486,-0.56398 1.3226,-0.79657 0.39829,-0.23308 1.1394,-0.64284 1.647,-0.91086 0.50809,-0.26801 1.3051,-0.6668 1.7718,-0.8864 0.46666,-0.22011 1.2302,-0.56299 1.6969,-0.76263 0.46666,-0.19964 1.2193,-0.50309 1.672,-0.67528 0.45318,-0.17169 1.2573,-0.45518 1.7872,-0.62937 0.53005,-0.17469 1.3162,-0.41975 1.7468,-0.54452 0.43073,-0.12528 1.2323,-0.3369 1.7813,-0.47115 0.54902,-0.13426 1.4025,-0.32391 1.8966,-0.42124 0.49411,-0.0973 1.2407,-0.23308 1.659,-0.30096 0.41824,-0.0679 1.2267,-0.18018 1.7968,-0.24955 0.56997,-0.0694 1.1259,-0.13376 1.2358,-0.14324 0.1098,-0.009 0.28398,-0.021 0.3868,-0.0255 z m -16.807,15.969 c -0.38431,0.003 -0.93429,0.0344 -1.2228,0.0704 -0.28798,0.0359 -0.68326,0.0998 -0.87841,0.14174 -0.19465,0.0424 -0.50909,0.12029 -0.69874,0.17369 -0.18916,0.0534 -0.56249,0.17668 -0.82951,0.274 -0.26651,0.0973 -0.76062,0.31743 -1.098,0.48912 -0.33689,0.17168 -0.82401,0.45518 -1.0826,0.62986 -0.25803,0.17469 -0.62886,0.44819 -0.82402,0.6074 -0.19464,0.15921 -0.553,0.48912 -0.79606,0.73318 -0.24306,0.24356 -0.57796,0.6114 -0.74466,0.81753 -0.16669,0.20562 -0.45767,0.6099 -0.64733,0.89838 -0.18915,0.28798 -0.46716,0.7756 -0.61689,1.0826 -0.14973,0.30745 -0.35885,0.80156 -0.46466,1.098 -0.10581,0.29696 -0.24956,0.7751 -0.31993,1.0636 -0.0704,0.28798 -0.1647,0.79357 -0.21013,1.123 -0.0639,0.46317 -0.0774,0.8365 -0.0584,1.647 0.018,0.77161 0.0524,1.1928 0.12926,1.5971 0.0574,0.30195 0.15822,0.73966 0.2231,0.97324 0.0654,0.23358 0.20313,0.64883 0.30595,0.92334 0.10331,0.2745 0.31293,0.74615 0.46666,1.0481 0.15372,0.30195 0.42973,0.7736 0.61389,1.0481 0.18367,0.2745 0.51357,0.71371 0.73318,0.97621 0.2196,0.26253 0.58544,0.65182 0.81253,0.86543 0.22709,0.21411 0.58345,0.51856 0.79207,0.67728 0.20813,0.15821 0.55201,0.40127 0.76363,0.53953 0.21161,0.13825 0.63186,0.37782 0.93384,0.53204 0.30195,0.15422 0.74865,0.35786 0.99317,0.45219 0.24456,0.0948 0.74516,0.25006 1.1115,0.34588 0.36684,0.0953 0.91383,0.21013 1.2158,0.25454 0.34438,0.0509 0.88341,0.0819 1.4474,0.0829 0.59243,9.8e-4 1.0941,-0.0275 1.4724,-0.0834 0.31593,-0.0464 0.86593,-0.15921 1.2228,-0.25005 0.35686,-0.0913 0.87992,-0.25804 1.1619,-0.37033 0.28199,-0.1123 0.69574,-0.29647 0.9183,-0.40827 0.2231,-0.1123 0.60142,-0.32492 0.84099,-0.47315 0.23957,-0.14823 0.60091,-0.39678 0.80305,-0.553 0.20263,-0.15572 0.52306,-0.42024 0.71221,-0.58744 0.18966,-0.1667 0.52056,-0.5026 0.73668,-0.74616 0.21561,-0.24356 0.51157,-0.60291 0.65781,-0.79856 0.14574,-0.19565 0.39679,-0.56948 0.5575,-0.83001 0.1607,-0.26103 0.3863,-0.67628 0.50159,-0.92334 0.1153,-0.24705 0.29197,-0.66879 0.39179,-0.9368 0.10033,-0.26801 0.24806,-0.76212 0.32941,-1.098 0.0808,-0.3359 0.18167,-0.87542 0.2236,-1.1994 0.0414,-0.32391 0.0759,-0.9034 0.0759,-1.2872 0,-0.38381 -0.024,-0.91634 -0.0534,-1.1828 -0.0294,-0.26652 -0.10881,-0.74815 -0.17619,-1.0706 -0.0679,-0.32242 -0.21311,-0.84997 -0.32291,-1.1729 -0.1098,-0.32292 -0.35486,-0.90134 -0.54402,-1.2857 -0.18916,-0.38431 -0.47465,-0.89339 -0.63436,-1.1315 -0.15971,-0.23807 -0.43022,-0.6099 -0.60091,-0.82651 -0.17069,-0.21661 -0.56348,-0.64035 -0.87343,-0.94183 -0.30944,-0.30145 -0.74915,-0.68926 -0.97621,-0.86145 -0.22709,-0.17219 -0.59792,-0.42773 -0.82351,-0.56798 -0.22801,-0.13913 -0.68223,-0.3842 -1.0117,-0.54308 -0.3294,-0.15921 -0.90287,-0.3898 -1.2747,-0.51208 -0.37183,-0.12228 -0.92235,-0.26852 -1.2228,-0.32492 -0.30096,-0.0569 -0.74916,-0.12577 -0.99623,-0.15322 -0.24705,-0.0269 -0.76362,-0.0474 -1.1479,-0.0444 z m 0.0519,7.484 c 0.25055,-0.002 0.58345,0.0299 0.74865,0.0724 0.16371,0.0414 0.46616,0.15722 0.6718,0.25704 0.28049,0.13625 0.47514,0.28299 0.77809,0.58594 0.30295,0.30295 0.44969,0.4976 0.58594,0.77809 0.0998,0.20563 0.21561,0.50809 0.25704,0.67179 0.0419,0.16371 0.0754,0.48912 0.0754,0.7237 -5e-4,0.23458 -0.0339,0.56648 -0.0744,0.73767 -0.0404,0.17169 -0.14324,0.45518 -0.22859,0.62986 -0.0854,0.17519 -0.25504,0.4457 -0.37682,0.60092 -0.12228,0.15522 -0.36134,0.3863 -0.53204,0.51257 -0.1702,0.12677 -0.44471,0.29147 -0.60941,0.36634 -0.1647,0.0749 -0.42274,0.1657 -0.57396,0.20213 -0.15073,0.0364 -0.47665,0.0654 -0.7237,0.0649 -0.26552,-9.9e-4 -0.58195,-0.0374 -0.77361,-0.0889 -0.17817,-0.0479 -0.48163,-0.16919 -0.67378,-0.26901 -0.22809,-0.11878 -0.48013,-0.31244 -0.72569,-0.55749 -0.29147,-0.29098 -0.42224,-0.47065 -0.58145,-0.79956 -0.11329,-0.23358 -0.23407,-0.54801 -0.26852,-0.69874 -0.0344,-0.15123 -0.0614,-0.46516 -0.0604,-0.69874 9.8e-4,-0.23358 0.0374,-0.56348 0.0814,-0.73368 0.0434,-0.17069 0.14973,-0.45468 0.23608,-0.63186 0.0863,-0.17718 0.24655,-0.43073 0.35586,-0.56348 0.1093,-0.13326 0.31443,-0.33839 0.45568,-0.45617 0.14174,-0.1178 0.41475,-0.29198 0.60691,-0.3863 0.19215,-0.0948 0.47315,-0.20464 0.62387,-0.24406 0.15123,-0.0399 0.47764,-0.0739 0.72569,-0.0754 z m -13.033,17.815 c -0.0329,-5e-4 -0.29247,1.4299 -0.66579,3.6709 -0.33639,2.0198 -0.60391,3.6789 -0.59444,3.6879 0.009,0.008 2.1057,0.36385 4.6586,0.78958 2.5529,0.42573 4.6512,0.76562 4.6626,0.75464 0.011,-0.0109 0.29497,-1.665 0.63086,-3.6758 0.33539,-2.0108 0.60341,-3.6629 0.59543,-3.6714 -0.007,-0.009 -2.0882,-0.36185 -4.6237,-0.78509 -2.5349,-0.42323 -4.6336,-0.77011 -4.6636,-0.7706 z m 12.931,13.702 c -0.60391,-0.01 -1.2552,0.004 -1.4474,0.03 -0.19216,0.0259 -0.58495,0.0938 -0.87343,0.15123 -0.28798,0.0579 -0.82601,0.20363 -1.1953,0.32492 -0.36934,0.12078 -0.96526,0.36333 -1.3242,0.53852 -0.35935,0.17519 -0.88839,0.47614 -1.1754,0.6688 -0.28748,0.19265 -0.73617,0.52904 -0.99667,0.74715 -0.26053,0.2186 -0.63136,0.56298 -0.82402,0.76562 -0.19215,0.20313 -0.47664,0.52804 -0.63136,0.7222 -0.15522,0.19414 -0.42174,0.56498 -0.59293,0.82351 -0.17069,0.25854 -0.46317,0.7811 -0.64983,1.1609 -0.18666,0.37982 -0.43072,0.97127 -0.54302,1.3142 -0.1118,0.34288 -0.25903,0.89688 -0.32641,1.2308 -0.0679,0.3339 -0.14873,0.93878 -0.17968,1.3436 -0.0419,0.54502 -0.0424,0.92388 -9.8e-4,1.4589 0.0304,0.39779 0.10181,0.96329 0.15871,1.2562 0.0564,0.29348 0.17918,0.78609 0.27301,1.0951 0.0933,0.30895 0.26302,0.7781 0.37632,1.0426 0.11379,0.26452 0.31642,0.68326 0.45069,0.92979 0.13376,0.24706 0.36833,0.63685 0.52105,0.86594 0.15273,0.22909 0.45319,0.62737 0.6678,0.8849 0.21512,0.25704 0.58644,0.65333 0.82551,0.87942 0.23906,0.22659 0.6074,0.54302 0.81802,0.70323 0.21062,0.16022 0.56199,0.40876 0.78109,0.5525 0.2191,0.14324 0.69026,0.40378 1.0471,0.57847 0.35685,0.17468 0.90735,0.40526 1.2228,0.51257 0.31593,0.1068 0.7761,0.24156 1.0232,0.29896 0.24705,0.0569 0.7187,0.14125 1.0481,0.18667 0.46217,0.0634 0.8325,0.0764 1.6221,0.0574 0.63336,-0.016 1.1943,-0.0569 1.4724,-0.10831 0.24705,-0.046 0.67378,-0.13975 0.94829,-0.20862 0.2745,-0.0694 0.71272,-0.20513 0.97324,-0.30246 0.26104,-0.0968 0.74316,-0.31094 1.0721,-0.47514 0.32941,-0.1647 0.81952,-0.4452 1.09,-0.62338 0.27051,-0.17867 0.68627,-0.48812 0.92433,-0.68776 0.23757,-0.20014 0.61439,-0.5515 0.83699,-0.78109 0.2226,-0.22958 0.52105,-0.55999 0.6638,-0.73468 0.14224,-0.17469 0.39179,-0.51507 0.554,-0.75663 0.16271,-0.24157 0.40727,-0.64883 0.54402,-0.90538 0.13675,-0.25654 0.32991,-0.65732 0.42923,-0.89039 0.0998,-0.23358 0.25754,-0.67628 0.35087,-0.9842 0.0933,-0.30794 0.21511,-0.79058 0.27001,-1.0731 0.0549,-0.28199 0.12278,-0.74566 0.15123,-1.0302 0.0279,-0.28399 0.0509,-0.73667 0.0509,-1.0052 0,-0.26851 -0.0235,-0.7212 -0.0519,-1.0052 -0.0285,-0.28449 -0.0863,-0.70523 -0.12877,-0.93536 -0.0424,-0.22959 -0.14275,-0.65133 -0.2231,-0.9368 -0.0799,-0.28549 -0.23657,-0.74865 -0.34787,-1.0296 -0.1108,-0.28049 -0.32342,-0.73967 -0.47165,-1.0206 -0.14823,-0.2805 -0.40577,-0.71222 -0.57147,-0.9588 -0.1657,-0.24656 -0.46666,-0.64584 -0.66829,-0.88691 -0.20164,-0.24156 -0.57796,-0.64134 -0.836,-0.88939 -0.25803,-0.24805 -0.65532,-0.59193 -0.88241,-0.76462 -0.22709,-0.17269 -0.58843,-0.42224 -0.80255,-0.555 -0.21411,-0.13276 -0.62238,-0.35835 -0.90691,-0.5011 -0.28449,-0.14274 -0.7187,-0.33689 -0.96472,-0.43072 -0.24655,-0.0938 -0.69675,-0.23658 -1.0012,-0.31692 -0.30395,-0.0799 -0.75514,-0.18268 -1.0022,-0.2276 -0.29946,-0.0544 -0.81553,-0.0873 -1.5472,-0.0988 z m -0.23957,7.4666 c 0.25255,-0.002 0.57845,0.0209 0.7237,0.0509 0.14573,0.03 0.45568,0.14524 0.68875,0.25604 0.34438,0.16371 0.49961,0.278 0.82452,0.60691 0.29247,0.29597 0.45018,0.50608 0.58445,0.77959 0.10132,0.20563 0.2181,0.52006 0.26003,0.69874 0.0419,0.17818 0.0769,0.49511 0.0774,0.70323 0,0.21611 -0.0419,0.54402 -0.0983,0.76413 -0.0539,0.21211 -0.17119,0.52456 -0.26003,0.69425 -0.0993,0.19015 -0.31594,0.46366 -0.56249,0.71071 -0.273,0.27301 -0.51308,0.45918 -0.75064,0.58196 -0.19216,0.0993 -0.48713,0.2161 -0.65582,0.25953 -0.17418,0.0449 -0.51007,0.0794 -0.77559,0.0794 -0.25804,0 -0.60292,-0.0339 -0.76663,-0.0754 -0.1637,-0.0414 -0.46566,-0.15871 -0.67179,-0.26102 -0.26801,-0.13327 -0.48113,-0.29298 -0.74965,-0.56149 -0.24655,-0.24606 -0.4377,-0.49461 -0.55699,-0.7242 -0.0998,-0.19215 -0.2221,-0.48412 -0.27102,-0.64883 -0.0614,-0.20563 -0.0898,-0.46416 -0.0898,-0.82351 0,-0.35936 0.0284,-0.61789 0.0898,-0.82352 0.0489,-0.1647 0.1712,-0.45668 0.27102,-0.64883 0.11928,-0.22959 0.31043,-0.47814 0.55699,-0.7242 0.26802,-0.26801 0.48214,-0.42822 0.74965,-0.56148 0.20613,-0.10232 0.49811,-0.2186 0.64883,-0.25804 0.15123,-0.0394 0.48113,-0.0733 0.73368,-0.0749 z m 40.774,-5.9363 c -0.36084,0.004 -0.82401,0.0255 -1.0302,0.0489 -0.20563,0.023 -0.62138,0.0903 -0.92333,0.14873 -0.30196,0.0589 -0.85896,0.20813 -1.2378,0.33141 -0.37881,0.12327 -0.99623,0.37682 -1.3725,0.56348 -0.37582,0.18616 -0.90188,0.48512 -1.1678,0.66331 -0.26652,0.17867 -0.61489,0.42972 -0.77361,0.55749 -0.15921,0.12827 -0.52156,0.46116 -0.80554,0.74066 -0.28349,0.2795 -0.6683,0.69874 -0.85496,0.93231 -0.18617,0.23308 -0.47715,0.63735 -0.64634,0.89838 -0.1692,0.26053 -0.42823,0.7212 -0.57546,1.0232 -0.14774,0.30195 -0.34988,0.77011 -0.4497,1.0401 -0.0998,0.27002 -0.24555,0.74467 -0.32391,1.0551 -0.0784,0.30994 -0.18117,0.85047 -0.22809,1.2008 -0.0674,0.4996 -0.0803,0.85745 -0.0599,1.665 0.016,0.62836 0.0579,1.2029 0.1083,1.4774 0.0454,0.24706 0.14025,0.67379 0.21162,0.94829 0.0709,0.27451 0.22659,0.75265 0.34588,1.0631 0.11878,0.30995 0.3319,0.78858 0.47365,1.0636 0.14124,0.275 0.36883,0.67229 0.50608,0.88241 0.13776,0.21062 0.3863,0.56298 0.55301,0.78309 0.16669,0.2201 0.551,0.64932 0.85445,0.95377 0.30346,0.30445 0.71072,0.67828 0.90485,0.831 0.19414,0.15323 0.56498,0.41725 0.82351,0.58745 0.25854,0.17018 0.72869,0.43921 1.0442,0.59742 0.31543,0.15821 0.79557,0.37033 1.0661,0.47165 0.271,0.10132 0.75364,0.24905 1.0731,0.32841 0.31943,0.0799 0.82801,0.18167 1.13,0.22709 0.35935,0.0539 0.86793,0.0823 1.4724,0.0823 0.6064,0 1.112,-0.0279 1.4723,-0.0823 0.30196,-0.046 0.77361,-0.13926 1.0481,-0.20763 0.27451,-0.0684 0.70124,-0.19266 0.94829,-0.27601 0.24706,-0.0833 0.76363,-0.30445 1.1479,-0.49161 0.38431,-0.18716 0.93483,-0.4976 1.2228,-0.68975 0.28848,-0.19216 0.74216,-0.53155 1.0082,-0.75514 0.26652,-0.2231 0.6658,-0.60292 0.8869,-0.84448 0.22161,-0.24156 0.5575,-0.64534 0.74666,-0.89738 0.18916,-0.25254 0.47415,-0.67728 0.63386,-0.94479 0.15971,-0.26752 0.39878,-0.72918 0.53104,-1.0261 0.13276,-0.29697 0.31743,-0.76862 0.41076,-1.0481 0.0933,-0.2795 0.21461,-0.71172 0.27002,-0.96077 0.0554,-0.24906 0.13525,-0.71621 0.17718,-1.0382 0.0425,-0.32192 0.0768,-0.8999 0.0768,-1.2836 0,-0.38382 -0.024,-0.91634 -0.0534,-1.1828 -0.0294,-0.26653 -0.10881,-0.74816 -0.17619,-1.0706 -0.0679,-0.32242 -0.21362,-0.84997 -0.32441,-1.1729 -0.11031,-0.32293 -0.32442,-0.84548 -0.47515,-1.161 -0.15072,-0.31593 -0.37832,-0.74266 -0.50508,-0.94829 -0.12727,-0.20613 -0.38431,-0.58245 -0.57198,-0.83699 -0.18716,-0.25454 -0.58893,-0.7192 -0.89288,-1.0327 -0.30346,-0.31343 -0.73169,-0.71171 -0.95126,-0.8849 -0.2196,-0.17319 -0.59443,-0.44569 -0.8325,-0.60491 -0.23807,-0.15971 -0.74066,-0.4437 -1.1165,-0.63086 -0.37632,-0.18716 -0.9947,-0.44221 -1.3745,-0.56698 -0.37982,-0.12428 -0.92531,-0.27151 -1.2128,-0.32691 -0.28698,-0.0554 -0.75465,-0.12478 -1.0391,-0.15372 -0.28398,-0.029 -0.81203,-0.0499 -1.1729,-0.0464 z m 0.0973,7.4855 c 0.25555,-0.004 0.54552,0.031 0.78908,0.0933 0.21212,0.0539 0.52456,0.17119 0.69426,0.26002 0.18816,0.0983 0.46715,0.31843 0.7127,0.5625 0.30496,0.30245 0.4487,0.4931 0.58595,0.77559 0.10032,0.20563 0.21861,0.51857 0.26253,0.69525 0.0584,0.23109 0.0749,0.46916 0.0599,0.84847 -0.016,0.40627 -0.0514,0.61339 -0.15372,0.9009 -0.0733,0.20512 -0.23757,0.52605 -0.36534,0.71321 -0.12777,0.18667 -0.35686,0.45069 -0.50958,0.58644 -0.15223,0.13575 -0.45818,0.3349 -0.67928,0.44221 -0.2216,0.1073 -0.50359,0.21861 -0.62737,0.24755 -0.12327,0.029 -0.37083,0.0669 -0.54901,0.0838 -0.20613,0.0195 -0.47913,0.003 -0.74865,-0.0454 -0.28299,-0.0509 -0.56498,-0.14624 -0.84697,-0.28599 -0.32342,-0.16022 -0.51058,-0.29796 -0.79906,-0.58844 -0.2176,-0.2186 -0.4422,-0.50509 -0.53304,-0.67828 -0.0858,-0.1647 -0.19365,-0.41026 -0.23907,-0.54552 -0.0454,-0.13575 -0.10231,-0.40526 -0.12677,-0.59892 -0.0275,-0.2166 -0.0255,-0.50409 0.004,-0.74415 0.0269,-0.21512 0.10382,-0.53604 0.1702,-0.71272 0.0663,-0.17668 0.20313,-0.4457 0.30395,-0.59692 0.10081,-0.15173 0.28648,-0.37981 0.41325,-0.50659 0.12677,-0.12727 0.36185,-0.31593 0.52256,-0.42024 0.16071,-0.10382 0.41924,-0.23657 0.57397,-0.29447 0.15522,-0.0584 0.37183,-0.12427 0.48163,-0.14624 0.1098,-0.022 0.38131,-0.0425 0.60341,-0.0454 z m -16.69,5.6888 c -0.0733,0.003 -1.7239,0.24706 -3.6678,0.54353 -1.9435,0.29646 -3.5431,0.54851 -3.5546,0.55999 -0.0115,0.0115 0.32741,2.3203 0.75264,5.1312 0.42574,2.8104 0.78109,5.1168 0.78958,5.1253 0.009,0.008 1.664,-0.23408 3.6793,-0.53903 2.0154,-0.30545 3.6729,-0.56299 3.6834,-0.57297 0.0109,-0.01 -0.32192,-2.2819 -0.73916,-5.0479 -0.41725,-2.7665 -0.77011,-5.0694 -0.78409,-5.1173 -0.0164,-0.0569 -0.0719,-0.0858 -0.15921,-0.0829 z"
         stroke="null" />
    </g>
  </g>
</svg>
